<?xml version="1.0" encoding="UTF-8" standalone="no"?>
<!DOCTYPE svg PUBLIC "-//W3C//DTD SVG 1.1//EN"
 "http://www.w3.org/Graphics/SVG/1.1/DTD/svg11.dtd">
<!-- Generated by graphviz version 2.38.0 (20140413.2041)
 -->
<!-- Title: snakemake_dag Pages: 1 -->
<svg width="2259pt" height="908pt"
 viewBox="0.00 0.00 2258.50 908.00" xmlns="http://www.w3.org/2000/svg" xmlns:xlink="http://www.w3.org/1999/xlink">
<g id="graph0" class="graph" transform="scale(1 1) rotate(0) translate(4 904)">
<title>snakemake_dag</title>
<polygon fill="white" stroke="none" points="-4,4 -4,-904 2254.5,-904 2254.5,4 -4,4"/>
<!-- 0 -->
<g id="node1" class="node"><title>0</title>
<path fill="none" stroke="#5692d8" stroke-width="2" d="M1739.5,-612C1739.5,-612 1668.5,-612 1668.5,-612 1662.5,-612 1656.5,-606 1656.5,-600 1656.5,-600 1656.5,-588 1656.5,-588 1656.5,-582 1662.5,-576 1668.5,-576 1668.5,-576 1739.5,-576 1739.5,-576 1745.5,-576 1751.5,-582 1751.5,-588 1751.5,-588 1751.5,-600 1751.5,-600 1751.5,-606 1745.5,-612 1739.5,-612"/>
<text text-anchor="middle" x="1704" y="-591.5" font-family="sans" font-size="10.00">assemble_quast</text>
</g>
<!-- 23 -->
<g id="node24" class="node"><title>23</title>
<path fill="none" stroke="#b6d856" stroke-width="2" d="M1037,-36C1037,-36 1007,-36 1007,-36 1001,-36 995,-30 995,-24 995,-24 995,-12 995,-12 995,-6 1001,-0 1007,-0 1007,-0 1037,-0 1037,-0 1043,-0 1049,-6 1049,-12 1049,-12 1049,-24 1049,-24 1049,-30 1043,-36 1037,-36"/>
<text text-anchor="middle" x="1022" y="-15.5" font-family="sans" font-size="10.00">all</text>
</g>
<!-- 0&#45;&gt;23 -->
<g id="edge39" class="edge"><title>0&#45;&gt;23</title>
<path fill="none" stroke="grey" stroke-width="2" d="M1656.26,-578.079C1653.14,-577.316 1650.04,-576.613 1647,-576 1574.69,-561.398 1378.2,-581.19 1317,-540 1279.72,-514.906 1269,-495.942 1269,-451 1269,-451 1269,-451 1269,-161 1269,-118.162 1264.43,-99.9883 1232,-72 1183.14,-29.835 1105.41,-20.3852 1059.47,-18.7362"/>
<polygon fill="grey" stroke="grey" stroke-width="2" points="1059.43,-15.2341 1049.35,-18.4811 1059.26,-22.2319 1059.43,-15.2341"/>
</g>
<!-- 1 -->
<g id="node2" class="node"><title>1</title>
<path fill="none" stroke="#80d856" stroke-width="2" d="M1401.5,-684C1401.5,-684 1330.5,-684 1330.5,-684 1324.5,-684 1318.5,-678 1318.5,-672 1318.5,-672 1318.5,-660 1318.5,-660 1318.5,-654 1324.5,-648 1330.5,-648 1330.5,-648 1401.5,-648 1401.5,-648 1407.5,-648 1413.5,-654 1413.5,-660 1413.5,-660 1413.5,-672 1413.5,-672 1413.5,-678 1407.5,-684 1401.5,-684"/>
<text text-anchor="middle" x="1366" y="-663.5" font-family="sans" font-size="10.00">tax_metaphlan2</text>
</g>
<!-- 19 -->
<g id="node20" class="node"><title>19</title>
<path fill="none" stroke="#d88556" stroke-width="2" d="M1198.5,-612C1198.5,-612 1081.5,-612 1081.5,-612 1075.5,-612 1069.5,-606 1069.5,-600 1069.5,-600 1069.5,-588 1069.5,-588 1069.5,-582 1075.5,-576 1081.5,-576 1081.5,-576 1198.5,-576 1198.5,-576 1204.5,-576 1210.5,-582 1210.5,-588 1210.5,-588 1210.5,-600 1210.5,-600 1210.5,-606 1204.5,-612 1198.5,-612"/>
<text text-anchor="middle" x="1140" y="-591.5" font-family="sans" font-size="10.00">tax_combine_metaphlan2</text>
</g>
<!-- 1&#45;&gt;19 -->
<g id="edge31" class="edge"><title>1&#45;&gt;19</title>
<path fill="none" stroke="grey" stroke-width="2" d="M1318.35,-650.24C1285.44,-640.048 1241.27,-626.365 1205.11,-615.168"/>
<polygon fill="grey" stroke="grey" stroke-width="2" points="1205.73,-611.696 1195.15,-612.081 1203.66,-618.383 1205.73,-611.696"/>
</g>
<!-- 2 -->
<g id="node3" class="node"><title>2</title>
<path fill="none" stroke="#d86656" stroke-width="2" d="M1575,-756C1575,-756 1545,-756 1545,-756 1539,-756 1533,-750 1533,-744 1533,-744 1533,-732 1533,-732 1533,-726 1539,-720 1545,-720 1545,-720 1575,-720 1575,-720 1581,-720 1587,-726 1587,-732 1587,-732 1587,-744 1587,-744 1587,-750 1581,-756 1575,-756"/>
<text text-anchor="middle" x="1560" y="-735.5" font-family="sans" font-size="10.00">qc_filter</text>
</g>
<!-- 2&#45;&gt;1 -->
<g id="edge3" class="edge"><title>2&#45;&gt;1</title>
<path fill="none" stroke="grey" stroke-width="2" d="M1532.62,-727.119C1504.24,-716.879 1459.05,-700.576 1422.89,-687.529"/>
<polygon fill="grey" stroke="grey" stroke-width="2" points="1424.03,-684.217 1413.43,-684.116 1421.65,-690.802 1424.03,-684.217"/>
</g>
<!-- 6 -->
<g id="node7" class="node"><title>6</title>
<path fill="none" stroke="#56a2d8" stroke-width="2" d="M1175,-684C1175,-684 1075,-684 1075,-684 1069,-684 1063,-678 1063,-672 1063,-672 1063,-660 1063,-660 1063,-654 1069,-648 1075,-648 1075,-648 1175,-648 1175,-648 1181,-648 1187,-654 1187,-660 1187,-660 1187,-672 1187,-672 1187,-678 1181,-684 1175,-684"/>
<text text-anchor="middle" x="1125" y="-663.5" font-family="sans" font-size="10.00">qc_per_sample_fastqc</text>
</g>
<!-- 2&#45;&gt;6 -->
<g id="edge10" class="edge"><title>2&#45;&gt;6</title>
<path fill="none" stroke="grey" stroke-width="2" d="M1532.92,-733.907C1473.77,-726.97 1328.44,-708.945 1197.1,-684.122"/>
<polygon fill="grey" stroke="grey" stroke-width="2" points="1197.75,-680.683 1187.27,-682.246 1196.44,-687.559 1197.75,-680.683"/>
</g>
<!-- 13 -->
<g id="node14" class="node"><title>13</title>
<path fill="none" stroke="#61d856" stroke-width="2" d="M810.5,-468C810.5,-468 731.5,-468 731.5,-468 725.5,-468 719.5,-462 719.5,-456 719.5,-456 719.5,-444 719.5,-444 719.5,-438 725.5,-432 731.5,-432 731.5,-432 810.5,-432 810.5,-432 816.5,-432 822.5,-438 822.5,-444 822.5,-444 822.5,-456 822.5,-456 822.5,-462 816.5,-468 810.5,-468"/>
<text text-anchor="middle" x="771" y="-453" font-family="sans" font-size="10.00">map_bowtie2</text>
<text text-anchor="middle" x="771" y="-442" font-family="sans" font-size="10.00">abund_sample: Vf</text>
</g>
<!-- 2&#45;&gt;13 -->
<g id="edge21" class="edge"><title>2&#45;&gt;13</title>
<path fill="none" stroke="grey" stroke-width="2" d="M1555.2,-719.738C1548.49,-699.069 1534.19,-665.105 1509,-648 1415.76,-584.697 1359.77,-660.403 1258,-612 1236.7,-601.869 1239.6,-587.49 1219,-576 1201.81,-566.412 950.826,-498.892 832.227,-467.268"/>
<polygon fill="grey" stroke="grey" stroke-width="2" points="833.111,-463.881 822.547,-464.688 831.308,-470.645 833.111,-463.881"/>
</g>
<!-- 2&#45;&gt;23 -->
<g id="edge40" class="edge"><title>2&#45;&gt;23</title>
<path fill="none" stroke="grey" stroke-width="2" d="M1587.04,-725.864C1604.18,-717.212 1624.96,-703.397 1635,-684 1642.36,-669.792 1645.07,-660.431 1635,-648 1586.37,-587.999 1532.35,-649.792 1465,-612 1445.81,-601.231 1450.49,-586.221 1431,-576 1337.42,-526.927 1280.4,-603.571 1196,-540 1161.21,-513.798 1155,-494.551 1155,-451 1155,-451 1155,-451 1155,-161 1155,-104.244 1097.7,-60.8175 1058.32,-37.6739"/>
<polygon fill="grey" stroke="grey" stroke-width="2" points="1059.66,-34.4069 1049.24,-32.5024 1056.2,-40.4906 1059.66,-34.4069"/>
</g>
<!-- 26 -->
<g id="node27" class="node"><title>26</title>
<path fill="none" stroke="#56d873" stroke-width="2" d="M1779,-684C1779,-684 1695,-684 1695,-684 1689,-684 1683,-678 1683,-672 1683,-672 1683,-660 1683,-660 1683,-654 1689,-648 1695,-648 1695,-648 1779,-648 1779,-648 1785,-648 1791,-654 1791,-660 1791,-660 1791,-672 1791,-672 1791,-678 1785,-684 1779,-684"/>
<text text-anchor="middle" x="1737" y="-663.5" font-family="sans" font-size="10.00">assemble_megahit</text>
</g>
<!-- 2&#45;&gt;26 -->
<g id="edge66" class="edge"><title>2&#45;&gt;26</title>
<path fill="none" stroke="grey" stroke-width="2" d="M1587.27,-726.216C1613.02,-716.033 1652.33,-700.485 1684.21,-687.876"/>
<polygon fill="grey" stroke="grey" stroke-width="2" points="1685.83,-690.999 1693.85,-684.066 1683.26,-684.489 1685.83,-690.999"/>
</g>
<!-- 27 -->
<g id="node28" class="node"><title>27</title>
<path fill="none" stroke="#d8b456" stroke-width="2" d="M1925,-684C1925,-684 1821,-684 1821,-684 1815,-684 1809,-678 1809,-672 1809,-672 1809,-660 1809,-660 1809,-654 1815,-648 1821,-648 1821,-648 1925,-648 1925,-648 1931,-648 1937,-654 1937,-660 1937,-660 1937,-672 1937,-672 1937,-678 1931,-684 1925,-684"/>
<text text-anchor="middle" x="1873" y="-663.5" font-family="sans" font-size="10.00">assemble_metaspades</text>
</g>
<!-- 2&#45;&gt;27 -->
<g id="edge67" class="edge"><title>2&#45;&gt;27</title>
<path fill="none" stroke="grey" stroke-width="2" d="M1587.02,-731.139C1629.78,-721.841 1715.92,-703.017 1799.06,-684.202"/>
<polygon fill="grey" stroke="grey" stroke-width="2" points="1799.94,-687.591 1808.92,-681.968 1798.39,-680.764 1799.94,-687.591"/>
</g>
<!-- 31 -->
<g id="node32" class="node"><title>31</title>
<path fill="none" stroke="#d88d56" stroke-width="2" d="M777,-684C777,-684 729,-684 729,-684 723,-684 717,-678 717,-672 717,-672 717,-660 717,-660 717,-654 723,-648 729,-648 729,-648 777,-648 777,-648 783,-648 789,-654 789,-660 789,-660 789,-672 789,-672 789,-678 783,-684 777,-684"/>
<text text-anchor="middle" x="753" y="-663.5" font-family="sans" font-size="10.00">tax_shogun</text>
</g>
<!-- 2&#45;&gt;31 -->
<g id="edge73" class="edge"><title>2&#45;&gt;31</title>
<path fill="none" stroke="grey" stroke-width="2" d="M1532.91,-736.276C1437.22,-733.452 1106.28,-721.413 836,-684 823.934,-682.33 810.989,-679.961 798.997,-677.521"/>
<polygon fill="grey" stroke="grey" stroke-width="2" points="799.692,-674.091 789.187,-675.468 798.258,-680.942 799.692,-674.091"/>
</g>
<!-- 51 -->
<g id="node52" class="node"><title>51</title>
<path fill="none" stroke="#d87d56" stroke-width="2" d="M1614.5,-684C1614.5,-684 1569.5,-684 1569.5,-684 1563.5,-684 1557.5,-678 1557.5,-672 1557.5,-672 1557.5,-660 1557.5,-660 1557.5,-654 1563.5,-648 1569.5,-648 1569.5,-648 1614.5,-648 1614.5,-648 1620.5,-648 1626.5,-654 1626.5,-660 1626.5,-660 1626.5,-672 1626.5,-672 1626.5,-678 1620.5,-684 1614.5,-684"/>
<text text-anchor="middle" x="1592" y="-663.5" font-family="sans" font-size="10.00">tax_kraken</text>
</g>
<!-- 2&#45;&gt;51 -->
<g id="edge114" class="edge"><title>2&#45;&gt;51</title>
<path fill="none" stroke="grey" stroke-width="2" d="M1567.91,-719.697C1571.55,-711.728 1575.95,-702.1 1579.99,-693.264"/>
<polygon fill="grey" stroke="grey" stroke-width="2" points="1583.21,-694.654 1584.18,-684.104 1576.84,-691.744 1583.21,-694.654"/>
</g>
<!-- 55 -->
<g id="node56" class="node"><title>55</title>
<path fill="none" stroke="#61d856" stroke-width="2" d="M1961.5,-468C1961.5,-468 1882.5,-468 1882.5,-468 1876.5,-468 1870.5,-462 1870.5,-456 1870.5,-456 1870.5,-444 1870.5,-444 1870.5,-438 1876.5,-432 1882.5,-432 1882.5,-432 1961.5,-432 1961.5,-432 1967.5,-432 1973.5,-438 1973.5,-444 1973.5,-444 1973.5,-456 1973.5,-456 1973.5,-462 1967.5,-468 1961.5,-468"/>
<text text-anchor="middle" x="1922" y="-453" font-family="sans" font-size="10.00">map_bowtie2</text>
<text text-anchor="middle" x="1922" y="-442" font-family="sans" font-size="10.00">abund_sample: Vf</text>
</g>
<!-- 2&#45;&gt;55 -->
<g id="edge120" class="edge"><title>2&#45;&gt;55</title>
<path fill="none" stroke="grey" stroke-width="2" d="M1587.18,-735.829C1664.51,-732.101 1884.1,-718.655 1946,-684 1993.73,-657.281 2016.97,-629.37 2005,-576 1997.26,-541.469 1990.8,-533.333 1971,-504 1964.34,-494.139 1955.89,-484.303 1947.88,-475.829"/>
<polygon fill="grey" stroke="grey" stroke-width="2" points="1950.2,-473.194 1940.71,-468.469 1945.18,-478.076 1950.2,-473.194"/>
</g>
<!-- 3 -->
<g id="node4" class="node"><title>3</title>
<path fill="none" stroke="#d6d856" stroke-width="2" d="M717,-324C717,-324 649,-324 649,-324 643,-324 637,-318 637,-312 637,-312 637,-300 637,-300 637,-294 643,-288 649,-288 649,-288 717,-288 717,-288 723,-288 729,-294 729,-300 729,-300 729,-312 729,-312 729,-318 723,-324 717,-324"/>
<text text-anchor="middle" x="683" y="-303.5" font-family="sans" font-size="10.00">bin_run_maxbin</text>
</g>
<!-- 3&#45;&gt;23 -->
<g id="edge41" class="edge"><title>3&#45;&gt;23</title>
<path fill="none" stroke="grey" stroke-width="2" d="M674.075,-287.97C665.786,-269.833 655.856,-240.432 664,-216 691.935,-132.196 722.441,-112.397 801,-72 860.897,-41.1994 939.179,-27.9094 984.694,-22.4726"/>
<polygon fill="grey" stroke="grey" stroke-width="2" points="985.167,-25.9416 994.71,-21.3405 984.38,-18.9859 985.167,-25.9416"/>
</g>
<!-- 52 -->
<g id="node53" class="node"><title>52</title>
<path fill="none" stroke="#56d8d0" stroke-width="2" d="M772.5,-252C772.5,-252 685.5,-252 685.5,-252 679.5,-252 673.5,-246 673.5,-240 673.5,-240 673.5,-228 673.5,-228 673.5,-222 679.5,-216 685.5,-216 685.5,-216 772.5,-216 772.5,-216 778.5,-216 784.5,-222 784.5,-228 784.5,-228 784.5,-240 784.5,-240 784.5,-246 778.5,-252 772.5,-252"/>
<text text-anchor="middle" x="729" y="-231.5" font-family="sans" font-size="10.00">summarize_maxbin</text>
</g>
<!-- 3&#45;&gt;52 -->
<g id="edge115" class="edge"><title>3&#45;&gt;52</title>
<path fill="none" stroke="grey" stroke-width="2" d="M694.371,-287.697C699.718,-279.559 706.204,-269.689 712.111,-260.701"/>
<polygon fill="grey" stroke="grey" stroke-width="2" points="715.193,-262.384 717.76,-252.104 709.343,-258.539 715.193,-262.384"/>
</g>
<!-- 4 -->
<g id="node5" class="node"><title>4</title>
<path fill="none" stroke="#5663d8" stroke-width="2" d="M2238.5,-180C2238.5,-180 2155.5,-180 2155.5,-180 2149.5,-180 2143.5,-174 2143.5,-168 2143.5,-168 2143.5,-156 2143.5,-156 2143.5,-150 2149.5,-144 2155.5,-144 2155.5,-144 2238.5,-144 2238.5,-144 2244.5,-144 2250.5,-150 2250.5,-156 2250.5,-156 2250.5,-168 2250.5,-168 2250.5,-174 2244.5,-180 2238.5,-180"/>
<text text-anchor="middle" x="2197" y="-165" font-family="sans" font-size="10.00">raw_per_file_fastqc</text>
<text text-anchor="middle" x="2197" y="-154" font-family="sans" font-size="10.00">sample: Vf</text>
</g>
<!-- 15 -->
<g id="node16" class="node"><title>15</title>
<path fill="none" stroke="#5682d8" stroke-width="2" d="M2118.5,-108C2118.5,-108 2029.5,-108 2029.5,-108 2023.5,-108 2017.5,-102 2017.5,-96 2017.5,-96 2017.5,-84 2017.5,-84 2017.5,-78 2023.5,-72 2029.5,-72 2029.5,-72 2118.5,-72 2118.5,-72 2124.5,-72 2130.5,-78 2130.5,-84 2130.5,-84 2130.5,-96 2130.5,-96 2130.5,-102 2124.5,-108 2118.5,-108"/>
<text text-anchor="middle" x="2074" y="-87.5" font-family="sans" font-size="10.00">raw_per_file_multiqc</text>
</g>
<!-- 4&#45;&gt;15 -->
<g id="edge25" class="edge"><title>4&#45;&gt;15</title>
<path fill="none" stroke="grey" stroke-width="2" d="M2166.91,-143.876C2150.68,-134.639 2130.46,-123.131 2113.03,-113.212"/>
<polygon fill="grey" stroke="grey" stroke-width="2" points="2114.63,-110.094 2104.2,-108.19 2111.16,-116.178 2114.63,-110.094"/>
</g>
<!-- 5 -->
<g id="node6" class="node"><title>5</title>
<path fill="none" stroke="#56d892" stroke-width="2" d="M489,-108C489,-108 413,-108 413,-108 407,-108 401,-102 401,-96 401,-96 401,-84 401,-84 401,-78 407,-72 413,-72 413,-72 489,-72 489,-72 495,-72 501,-78 501,-84 501,-84 501,-96 501,-96 501,-102 495,-108 489,-108"/>
<text text-anchor="middle" x="451" y="-87.5" font-family="sans" font-size="10.00">anvi_add_maxbin</text>
</g>
<!-- 5&#45;&gt;23 -->
<g id="edge44" class="edge"><title>5&#45;&gt;23</title>
<path fill="none" stroke="grey" stroke-width="2" d="M501.107,-74.3155C504.777,-73.4617 508.436,-72.6769 512,-72 687.075,-38.7522 900.203,-25.0934 984.812,-20.7181"/>
<polygon fill="grey" stroke="grey" stroke-width="2" points="985.139,-24.2062 994.95,-20.2068 984.786,-17.215 985.139,-24.2062"/>
</g>
<!-- 30 -->
<g id="node31" class="node"><title>30</title>
<path fill="none" stroke="#566bd8" stroke-width="2" d="M963,-612C963,-612 857,-612 857,-612 851,-612 845,-606 845,-600 845,-600 845,-588 845,-588 845,-582 851,-576 857,-576 857,-576 963,-576 963,-576 969,-576 975,-582 975,-588 975,-588 975,-600 975,-600 975,-606 969,-612 963,-612"/>
<text text-anchor="middle" x="910" y="-591.5" font-family="sans" font-size="10.00">qc_per_sample_multiqc</text>
</g>
<!-- 6&#45;&gt;30 -->
<g id="edge71" class="edge"><title>6&#45;&gt;30</title>
<path fill="none" stroke="grey" stroke-width="2" d="M1072.68,-647.966C1042.38,-638.1 1004.05,-625.622 972.212,-615.255"/>
<polygon fill="grey" stroke="grey" stroke-width="2" points="973.147,-611.879 962.555,-612.111 970.98,-618.535 973.147,-611.879"/>
</g>
<!-- 7 -->
<g id="node8" class="node"><title>7</title>
<path fill="none" stroke="#5663d8" stroke-width="2" d="M2113.5,-180C2113.5,-180 2030.5,-180 2030.5,-180 2024.5,-180 2018.5,-174 2018.5,-168 2018.5,-168 2018.5,-156 2018.5,-156 2018.5,-150 2024.5,-144 2030.5,-144 2030.5,-144 2113.5,-144 2113.5,-144 2119.5,-144 2125.5,-150 2125.5,-156 2125.5,-156 2125.5,-168 2125.5,-168 2125.5,-174 2119.5,-180 2113.5,-180"/>
<text text-anchor="middle" x="2072" y="-165" font-family="sans" font-size="10.00">raw_per_file_fastqc</text>
<text text-anchor="middle" x="2072" y="-154" font-family="sans" font-size="10.00">sample: Bs</text>
</g>
<!-- 7&#45;&gt;15 -->
<g id="edge24" class="edge"><title>7&#45;&gt;15</title>
<path fill="none" stroke="grey" stroke-width="2" d="M2072.49,-143.697C2072.71,-135.983 2072.98,-126.712 2073.23,-118.112"/>
<polygon fill="grey" stroke="grey" stroke-width="2" points="2076.72,-118.2 2073.51,-108.104 2069.73,-118 2076.72,-118.2"/>
</g>
<!-- 8 -->
<g id="node9" class="node"><title>8</title>
<path fill="none" stroke="#56d863" stroke-width="2" d="M1964.5,-396C1964.5,-396 1879.5,-396 1879.5,-396 1873.5,-396 1867.5,-390 1867.5,-384 1867.5,-384 1867.5,-372 1867.5,-372 1867.5,-366 1873.5,-360 1879.5,-360 1879.5,-360 1964.5,-360 1964.5,-360 1970.5,-360 1976.5,-366 1976.5,-372 1976.5,-372 1976.5,-384 1976.5,-384 1976.5,-390 1970.5,-396 1964.5,-396"/>
<text text-anchor="middle" x="1922" y="-375.5" font-family="sans" font-size="10.00">bin_make_cov_files</text>
</g>
<!-- 35 -->
<g id="node36" class="node"><title>35</title>
<path fill="none" stroke="#d6d856" stroke-width="2" d="M1989,-324C1989,-324 1921,-324 1921,-324 1915,-324 1909,-318 1909,-312 1909,-312 1909,-300 1909,-300 1909,-294 1915,-288 1921,-288 1921,-288 1989,-288 1989,-288 1995,-288 2001,-294 2001,-300 2001,-300 2001,-312 2001,-312 2001,-318 1995,-324 1989,-324"/>
<text text-anchor="middle" x="1955" y="-303.5" font-family="sans" font-size="10.00">bin_run_maxbin</text>
</g>
<!-- 8&#45;&gt;35 -->
<g id="edge84" class="edge"><title>8&#45;&gt;35</title>
<path fill="none" stroke="grey" stroke-width="2" d="M1930.16,-359.697C1933.91,-351.728 1938.45,-342.1 1942.62,-333.264"/>
<polygon fill="grey" stroke="grey" stroke-width="2" points="1945.84,-334.642 1946.94,-324.104 1939.51,-331.657 1945.84,-334.642"/>
</g>
<!-- 65 -->
<g id="node66" class="node"><title>65</title>
<path fill="none" stroke="#d8ac56" stroke-width="2" d="M1879.5,-180C1879.5,-180 1808.5,-180 1808.5,-180 1802.5,-180 1796.5,-174 1796.5,-168 1796.5,-168 1796.5,-156 1796.5,-156 1796.5,-150 1802.5,-144 1808.5,-144 1808.5,-144 1879.5,-144 1879.5,-144 1885.5,-144 1891.5,-150 1891.5,-156 1891.5,-156 1891.5,-168 1891.5,-168 1891.5,-174 1885.5,-180 1879.5,-180"/>
<text text-anchor="middle" x="1844" y="-159.5" font-family="sans" font-size="10.00">tar_bin_cov_files</text>
</g>
<!-- 8&#45;&gt;65 -->
<g id="edge133" class="edge"><title>8&#45;&gt;65</title>
<path fill="none" stroke="grey" stroke-width="2" d="M1905.78,-359.668C1885.78,-336.982 1852.85,-295.022 1840,-252 1834,-231.901 1835.48,-208.119 1838.2,-190.198"/>
<polygon fill="grey" stroke="grey" stroke-width="2" points="1841.68,-190.59 1839.94,-180.139 1834.78,-189.392 1841.68,-190.59"/>
</g>
<!-- 9 -->
<g id="node10" class="node"><title>9</title>
<path fill="none" stroke="#d89c56" stroke-width="2" d="M1530.5,-468C1530.5,-468 1461.5,-468 1461.5,-468 1455.5,-468 1449.5,-462 1449.5,-456 1449.5,-456 1449.5,-444 1449.5,-444 1449.5,-438 1455.5,-432 1461.5,-432 1461.5,-432 1530.5,-432 1530.5,-432 1536.5,-432 1542.5,-438 1542.5,-444 1542.5,-444 1542.5,-456 1542.5,-456 1542.5,-462 1536.5,-468 1530.5,-468"/>
<text text-anchor="middle" x="1496" y="-447.5" font-family="sans" font-size="10.00">anvi_run_hmms</text>
</g>
<!-- 40 -->
<g id="node41" class="node"><title>40</title>
<path fill="none" stroke="#d85656" stroke-width="2" d="M1603,-396C1603,-396 1499,-396 1499,-396 1493,-396 1487,-390 1487,-384 1487,-384 1487,-372 1487,-372 1487,-366 1493,-360 1499,-360 1499,-360 1603,-360 1603,-360 1609,-360 1615,-366 1615,-372 1615,-372 1615,-384 1615,-384 1615,-390 1609,-396 1603,-396"/>
<text text-anchor="middle" x="1551" y="-375.5" font-family="sans" font-size="10.00">anvi_export_gene_calls</text>
</g>
<!-- 9&#45;&gt;40 -->
<g id="edge91" class="edge"><title>9&#45;&gt;40</title>
<path fill="none" stroke="grey" stroke-width="2" d="M1509.6,-431.697C1516.12,-423.389 1524.07,-413.277 1531.25,-404.141"/>
<polygon fill="grey" stroke="grey" stroke-width="2" points="1534.13,-406.13 1537.56,-396.104 1528.63,-401.805 1534.13,-406.13"/>
</g>
<!-- 43 -->
<g id="node44" class="node"><title>43</title>
<path fill="none" stroke="#d8d356" stroke-width="2" d="M1539.5,-180C1539.5,-180 1490.5,-180 1490.5,-180 1484.5,-180 1478.5,-174 1478.5,-168 1478.5,-168 1478.5,-156 1478.5,-156 1478.5,-150 1484.5,-144 1490.5,-144 1490.5,-144 1539.5,-144 1539.5,-144 1545.5,-144 1551.5,-150 1551.5,-156 1551.5,-156 1551.5,-168 1551.5,-168 1551.5,-174 1545.5,-180 1539.5,-180"/>
<text text-anchor="middle" x="1515" y="-159.5" font-family="sans" font-size="10.00">anvi_merge</text>
</g>
<!-- 9&#45;&gt;43 -->
<g id="edge96" class="edge"><title>9&#45;&gt;43</title>
<path fill="none" stroke="grey" stroke-width="2" d="M1489.01,-431.991C1473.91,-392.636 1441.8,-292.796 1470,-216 1473.78,-205.696 1480.56,-196.025 1487.72,-187.837"/>
<polygon fill="grey" stroke="grey" stroke-width="2" points="1490.34,-190.16 1494.62,-180.469 1485.23,-185.375 1490.34,-190.16"/>
</g>
<!-- 10 -->
<g id="node11" class="node"><title>10</title>
<path fill="none" stroke="#56d86b" stroke-width="2" d="M1641,-324C1641,-324 1555,-324 1555,-324 1549,-324 1543,-318 1543,-312 1543,-312 1543,-300 1543,-300 1543,-294 1549,-288 1555,-288 1555,-288 1641,-288 1641,-288 1647,-288 1653,-294 1653,-300 1653,-300 1653,-312 1653,-312 1653,-318 1647,-324 1641,-324"/>
<text text-anchor="middle" x="1598" y="-303.5" font-family="sans" font-size="10.00">anvi_run_centrifuge</text>
</g>
<!-- 10&#45;&gt;43 -->
<g id="edge100" class="edge"><title>10&#45;&gt;43</title>
<path fill="none" stroke="grey" stroke-width="2" d="M1592.14,-287.9C1585.45,-269.448 1573.53,-239.544 1559,-216 1553,-206.283 1545.36,-196.441 1538.13,-187.919"/>
<polygon fill="grey" stroke="grey" stroke-width="2" points="1540.61,-185.434 1531.39,-180.201 1535.33,-190.037 1540.61,-185.434"/>
</g>
<!-- 48 -->
<g id="node49" class="node"><title>48</title>
<path fill="none" stroke="#568ad8" stroke-width="2" d="M1538.5,-252C1538.5,-252 1491.5,-252 1491.5,-252 1485.5,-252 1479.5,-246 1479.5,-240 1479.5,-240 1479.5,-228 1479.5,-228 1479.5,-222 1485.5,-216 1491.5,-216 1491.5,-216 1538.5,-216 1538.5,-216 1544.5,-216 1550.5,-222 1550.5,-228 1550.5,-228 1550.5,-240 1550.5,-240 1550.5,-246 1544.5,-252 1538.5,-252"/>
<text text-anchor="middle" x="1515" y="-231.5" font-family="sans" font-size="10.00">anvi_profile</text>
</g>
<!-- 10&#45;&gt;48 -->
<g id="edge110" class="edge"><title>10&#45;&gt;48</title>
<path fill="none" stroke="grey" stroke-width="2" d="M1577.48,-287.697C1567.13,-278.965 1554.41,-268.24 1543.16,-258.75"/>
<polygon fill="grey" stroke="grey" stroke-width="2" points="1545.18,-255.876 1535.28,-252.104 1540.67,-261.227 1545.18,-255.876"/>
</g>
<!-- 66 -->
<g id="node67" class="node"><title>66</title>
<path fill="none" stroke="#568ad8" stroke-width="2" d="M1689.5,-252C1689.5,-252 1642.5,-252 1642.5,-252 1636.5,-252 1630.5,-246 1630.5,-240 1630.5,-240 1630.5,-228 1630.5,-228 1630.5,-222 1636.5,-216 1642.5,-216 1642.5,-216 1689.5,-216 1689.5,-216 1695.5,-216 1701.5,-222 1701.5,-228 1701.5,-228 1701.5,-240 1701.5,-240 1701.5,-246 1695.5,-252 1689.5,-252"/>
<text text-anchor="middle" x="1666" y="-231.5" font-family="sans" font-size="10.00">anvi_profile</text>
</g>
<!-- 10&#45;&gt;66 -->
<g id="edge136" class="edge"><title>10&#45;&gt;66</title>
<path fill="none" stroke="grey" stroke-width="2" d="M1614.81,-287.697C1623.13,-279.135 1633.31,-268.656 1642.39,-259.304"/>
<polygon fill="grey" stroke="grey" stroke-width="2" points="1644.93,-261.716 1649.38,-252.104 1639.91,-256.838 1644.93,-261.716"/>
</g>
<!-- 11 -->
<g id="node12" class="node"><title>11</title>
<path fill="none" stroke="#d87d56" stroke-width="2" d="M1488.5,-684C1488.5,-684 1443.5,-684 1443.5,-684 1437.5,-684 1431.5,-678 1431.5,-672 1431.5,-672 1431.5,-660 1431.5,-660 1431.5,-654 1437.5,-648 1443.5,-648 1443.5,-648 1488.5,-648 1488.5,-648 1494.5,-648 1500.5,-654 1500.5,-660 1500.5,-660 1500.5,-672 1500.5,-672 1500.5,-678 1494.5,-684 1488.5,-684"/>
<text text-anchor="middle" x="1466" y="-663.5" font-family="sans" font-size="10.00">tax_kraken</text>
</g>
<!-- 37 -->
<g id="node38" class="node"><title>37</title>
<path fill="none" stroke="#d8a456" stroke-width="2" d="M1410.5,-612C1410.5,-612 1279.5,-612 1279.5,-612 1273.5,-612 1267.5,-606 1267.5,-600 1267.5,-600 1267.5,-588 1267.5,-588 1267.5,-582 1273.5,-576 1279.5,-576 1279.5,-576 1410.5,-576 1410.5,-576 1416.5,-576 1422.5,-582 1422.5,-588 1422.5,-588 1422.5,-600 1422.5,-600 1422.5,-606 1416.5,-612 1410.5,-612"/>
<text text-anchor="middle" x="1345" y="-591.5" font-family="sans" font-size="10.00">tax_kraken_combine_reports</text>
</g>
<!-- 11&#45;&gt;37 -->
<g id="edge88" class="edge"><title>11&#45;&gt;37</title>
<path fill="none" stroke="grey" stroke-width="2" d="M1436.4,-647.876C1420.43,-638.639 1400.54,-627.131 1383.39,-617.212"/>
<polygon fill="grey" stroke="grey" stroke-width="2" points="1385.12,-614.168 1374.71,-612.19 1381.62,-620.227 1385.12,-614.168"/>
</g>
<!-- 12 -->
<g id="node13" class="node"><title>12</title>
<path fill="none" stroke="#568ad8" stroke-width="2" d="M537.5,-252C537.5,-252 490.5,-252 490.5,-252 484.5,-252 478.5,-246 478.5,-240 478.5,-240 478.5,-228 478.5,-228 478.5,-222 484.5,-216 490.5,-216 490.5,-216 537.5,-216 537.5,-216 543.5,-216 549.5,-222 549.5,-228 549.5,-228 549.5,-240 549.5,-240 549.5,-246 543.5,-252 537.5,-252"/>
<text text-anchor="middle" x="514" y="-231.5" font-family="sans" font-size="10.00">anvi_profile</text>
</g>
<!-- 32 -->
<g id="node33" class="node"><title>32</title>
<path fill="none" stroke="#d8d356" stroke-width="2" d="M474.5,-180C474.5,-180 425.5,-180 425.5,-180 419.5,-180 413.5,-174 413.5,-168 413.5,-168 413.5,-156 413.5,-156 413.5,-150 419.5,-144 425.5,-144 425.5,-144 474.5,-144 474.5,-144 480.5,-144 486.5,-150 486.5,-156 486.5,-156 486.5,-168 486.5,-168 486.5,-174 480.5,-180 474.5,-180"/>
<text text-anchor="middle" x="450" y="-159.5" font-family="sans" font-size="10.00">anvi_merge</text>
</g>
<!-- 12&#45;&gt;32 -->
<g id="edge78" class="edge"><title>12&#45;&gt;32</title>
<path fill="none" stroke="grey" stroke-width="2" d="M498.18,-215.697C490.43,-207.22 480.961,-196.864 472.476,-187.583"/>
<polygon fill="grey" stroke="grey" stroke-width="2" points="474.969,-185.123 465.638,-180.104 469.803,-189.846 474.969,-185.123"/>
</g>
<!-- 13&#45;&gt;12 -->
<g id="edge18" class="edge"><title>13&#45;&gt;12</title>
<path fill="none" stroke="grey" stroke-width="2" d="M771.316,-431.884C770.734,-411.997 766.7,-379.435 748,-360 709.394,-319.875 677.462,-349.572 628,-324 594.429,-306.643 560.926,-278.93 539.016,-259.039"/>
<polygon fill="grey" stroke="grey" stroke-width="2" points="541.214,-256.305 531.49,-252.098 536.468,-261.45 541.214,-256.305"/>
</g>
<!-- 33 -->
<g id="node34" class="node"><title>33</title>
<path fill="none" stroke="#56d863" stroke-width="2" d="M727.5,-396C727.5,-396 642.5,-396 642.5,-396 636.5,-396 630.5,-390 630.5,-384 630.5,-384 630.5,-372 630.5,-372 630.5,-366 636.5,-360 642.5,-360 642.5,-360 727.5,-360 727.5,-360 733.5,-360 739.5,-366 739.5,-372 739.5,-372 739.5,-384 739.5,-384 739.5,-390 733.5,-396 727.5,-396"/>
<text text-anchor="middle" x="685" y="-375.5" font-family="sans" font-size="10.00">bin_make_cov_files</text>
</g>
<!-- 13&#45;&gt;33 -->
<g id="edge81" class="edge"><title>13&#45;&gt;33</title>
<path fill="none" stroke="grey" stroke-width="2" d="M749.742,-431.697C738.911,-422.881 725.582,-412.032 713.84,-402.474"/>
<polygon fill="grey" stroke="grey" stroke-width="2" points="715.979,-399.703 706.014,-396.104 711.56,-405.132 715.979,-399.703"/>
</g>
<!-- 14 -->
<g id="node15" class="node"><title>14</title>
<path fill="none" stroke="#d89556" stroke-width="2" d="M680,-828C680,-828 606,-828 606,-828 600,-828 594,-822 594,-816 594,-816 594,-804 594,-804 594,-798 600,-792 606,-792 606,-792 680,-792 680,-792 686,-792 692,-798 692,-804 692,-804 692,-816 692,-816 692,-822 686,-828 680,-828"/>
<text text-anchor="middle" x="643" y="-813" font-family="sans" font-size="10.00">qc_atropos</text>
<text text-anchor="middle" x="643" y="-802" font-family="sans" font-size="10.00">trimmer: atropos</text>
</g>
<!-- 14&#45;&gt;23 -->
<g id="edge47" class="edge"><title>14&#45;&gt;23</title>
<path fill="none" stroke="grey" stroke-width="2" d="M593.878,-808.619C443.567,-806.143 0,-788.538 0,-667 0,-667 0,-667 0,-161 0,-114.733 14.3179,-95.7902 54,-72 134.907,-23.4948 816.501,-19.2987 984.628,-19.0048"/>
<polygon fill="grey" stroke="grey" stroke-width="2" points="984.731,-22.5048 994.726,-18.9909 984.721,-15.5048 984.731,-22.5048"/>
</g>
<!-- 64 -->
<g id="node65" class="node"><title>64</title>
<path fill="none" stroke="#d86656" stroke-width="2" d="M668,-756C668,-756 638,-756 638,-756 632,-756 626,-750 626,-744 626,-744 626,-732 626,-732 626,-726 632,-720 638,-720 638,-720 668,-720 668,-720 674,-720 680,-726 680,-732 680,-732 680,-744 680,-744 680,-750 674,-756 668,-756"/>
<text text-anchor="middle" x="653" y="-735.5" font-family="sans" font-size="10.00">qc_filter</text>
</g>
<!-- 14&#45;&gt;64 -->
<g id="edge131" class="edge"><title>14&#45;&gt;64</title>
<path fill="none" stroke="grey" stroke-width="2" d="M645.472,-791.697C646.574,-783.983 647.898,-774.712 649.127,-766.112"/>
<polygon fill="grey" stroke="grey" stroke-width="2" points="652.607,-766.499 650.557,-756.104 645.677,-765.509 652.607,-766.499"/>
</g>
<!-- 15&#45;&gt;23 -->
<g id="edge48" class="edge"><title>15&#45;&gt;23</title>
<path fill="none" stroke="grey" stroke-width="2" d="M2017.21,-74.4452C2012.42,-73.5105 2007.64,-72.6753 2003,-72 1638.14,-18.9097 1189.97,-17.6891 1059.35,-18.5943"/>
<polygon fill="grey" stroke="grey" stroke-width="2" points="1059.07,-15.0963 1049.1,-18.6746 1059.12,-22.0961 1059.07,-15.0963"/>
</g>
<!-- 16 -->
<g id="node17" class="node"><title>16</title>
<path fill="none" stroke="#d89556" stroke-width="2" d="M1091,-828C1091,-828 1017,-828 1017,-828 1011,-828 1005,-822 1005,-816 1005,-816 1005,-804 1005,-804 1005,-798 1011,-792 1017,-792 1017,-792 1091,-792 1091,-792 1097,-792 1103,-798 1103,-804 1103,-804 1103,-816 1103,-816 1103,-822 1097,-828 1091,-828"/>
<text text-anchor="middle" x="1054" y="-813" font-family="sans" font-size="10.00">qc_atropos</text>
<text text-anchor="middle" x="1054" y="-802" font-family="sans" font-size="10.00">trimmer: atropos</text>
</g>
<!-- 16&#45;&gt;2 -->
<g id="edge4" class="edge"><title>16&#45;&gt;2</title>
<path fill="none" stroke="grey" stroke-width="2" d="M1103.44,-802.161C1204.62,-788.163 1433.33,-756.524 1522.97,-744.123"/>
<polygon fill="grey" stroke="grey" stroke-width="2" points="1523.52,-747.58 1532.94,-742.743 1522.56,-740.646 1523.52,-747.58"/>
</g>
<!-- 16&#45;&gt;23 -->
<g id="edge49" class="edge"><title>16&#45;&gt;23</title>
<path fill="none" stroke="grey" stroke-width="2" d="M1052.68,-791.927C1049.38,-747.592 1041,-625.142 1041,-523 1041,-523 1041,-523 1041,-161 1041,-120.86 1033.45,-74.897 1027.87,-46.4045"/>
<polygon fill="grey" stroke="grey" stroke-width="2" points="1031.26,-45.4976 1025.84,-36.3884 1024.39,-46.8834 1031.26,-45.4976"/>
</g>
<!-- 17 -->
<g id="node18" class="node"><title>17</title>
<path fill="none" stroke="#56d8a9" stroke-width="2" d="M827.5,-828C827.5,-828 722.5,-828 722.5,-828 716.5,-828 710.5,-822 710.5,-816 710.5,-816 710.5,-804 710.5,-804 710.5,-798 716.5,-792 722.5,-792 722.5,-792 827.5,-792 827.5,-792 833.5,-792 839.5,-798 839.5,-804 839.5,-804 839.5,-816 839.5,-816 839.5,-822 833.5,-828 827.5,-828"/>
<text text-anchor="middle" x="775" y="-807.5" font-family="sans" font-size="10.00">raw_per_sample_fastqc</text>
</g>
<!-- 58 -->
<g id="node59" class="node"><title>58</title>
<path fill="none" stroke="#56d89a" stroke-width="2" d="M872.5,-756C872.5,-756 761.5,-756 761.5,-756 755.5,-756 749.5,-750 749.5,-744 749.5,-744 749.5,-732 749.5,-732 749.5,-726 755.5,-720 761.5,-720 761.5,-720 872.5,-720 872.5,-720 878.5,-720 884.5,-726 884.5,-732 884.5,-732 884.5,-744 884.5,-744 884.5,-750 878.5,-756 872.5,-756"/>
<text text-anchor="middle" x="817" y="-735.5" font-family="sans" font-size="10.00">raw_per_sample_multiqc</text>
</g>
<!-- 17&#45;&gt;58 -->
<g id="edge124" class="edge"><title>17&#45;&gt;58</title>
<path fill="none" stroke="grey" stroke-width="2" d="M785.382,-791.697C790.265,-783.559 796.187,-773.689 801.579,-764.701"/>
<polygon fill="grey" stroke="grey" stroke-width="2" points="804.594,-766.48 806.737,-756.104 798.591,-762.879 804.594,-766.48"/>
</g>
<!-- 18 -->
<g id="node19" class="node"><title>18</title>
<path fill="none" stroke="#568ad8" stroke-width="2" d="M409.5,-252C409.5,-252 362.5,-252 362.5,-252 356.5,-252 350.5,-246 350.5,-240 350.5,-240 350.5,-228 350.5,-228 350.5,-222 356.5,-216 362.5,-216 362.5,-216 409.5,-216 409.5,-216 415.5,-216 421.5,-222 421.5,-228 421.5,-228 421.5,-240 421.5,-240 421.5,-246 415.5,-252 409.5,-252"/>
<text text-anchor="middle" x="386" y="-231.5" font-family="sans" font-size="10.00">anvi_profile</text>
</g>
<!-- 18&#45;&gt;32 -->
<g id="edge75" class="edge"><title>18&#45;&gt;32</title>
<path fill="none" stroke="grey" stroke-width="2" d="M401.82,-215.697C409.57,-207.22 419.039,-196.864 427.524,-187.583"/>
<polygon fill="grey" stroke="grey" stroke-width="2" points="430.197,-189.846 434.362,-180.104 425.031,-185.123 430.197,-189.846"/>
</g>
<!-- 19&#45;&gt;23 -->
<g id="edge51" class="edge"><title>19&#45;&gt;23</title>
<path fill="none" stroke="grey" stroke-width="2" d="M1125.69,-575.792C1118.03,-565.854 1108.98,-552.814 1103,-540 1085.68,-502.872 1079,-491.969 1079,-451 1079,-451 1079,-451 1079,-161 1079,-120.031 1071.34,-109.571 1055,-72 1051,-62.8022 1045.58,-53.3292 1040.29,-44.9817"/>
<polygon fill="grey" stroke="grey" stroke-width="2" points="1043.09,-42.8677 1034.67,-36.4317 1037.24,-46.7112 1043.09,-42.8677"/>
</g>
<!-- 20 -->
<g id="node21" class="node"><title>20</title>
<path fill="none" stroke="#56d87b" stroke-width="2" d="M1984,-612C1984,-612 1830,-612 1830,-612 1824,-612 1818,-606 1818,-600 1818,-600 1818,-588 1818,-588 1818,-582 1824,-576 1830,-576 1830,-576 1984,-576 1984,-576 1990,-576 1996,-582 1996,-588 1996,-588 1996,-600 1996,-600 1996,-606 1990,-612 1984,-612"/>
<text text-anchor="middle" x="1907" y="-597" font-family="sans" font-size="10.00">assemble_simplify_fasta_headers</text>
<text text-anchor="middle" x="1907" y="-586" font-family="sans" font-size="10.00">assembler: metaspades</text>
</g>
<!-- 20&#45;&gt;8 -->
<g id="edge11" class="edge"><title>20&#45;&gt;8</title>
<path fill="none" stroke="grey" stroke-width="2" d="M1936.09,-575.849C1948.84,-566.808 1962.75,-554.561 1971,-540 1986.95,-511.833 1979.55,-500.278 1982,-468 1983.21,-452.046 1988.58,-446.586 1982,-432 1976.82,-420.518 1967.79,-410.523 1958.28,-402.402"/>
<polygon fill="grey" stroke="grey" stroke-width="2" points="1960.27,-399.508 1950.26,-396.029 1955.91,-404.989 1960.27,-399.508"/>
</g>
<!-- 24 -->
<g id="node25" class="node"><title>24</title>
<path fill="none" stroke="#56d88a" stroke-width="2" d="M1520.5,-540C1520.5,-540 1395.5,-540 1395.5,-540 1389.5,-540 1383.5,-534 1383.5,-528 1383.5,-528 1383.5,-516 1383.5,-516 1383.5,-510 1389.5,-504 1395.5,-504 1395.5,-504 1520.5,-504 1520.5,-504 1526.5,-504 1532.5,-510 1532.5,-516 1532.5,-516 1532.5,-528 1532.5,-528 1532.5,-534 1526.5,-540 1520.5,-540"/>
<text text-anchor="middle" x="1458" y="-525" font-family="sans" font-size="10.00">anvi_gen_contigs_database</text>
<text text-anchor="middle" x="1458" y="-514" font-family="sans" font-size="10.00">bin_sample: Vf</text>
</g>
<!-- 20&#45;&gt;24 -->
<g id="edge65" class="edge"><title>20&#45;&gt;24</title>
<path fill="none" stroke="grey" stroke-width="2" d="M1817.76,-579.087C1737.84,-566.628 1621.48,-548.486 1542.92,-536.238"/>
<polygon fill="grey" stroke="grey" stroke-width="2" points="1542.99,-532.708 1532.57,-534.625 1541.91,-539.624 1542.99,-532.708"/>
</g>
<!-- 20&#45;&gt;35 -->
<g id="edge83" class="edge"><title>20&#45;&gt;35</title>
<path fill="none" stroke="grey" stroke-width="2" d="M1949.4,-575.999C1965.05,-567.542 1981.32,-555.706 1991,-540 2033,-471.862 2012.21,-435.278 1985,-360 1981.71,-350.897 1976.94,-341.527 1972.16,-333.245"/>
<polygon fill="grey" stroke="grey" stroke-width="2" points="1975.01,-331.187 1966.85,-324.428 1969.01,-334.8 1975.01,-331.187"/>
</g>
<!-- 57 -->
<g id="node58" class="node"><title>57</title>
<path fill="none" stroke="#56d85b" stroke-width="2" d="M1950.5,-540C1950.5,-540 1863.5,-540 1863.5,-540 1857.5,-540 1851.5,-534 1851.5,-528 1851.5,-528 1851.5,-516 1851.5,-516 1851.5,-510 1857.5,-504 1863.5,-504 1863.5,-504 1950.5,-504 1950.5,-504 1956.5,-504 1962.5,-510 1962.5,-516 1962.5,-516 1962.5,-528 1962.5,-528 1962.5,-534 1956.5,-540 1950.5,-540"/>
<text text-anchor="middle" x="1907" y="-525" font-family="sans" font-size="10.00">map_bowtie2_index</text>
<text text-anchor="middle" x="1907" y="-514" font-family="sans" font-size="10.00">bin_sample: Vf</text>
</g>
<!-- 20&#45;&gt;57 -->
<g id="edge123" class="edge"><title>20&#45;&gt;57</title>
<path fill="none" stroke="grey" stroke-width="2" d="M1907,-575.697C1907,-567.983 1907,-558.712 1907,-550.112"/>
<polygon fill="grey" stroke="grey" stroke-width="2" points="1910.5,-550.104 1907,-540.104 1903.5,-550.104 1910.5,-550.104"/>
</g>
<!-- 21 -->
<g id="node22" class="node"><title>21</title>
<path fill="none" stroke="#56a9d8" stroke-width="2" d="M1418.5,-108C1418.5,-108 1347.5,-108 1347.5,-108 1341.5,-108 1335.5,-102 1335.5,-96 1335.5,-96 1335.5,-84 1335.5,-84 1335.5,-78 1341.5,-72 1347.5,-72 1347.5,-72 1418.5,-72 1418.5,-72 1424.5,-72 1430.5,-78 1430.5,-84 1430.5,-84 1430.5,-96 1430.5,-96 1430.5,-102 1424.5,-108 1418.5,-108"/>
<text text-anchor="middle" x="1383" y="-87.5" font-family="sans" font-size="10.00">anvi_summarize</text>
</g>
<!-- 21&#45;&gt;23 -->
<g id="edge53" class="edge"><title>21&#45;&gt;23</title>
<path fill="none" stroke="grey" stroke-width="2" d="M1335.38,-75.4678C1330.54,-74.2344 1325.68,-73.0545 1321,-72 1227.55,-50.9541 1116.14,-33.085 1059.33,-24.4845"/>
<polygon fill="grey" stroke="grey" stroke-width="2" points="1059.79,-21.0136 1049.38,-22.9878 1058.75,-27.9358 1059.79,-21.0136"/>
</g>
<!-- 22 -->
<g id="node23" class="node"><title>22</title>
<path fill="none" stroke="#56d892" stroke-width="2" d="M1626,-108C1626,-108 1550,-108 1550,-108 1544,-108 1538,-102 1538,-96 1538,-96 1538,-84 1538,-84 1538,-78 1544,-72 1550,-72 1550,-72 1626,-72 1626,-72 1632,-72 1638,-78 1638,-84 1638,-84 1638,-96 1638,-96 1638,-102 1632,-108 1626,-108"/>
<text text-anchor="middle" x="1588" y="-87.5" font-family="sans" font-size="10.00">anvi_add_maxbin</text>
</g>
<!-- 22&#45;&gt;23 -->
<g id="edge55" class="edge"><title>22&#45;&gt;23</title>
<path fill="none" stroke="grey" stroke-width="2" d="M1537.77,-82.788C1425.79,-68.9382 1157.78,-35.7921 1059.2,-23.601"/>
<polygon fill="grey" stroke="grey" stroke-width="2" points="1059.47,-20.1077 1049.12,-22.3538 1058.61,-27.0548 1059.47,-20.1077"/>
</g>
<!-- 24&#45;&gt;9 -->
<g id="edge14" class="edge"><title>24&#45;&gt;9</title>
<path fill="none" stroke="grey" stroke-width="2" d="M1467.39,-503.697C1471.76,-495.644 1477.06,-485.894 1481.9,-476.982"/>
<polygon fill="grey" stroke="grey" stroke-width="2" points="1485.02,-478.563 1486.71,-468.104 1478.87,-475.223 1485.02,-478.563"/>
</g>
<!-- 24&#45;&gt;10 -->
<g id="edge16" class="edge"><title>24&#45;&gt;10</title>
<path fill="none" stroke="grey" stroke-width="2" d="M1507.01,-503.903C1527.78,-495.178 1551.42,-483.168 1570,-468 1600.99,-442.704 1611.35,-433.947 1624,-396 1630.96,-375.126 1623.07,-351.17 1614.21,-333.374"/>
<polygon fill="grey" stroke="grey" stroke-width="2" points="1617.09,-331.336 1609.28,-324.18 1610.92,-334.646 1617.09,-331.336"/>
</g>
<!-- 24&#45;&gt;21 -->
<g id="edge34" class="edge"><title>24&#45;&gt;21</title>
<path fill="none" stroke="grey" stroke-width="2" d="M1431.22,-503.907C1397.8,-480.247 1345,-434.135 1345,-379 1345,-379 1345,-379 1345,-233 1345,-191.633 1360.23,-145.722 1371.41,-117.605"/>
<polygon fill="grey" stroke="grey" stroke-width="2" points="1374.76,-118.673 1375.31,-108.093 1368.28,-116.019 1374.76,-118.673"/>
</g>
<!-- 24&#45;&gt;22 -->
<g id="edge37" class="edge"><title>24&#45;&gt;22</title>
<path fill="none" stroke="grey" stroke-width="2" d="M1532.9,-504.334C1572.65,-494.31 1616.43,-481.007 1632,-468 1659.61,-444.936 1655.79,-429.464 1669,-396 1699.13,-319.684 1740.94,-291.993 1710,-216 1692.41,-172.799 1651.92,-136.385 1622.39,-114.199"/>
<polygon fill="grey" stroke="grey" stroke-width="2" points="1624.13,-111.138 1614,-108.052 1620,-116.785 1624.13,-111.138"/>
</g>
<!-- 24&#45;&gt;40 -->
<g id="edge92" class="edge"><title>24&#45;&gt;40</title>
<path fill="none" stroke="grey" stroke-width="2" d="M1509.11,-503.843C1525.43,-495.67 1541.66,-484.068 1551,-468 1561.82,-449.375 1560.86,-424.641 1557.73,-405.975"/>
<polygon fill="grey" stroke="grey" stroke-width="2" points="1561.14,-405.178 1555.78,-396.043 1554.28,-406.531 1561.14,-405.178"/>
</g>
<!-- 24&#45;&gt;43 -->
<g id="edge97" class="edge"><title>24&#45;&gt;43</title>
<path fill="none" stroke="grey" stroke-width="2" d="M1441.73,-503.733C1419.67,-478.446 1383,-428.905 1383,-379 1383,-379 1383,-379 1383,-305 1383,-251.403 1434.07,-209.543 1472.68,-185.555"/>
<polygon fill="grey" stroke="grey" stroke-width="2" points="1474.93,-188.287 1481.69,-180.133 1471.32,-182.289 1474.93,-188.287"/>
</g>
<!-- 24&#45;&gt;48 -->
<g id="edge109" class="edge"><title>24&#45;&gt;48</title>
<path fill="none" stroke="grey" stroke-width="2" d="M1450.52,-503.704C1446.53,-493.522 1442.03,-480.272 1440,-468 1437.39,-452.214 1437.11,-447.736 1440,-432 1451.76,-368.068 1483.31,-298.012 1501.52,-261.11"/>
<polygon fill="grey" stroke="grey" stroke-width="2" points="1504.72,-262.548 1506.06,-252.039 1498.46,-259.415 1504.72,-262.548"/>
</g>
<!-- 24&#45;&gt;66 -->
<g id="edge134" class="edge"><title>24&#45;&gt;66</title>
<path fill="none" stroke="grey" stroke-width="2" d="M1532.65,-505.342C1557.18,-497.346 1583.21,-485.473 1603,-468 1662.87,-415.144 1668.51,-311.849 1667.49,-262.511"/>
<polygon fill="grey" stroke="grey" stroke-width="2" points="1670.98,-262.171 1667.16,-252.288 1663.98,-262.395 1670.98,-262.171"/>
</g>
<!-- 25 -->
<g id="node26" class="node"><title>25</title>
<path fill="none" stroke="#569ad8" stroke-width="2" d="M1028,-900C1028,-900 948,-900 948,-900 942,-900 936,-894 936,-888 936,-888 936,-876 936,-876 936,-870 942,-864 948,-864 948,-864 1028,-864 1028,-864 1034,-864 1040,-870 1040,-876 1040,-876 1040,-888 1040,-888 1040,-894 1034,-900 1028,-900"/>
<text text-anchor="middle" x="988" y="-885" font-family="sans" font-size="10.00">raw_combine_files</text>
<text text-anchor="middle" x="988" y="-874" font-family="sans" font-size="10.00">sample: Vf</text>
</g>
<!-- 25&#45;&gt;16 -->
<g id="edge26" class="edge"><title>25&#45;&gt;16</title>
<path fill="none" stroke="grey" stroke-width="2" d="M1004.31,-863.697C1012.31,-855.22 1022.07,-844.864 1030.82,-835.583"/>
<polygon fill="grey" stroke="grey" stroke-width="2" points="1033.56,-837.781 1037.87,-828.104 1028.47,-832.979 1033.56,-837.781"/>
</g>
<!-- 46 -->
<g id="node47" class="node"><title>46</title>
<path fill="none" stroke="#56d8a9" stroke-width="2" d="M974.5,-828C974.5,-828 869.5,-828 869.5,-828 863.5,-828 857.5,-822 857.5,-816 857.5,-816 857.5,-804 857.5,-804 857.5,-798 863.5,-792 869.5,-792 869.5,-792 974.5,-792 974.5,-792 980.5,-792 986.5,-798 986.5,-804 986.5,-804 986.5,-816 986.5,-816 986.5,-822 980.5,-828 974.5,-828"/>
<text text-anchor="middle" x="922" y="-807.5" font-family="sans" font-size="10.00">raw_per_sample_fastqc</text>
</g>
<!-- 25&#45;&gt;46 -->
<g id="edge105" class="edge"><title>25&#45;&gt;46</title>
<path fill="none" stroke="grey" stroke-width="2" d="M971.685,-863.697C963.693,-855.22 953.928,-844.864 945.178,-835.583"/>
<polygon fill="grey" stroke="grey" stroke-width="2" points="947.534,-832.979 938.127,-828.104 942.441,-837.781 947.534,-832.979"/>
</g>
<!-- 26&#45;&gt;0 -->
<g id="edge1" class="edge"><title>26&#45;&gt;0</title>
<path fill="none" stroke="grey" stroke-width="2" d="M1728.84,-647.697C1725.09,-639.728 1720.55,-630.1 1716.38,-621.264"/>
<polygon fill="grey" stroke="grey" stroke-width="2" points="1719.49,-619.657 1712.06,-612.104 1713.16,-622.642 1719.49,-619.657"/>
</g>
<!-- 26&#45;&gt;23 -->
<g id="edge58" class="edge"><title>26&#45;&gt;23</title>
<path fill="none" stroke="grey" stroke-width="2" d="M1682.84,-651.33C1678.16,-650.189 1673.5,-649.065 1669,-648 1597.65,-631.107 1573.75,-644.453 1508,-612 1485.65,-600.968 1487.72,-586.259 1465,-576 1368.3,-532.329 1312.24,-605.796 1229,-540 1195.53,-513.54 1193,-493.669 1193,-451 1193,-451 1193,-451 1193,-161 1193,-120.031 1196.75,-102.141 1169,-72 1140.57,-41.1129 1092.79,-28.201 1059.45,-22.8191"/>
<polygon fill="grey" stroke="grey" stroke-width="2" points="1059.57,-19.3005 1049.17,-21.3231 1058.57,-26.2274 1059.57,-19.3005"/>
</g>
<!-- 53 -->
<g id="node54" class="node"><title>53</title>
<path fill="none" stroke="#56d8b1" stroke-width="2" d="M1626.5,-612C1626.5,-612 1529.5,-612 1529.5,-612 1523.5,-612 1517.5,-606 1517.5,-600 1517.5,-600 1517.5,-588 1517.5,-588 1517.5,-582 1523.5,-576 1529.5,-576 1529.5,-576 1626.5,-576 1626.5,-576 1632.5,-576 1638.5,-582 1638.5,-588 1638.5,-588 1638.5,-600 1638.5,-600 1638.5,-606 1632.5,-612 1626.5,-612"/>
<text text-anchor="middle" x="1578" y="-591.5" font-family="sans" font-size="10.00">assemble_metaquast</text>
</g>
<!-- 26&#45;&gt;53 -->
<g id="edge116" class="edge"><title>26&#45;&gt;53</title>
<path fill="none" stroke="grey" stroke-width="2" d="M1698.1,-647.876C1676.37,-638.307 1649.1,-626.3 1626.04,-616.148"/>
<polygon fill="grey" stroke="grey" stroke-width="2" points="1627.33,-612.894 1616.77,-612.068 1624.51,-619.301 1627.33,-612.894"/>
</g>
<!-- 27&#45;&gt;0 -->
<g id="edge2" class="edge"><title>27&#45;&gt;0</title>
<path fill="none" stroke="grey" stroke-width="2" d="M1831.66,-647.876C1808.45,-638.264 1779.31,-626.193 1754.73,-616.013"/>
<polygon fill="grey" stroke="grey" stroke-width="2" points="1755.79,-612.662 1745.21,-612.068 1753.11,-619.129 1755.79,-612.662"/>
</g>
<!-- 27&#45;&gt;20 -->
<g id="edge33" class="edge"><title>27&#45;&gt;20</title>
<path fill="none" stroke="grey" stroke-width="2" d="M1881.4,-647.697C1885.27,-639.728 1889.95,-630.1 1894.24,-621.264"/>
<polygon fill="grey" stroke="grey" stroke-width="2" points="1897.47,-622.629 1898.69,-612.104 1891.17,-619.57 1897.47,-622.629"/>
</g>
<!-- 27&#45;&gt;23 -->
<g id="edge59" class="edge"><title>27&#45;&gt;23</title>
<path fill="none" stroke="grey" stroke-width="2" d="M1852.29,-647.639C1822.64,-622.947 1770.49,-580.192 1760,-576 1680,-544.04 1443.37,-591.083 1374,-540 1311.59,-494.044 1307,-456.504 1307,-379 1307,-379 1307,-379 1307,-161 1307,-116.473 1296.28,-99.1588 1261,-72 1229.78,-47.973 1118.46,-30.9528 1059.41,-23.3901"/>
<polygon fill="grey" stroke="grey" stroke-width="2" points="1059.73,-19.9023 1049.37,-22.1307 1058.85,-26.8479 1059.73,-19.9023"/>
</g>
<!-- 27&#45;&gt;53 -->
<g id="edge117" class="edge"><title>27&#45;&gt;53</title>
<path fill="none" stroke="grey" stroke-width="2" d="M1808.87,-650.044C1757.66,-638.089 1689.03,-622.029 1648.3,-612.296"/>
<polygon fill="grey" stroke="grey" stroke-width="2" points="1649.11,-608.892 1638.57,-609.964 1647.48,-615.7 1649.11,-608.892"/>
</g>
<!-- 28 -->
<g id="node29" class="node"><title>28</title>
<path fill="none" stroke="#56d86b" stroke-width="2" d="M401,-324C401,-324 315,-324 315,-324 309,-324 303,-318 303,-312 303,-312 303,-300 303,-300 303,-294 309,-288 315,-288 315,-288 401,-288 401,-288 407,-288 413,-294 413,-300 413,-300 413,-312 413,-312 413,-318 407,-324 401,-324"/>
<text text-anchor="middle" x="358" y="-303.5" font-family="sans" font-size="10.00">anvi_run_centrifuge</text>
</g>
<!-- 28&#45;&gt;12 -->
<g id="edge19" class="edge"><title>28&#45;&gt;12</title>
<path fill="none" stroke="grey" stroke-width="2" d="M396.162,-287.876C418.202,-277.986 446.042,-265.494 469.127,-255.135"/>
<polygon fill="grey" stroke="grey" stroke-width="2" points="470.68,-258.275 478.371,-250.987 467.814,-251.888 470.68,-258.275"/>
</g>
<!-- 28&#45;&gt;18 -->
<g id="edge29" class="edge"><title>28&#45;&gt;18</title>
<path fill="none" stroke="grey" stroke-width="2" d="M364.921,-287.697C368.075,-279.813 371.878,-270.304 375.381,-261.546"/>
<polygon fill="grey" stroke="grey" stroke-width="2" points="378.694,-262.689 379.158,-252.104 372.195,-260.089 378.694,-262.689"/>
</g>
<!-- 28&#45;&gt;32 -->
<g id="edge76" class="edge"><title>28&#45;&gt;32</title>
<path fill="none" stroke="grey" stroke-width="2" d="M348.038,-287.942C338.409,-268.987 327.149,-238.137 341,-216 354.77,-193.992 380.584,-180.887 403.635,-173.216"/>
<polygon fill="grey" stroke="grey" stroke-width="2" points="404.768,-176.529 413.302,-170.25 402.715,-169.837 404.768,-176.529"/>
</g>
<!-- 29 -->
<g id="node30" class="node"><title>29</title>
<path fill="none" stroke="#56d873" stroke-width="2" d="M223,-684C223,-684 139,-684 139,-684 133,-684 127,-678 127,-672 127,-672 127,-660 127,-660 127,-654 133,-648 139,-648 139,-648 223,-648 223,-648 229,-648 235,-654 235,-660 235,-660 235,-672 235,-672 235,-678 229,-684 223,-684"/>
<text text-anchor="middle" x="181" y="-663.5" font-family="sans" font-size="10.00">assemble_megahit</text>
</g>
<!-- 29&#45;&gt;23 -->
<g id="edge60" class="edge"><title>29&#45;&gt;23</title>
<path fill="none" stroke="grey" stroke-width="2" d="M126.705,-652.439C103.437,-644.467 77.8032,-631.793 61,-612 34.559,-580.855 38,-563.855 38,-523 38,-523 38,-523 38,-161 38,-106.913 72.0532,-95.014 121,-72 200.012,-34.85 824.385,-22.2142 984.625,-19.5664"/>
<polygon fill="grey" stroke="grey" stroke-width="2" points="984.981,-23.0612 994.923,-19.3995 984.867,-16.0621 984.981,-23.0612"/>
</g>
<!-- 36 -->
<g id="node37" class="node"><title>36</title>
<path fill="none" stroke="#5692d8" stroke-width="2" d="M153.5,-612C153.5,-612 82.5,-612 82.5,-612 76.5,-612 70.5,-606 70.5,-600 70.5,-600 70.5,-588 70.5,-588 70.5,-582 76.5,-576 82.5,-576 82.5,-576 153.5,-576 153.5,-576 159.5,-576 165.5,-582 165.5,-588 165.5,-588 165.5,-600 165.5,-600 165.5,-606 159.5,-612 153.5,-612"/>
<text text-anchor="middle" x="118" y="-591.5" font-family="sans" font-size="10.00">assemble_quast</text>
</g>
<!-- 29&#45;&gt;36 -->
<g id="edge85" class="edge"><title>29&#45;&gt;36</title>
<path fill="none" stroke="grey" stroke-width="2" d="M165.427,-647.697C157.798,-639.22 148.477,-628.864 140.124,-619.583"/>
<polygon fill="grey" stroke="grey" stroke-width="2" points="142.685,-617.196 133.394,-612.104 137.482,-621.879 142.685,-617.196"/>
</g>
<!-- 45 -->
<g id="node46" class="node"><title>45</title>
<path fill="none" stroke="#56d8b1" stroke-width="2" d="M292.5,-612C292.5,-612 195.5,-612 195.5,-612 189.5,-612 183.5,-606 183.5,-600 183.5,-600 183.5,-588 183.5,-588 183.5,-582 189.5,-576 195.5,-576 195.5,-576 292.5,-576 292.5,-576 298.5,-576 304.5,-582 304.5,-588 304.5,-588 304.5,-600 304.5,-600 304.5,-606 298.5,-612 292.5,-612"/>
<text text-anchor="middle" x="244" y="-591.5" font-family="sans" font-size="10.00">assemble_metaquast</text>
</g>
<!-- 29&#45;&gt;45 -->
<g id="edge103" class="edge"><title>29&#45;&gt;45</title>
<path fill="none" stroke="grey" stroke-width="2" d="M196.573,-647.697C204.202,-639.22 213.523,-628.864 221.876,-619.583"/>
<polygon fill="grey" stroke="grey" stroke-width="2" points="224.518,-621.879 228.606,-612.104 219.315,-617.196 224.518,-621.879"/>
</g>
<!-- 30&#45;&gt;23 -->
<g id="edge61" class="edge"><title>30&#45;&gt;23</title>
<path fill="none" stroke="grey" stroke-width="2" d="M940.596,-575.851C954.177,-566.811 969.257,-554.564 979,-540 1001.78,-505.948 1003,-491.969 1003,-451 1003,-451 1003,-451 1003,-161 1003,-120.86 1010.55,-74.897 1016.13,-46.4045"/>
<polygon fill="grey" stroke="grey" stroke-width="2" points="1019.61,-46.8834 1018.16,-36.3884 1012.74,-45.4976 1019.61,-46.8834"/>
</g>
<!-- 54 -->
<g id="node55" class="node"><title>54</title>
<path fill="none" stroke="#56c1d8" stroke-width="2" d="M776.5,-612C776.5,-612 647.5,-612 647.5,-612 641.5,-612 635.5,-606 635.5,-600 635.5,-600 635.5,-588 635.5,-588 635.5,-582 641.5,-576 647.5,-576 647.5,-576 776.5,-576 776.5,-576 782.5,-576 788.5,-582 788.5,-588 788.5,-588 788.5,-600 788.5,-600 788.5,-606 782.5,-612 776.5,-612"/>
<text text-anchor="middle" x="712" y="-591.5" font-family="sans" font-size="10.00">tax_shogun_combine_tables</text>
</g>
<!-- 31&#45;&gt;54 -->
<g id="edge118" class="edge"><title>31&#45;&gt;54</title>
<path fill="none" stroke="grey" stroke-width="2" d="M742.865,-647.697C738.148,-639.644 732.438,-629.894 727.218,-620.982"/>
<polygon fill="grey" stroke="grey" stroke-width="2" points="730.092,-618.964 722.018,-612.104 724.052,-622.502 730.092,-618.964"/>
</g>
<!-- 32&#45;&gt;5 -->
<g id="edge7" class="edge"><title>32&#45;&gt;5</title>
<path fill="none" stroke="grey" stroke-width="2" d="M450.247,-143.697C450.357,-135.983 450.49,-126.712 450.613,-118.112"/>
<polygon fill="grey" stroke="grey" stroke-width="2" points="454.112,-118.153 450.756,-108.104 447.113,-118.053 454.112,-118.153"/>
</g>
<!-- 59 -->
<g id="node60" class="node"><title>59</title>
<path fill="none" stroke="#56a9d8" stroke-width="2" d="M604.5,-108C604.5,-108 533.5,-108 533.5,-108 527.5,-108 521.5,-102 521.5,-96 521.5,-96 521.5,-84 521.5,-84 521.5,-78 527.5,-72 533.5,-72 533.5,-72 604.5,-72 604.5,-72 610.5,-72 616.5,-78 616.5,-84 616.5,-84 616.5,-96 616.5,-96 616.5,-102 610.5,-108 604.5,-108"/>
<text text-anchor="middle" x="569" y="-87.5" font-family="sans" font-size="10.00">anvi_summarize</text>
</g>
<!-- 32&#45;&gt;59 -->
<g id="edge126" class="edge"><title>32&#45;&gt;59</title>
<path fill="none" stroke="grey" stroke-width="2" d="M479.111,-143.876C494.67,-134.724 514.019,-123.342 530.776,-113.485"/>
<polygon fill="grey" stroke="grey" stroke-width="2" points="532.933,-116.277 539.777,-108.19 529.383,-110.243 532.933,-116.277"/>
</g>
<!-- 33&#45;&gt;3 -->
<g id="edge5" class="edge"><title>33&#45;&gt;3</title>
<path fill="none" stroke="grey" stroke-width="2" d="M684.506,-359.697C684.285,-351.983 684.02,-342.712 683.775,-334.112"/>
<polygon fill="grey" stroke="grey" stroke-width="2" points="687.273,-334 683.489,-324.104 680.276,-334.2 687.273,-334"/>
</g>
<!-- 49 -->
<g id="node50" class="node"><title>49</title>
<path fill="none" stroke="#d8ac56" stroke-width="2" d="M810.5,-180C810.5,-180 739.5,-180 739.5,-180 733.5,-180 727.5,-174 727.5,-168 727.5,-168 727.5,-156 727.5,-156 727.5,-150 733.5,-144 739.5,-144 739.5,-144 810.5,-144 810.5,-144 816.5,-144 822.5,-150 822.5,-156 822.5,-156 822.5,-168 822.5,-168 822.5,-174 816.5,-180 810.5,-180"/>
<text text-anchor="middle" x="775" y="-159.5" font-family="sans" font-size="10.00">tar_bin_cov_files</text>
</g>
<!-- 33&#45;&gt;49 -->
<g id="edge111" class="edge"><title>33&#45;&gt;49</title>
<path fill="none" stroke="grey" stroke-width="2" d="M708.087,-359.794C734.878,-338.153 777.378,-298.185 793,-252 799.947,-231.462 794.234,-207.305 787.46,-189.344"/>
<polygon fill="grey" stroke="grey" stroke-width="2" points="790.689,-187.994 783.66,-180.066 784.211,-190.646 790.689,-187.994"/>
</g>
<!-- 34 -->
<g id="node35" class="node"><title>34</title>
<path fill="none" stroke="#56d85b" stroke-width="2" d="M693.5,-540C693.5,-540 606.5,-540 606.5,-540 600.5,-540 594.5,-534 594.5,-528 594.5,-528 594.5,-516 594.5,-516 594.5,-510 600.5,-504 606.5,-504 606.5,-504 693.5,-504 693.5,-504 699.5,-504 705.5,-510 705.5,-516 705.5,-516 705.5,-528 705.5,-528 705.5,-534 699.5,-540 693.5,-540"/>
<text text-anchor="middle" x="650" y="-525" font-family="sans" font-size="10.00">map_bowtie2_index</text>
<text text-anchor="middle" x="650" y="-514" font-family="sans" font-size="10.00">bin_sample: Bs</text>
</g>
<!-- 34&#45;&gt;13 -->
<g id="edge22" class="edge"><title>34&#45;&gt;13</title>
<path fill="none" stroke="grey" stroke-width="2" d="M679.6,-503.876C695.567,-494.639 715.46,-483.131 732.606,-473.212"/>
<polygon fill="grey" stroke="grey" stroke-width="2" points="734.383,-476.227 741.286,-468.19 730.878,-470.168 734.383,-476.227"/>
</g>
<!-- 42 -->
<g id="node43" class="node"><title>42</title>
<path fill="none" stroke="#61d856" stroke-width="2" d="M689.5,-468C689.5,-468 608.5,-468 608.5,-468 602.5,-468 596.5,-462 596.5,-456 596.5,-456 596.5,-444 596.5,-444 596.5,-438 602.5,-432 608.5,-432 608.5,-432 689.5,-432 689.5,-432 695.5,-432 701.5,-438 701.5,-444 701.5,-444 701.5,-456 701.5,-456 701.5,-462 695.5,-468 689.5,-468"/>
<text text-anchor="middle" x="649" y="-453" font-family="sans" font-size="10.00">map_bowtie2</text>
<text text-anchor="middle" x="649" y="-442" font-family="sans" font-size="10.00">abund_sample: Bs</text>
</g>
<!-- 34&#45;&gt;42 -->
<g id="edge95" class="edge"><title>34&#45;&gt;42</title>
<path fill="none" stroke="grey" stroke-width="2" d="M649.753,-503.697C649.643,-495.983 649.51,-486.712 649.387,-478.112"/>
<polygon fill="grey" stroke="grey" stroke-width="2" points="652.887,-478.053 649.244,-468.104 645.888,-478.153 652.887,-478.053"/>
</g>
<!-- 35&#45;&gt;23 -->
<g id="edge42" class="edge"><title>35&#45;&gt;23</title>
<path fill="none" stroke="grey" stroke-width="2" d="M1962.13,-287.958C1968.69,-269.811 1976.39,-240.402 1969,-216 1957.86,-179.191 1951.5,-167.431 1921,-144 1842.09,-83.3762 1806.48,-91.9834 1709,-72 1465.09,-21.999 1163.68,-18.2686 1059.49,-18.6217"/>
<polygon fill="grey" stroke="grey" stroke-width="2" points="1059.16,-15.1231 1049.18,-18.6726 1059.2,-22.123 1059.16,-15.1231"/>
</g>
<!-- 56 -->
<g id="node57" class="node"><title>56</title>
<path fill="none" stroke="#56d8d0" stroke-width="2" d="M1948.5,-252C1948.5,-252 1861.5,-252 1861.5,-252 1855.5,-252 1849.5,-246 1849.5,-240 1849.5,-240 1849.5,-228 1849.5,-228 1849.5,-222 1855.5,-216 1861.5,-216 1861.5,-216 1948.5,-216 1948.5,-216 1954.5,-216 1960.5,-222 1960.5,-228 1960.5,-228 1960.5,-240 1960.5,-240 1960.5,-246 1954.5,-252 1948.5,-252"/>
<text text-anchor="middle" x="1905" y="-231.5" font-family="sans" font-size="10.00">summarize_maxbin</text>
</g>
<!-- 35&#45;&gt;56 -->
<g id="edge122" class="edge"><title>35&#45;&gt;56</title>
<path fill="none" stroke="grey" stroke-width="2" d="M1942.64,-287.697C1936.77,-279.474 1929.63,-269.483 1923.16,-260.421"/>
<polygon fill="grey" stroke="grey" stroke-width="2" points="1925.88,-258.207 1917.22,-252.104 1920.18,-262.276 1925.88,-258.207"/>
</g>
<!-- 36&#45;&gt;23 -->
<g id="edge43" class="edge"><title>36&#45;&gt;23</title>
<path fill="none" stroke="grey" stroke-width="2" d="M109.501,-575.993C97.2281,-549.822 76,-497.79 76,-451 76,-451 76,-451 76,-161 76,-131.08 -40.7017,-149.945 241,-72 383.671,-32.5239 849.094,-21.8537 984.642,-19.5502"/>
<polygon fill="grey" stroke="grey" stroke-width="2" points="984.975,-23.0453 994.916,-19.3811 984.859,-16.0462 984.975,-23.0453"/>
</g>
<!-- 37&#45;&gt;23 -->
<g id="edge52" class="edge"><title>37&#45;&gt;23</title>
<path fill="none" stroke="grey" stroke-width="2" d="M1267.4,-576.767C1213.73,-564.882 1150.36,-549.272 1141,-540 1111.9,-511.165 1117,-491.969 1117,-451 1117,-451 1117,-451 1117,-161 1117,-113.012 1079.06,-68.9633 1051.13,-43.0419"/>
<polygon fill="grey" stroke="grey" stroke-width="2" points="1053.33,-40.3144 1043.56,-36.2232 1048.65,-45.516 1053.33,-40.3144"/>
</g>
<!-- 38 -->
<g id="node39" class="node"><title>38</title>
<path fill="none" stroke="#56a2d8" stroke-width="2" d="M957,-684C957,-684 857,-684 857,-684 851,-684 845,-678 845,-672 845,-672 845,-660 845,-660 845,-654 851,-648 857,-648 857,-648 957,-648 957,-648 963,-648 969,-654 969,-660 969,-660 969,-672 969,-672 969,-678 963,-684 957,-684"/>
<text text-anchor="middle" x="907" y="-663.5" font-family="sans" font-size="10.00">qc_per_sample_fastqc</text>
</g>
<!-- 38&#45;&gt;30 -->
<g id="edge72" class="edge"><title>38&#45;&gt;30</title>
<path fill="none" stroke="grey" stroke-width="2" d="M907.742,-647.697C908.072,-639.983 908.469,-630.712 908.838,-622.112"/>
<polygon fill="grey" stroke="grey" stroke-width="2" points="912.335,-622.245 909.267,-612.104 905.342,-621.945 912.335,-622.245"/>
</g>
<!-- 39 -->
<g id="node40" class="node"><title>39</title>
<path fill="none" stroke="#d8b456" stroke-width="2" d="M466,-684C466,-684 362,-684 362,-684 356,-684 350,-678 350,-672 350,-672 350,-660 350,-660 350,-654 356,-648 362,-648 362,-648 466,-648 466,-648 472,-648 478,-654 478,-660 478,-660 478,-672 478,-672 478,-678 472,-684 466,-684"/>
<text text-anchor="middle" x="414" y="-663.5" font-family="sans" font-size="10.00">assemble_metaspades</text>
</g>
<!-- 39&#45;&gt;23 -->
<g id="edge45" class="edge"><title>39&#45;&gt;23</title>
<path fill="none" stroke="grey" stroke-width="2" d="M444.309,-647.912C479.332,-628.646 539.075,-597.245 593,-576 701.074,-533.422 763.499,-562.533 831,-468 854.559,-435.006 851,-419.542 851,-379 851,-379 851,-379 851,-161 851,-120.031 847.252,-102.141 875,-72 903.435,-41.1129 951.208,-28.201 984.55,-22.8191"/>
<polygon fill="grey" stroke="grey" stroke-width="2" points="985.434,-26.2274 994.825,-21.3231 984.425,-19.3005 985.434,-26.2274"/>
</g>
<!-- 39&#45;&gt;36 -->
<g id="edge86" class="edge"><title>39&#45;&gt;36</title>
<path fill="none" stroke="grey" stroke-width="2" d="M349.755,-652.222C303.605,-642.719 239.737,-628.909 175.484,-612.3"/>
<polygon fill="grey" stroke="grey" stroke-width="2" points="176.147,-608.856 165.588,-609.72 174.381,-615.629 176.147,-608.856"/>
</g>
<!-- 39&#45;&gt;45 -->
<g id="edge104" class="edge"><title>39&#45;&gt;45</title>
<path fill="none" stroke="grey" stroke-width="2" d="M372.413,-647.876C348.967,-638.222 319.496,-626.087 294.703,-615.878"/>
<polygon fill="grey" stroke="grey" stroke-width="2" points="296.031,-612.639 285.452,-612.068 293.366,-619.112 296.031,-612.639"/>
</g>
<!-- 62 -->
<g id="node63" class="node"><title>62</title>
<path fill="none" stroke="#56d87b" stroke-width="2" d="M491,-612C491,-612 337,-612 337,-612 331,-612 325,-606 325,-600 325,-600 325,-588 325,-588 325,-582 331,-576 337,-576 337,-576 491,-576 491,-576 497,-576 503,-582 503,-588 503,-588 503,-600 503,-600 503,-606 497,-612 491,-612"/>
<text text-anchor="middle" x="414" y="-597" font-family="sans" font-size="10.00">assemble_simplify_fasta_headers</text>
<text text-anchor="middle" x="414" y="-586" font-family="sans" font-size="10.00">assembler: metaspades</text>
</g>
<!-- 39&#45;&gt;62 -->
<g id="edge129" class="edge"><title>39&#45;&gt;62</title>
<path fill="none" stroke="grey" stroke-width="2" d="M414,-647.697C414,-639.983 414,-630.712 414,-622.112"/>
<polygon fill="grey" stroke="grey" stroke-width="2" points="417.5,-622.104 414,-612.104 410.5,-622.104 417.5,-622.104"/>
</g>
<!-- 40&#45;&gt;10 -->
<g id="edge15" class="edge"><title>40&#45;&gt;10</title>
<path fill="none" stroke="grey" stroke-width="2" d="M1562.62,-359.697C1568.14,-351.474 1574.85,-341.483 1580.93,-332.421"/>
<polygon fill="grey" stroke="grey" stroke-width="2" points="1583.85,-334.358 1586.52,-324.104 1578.04,-330.456 1583.85,-334.358"/>
</g>
<!-- 41 -->
<g id="node42" class="node"><title>41</title>
<path fill="none" stroke="#56d88a" stroke-width="2" d="M366.5,-540C366.5,-540 241.5,-540 241.5,-540 235.5,-540 229.5,-534 229.5,-528 229.5,-528 229.5,-516 229.5,-516 229.5,-510 235.5,-504 241.5,-504 241.5,-504 366.5,-504 366.5,-504 372.5,-504 378.5,-510 378.5,-516 378.5,-516 378.5,-528 378.5,-528 378.5,-534 372.5,-540 366.5,-540"/>
<text text-anchor="middle" x="304" y="-525" font-family="sans" font-size="10.00">anvi_gen_contigs_database</text>
<text text-anchor="middle" x="304" y="-514" font-family="sans" font-size="10.00">bin_sample: Bs</text>
</g>
<!-- 41&#45;&gt;5 -->
<g id="edge9" class="edge"><title>41&#45;&gt;5</title>
<path fill="none" stroke="grey" stroke-width="2" d="M258.732,-503.931C239.919,-495.241 218.828,-483.252 203,-468 170.171,-436.367 152,-424.59 152,-379 152,-379 152,-379 152,-233 152,-128.249 303.594,-100.678 390.9,-93.4848"/>
<polygon fill="grey" stroke="grey" stroke-width="2" points="391.247,-96.9686 400.954,-92.7228 390.718,-89.9886 391.247,-96.9686"/>
</g>
<!-- 41&#45;&gt;12 -->
<g id="edge20" class="edge"><title>41&#45;&gt;12</title>
<path fill="none" stroke="grey" stroke-width="2" d="M376.059,-503.937C397.016,-495.972 418.43,-484.473 434,-468 489.6,-409.173 506.715,-309.981 511.86,-262.258"/>
<polygon fill="grey" stroke="grey" stroke-width="2" points="515.365,-262.38 512.857,-252.086 508.398,-261.697 515.365,-262.38"/>
</g>
<!-- 41&#45;&gt;18 -->
<g id="edge30" class="edge"><title>41&#45;&gt;18</title>
<path fill="none" stroke="grey" stroke-width="2" d="M290.506,-503.952C283.534,-494.064 275.724,-481.021 272,-468 258.802,-421.848 263.608,-407.43 271,-360 276.173,-326.808 272.912,-314.149 294,-288 306.302,-272.746 324.253,-261.021 341.039,-252.525"/>
<polygon fill="grey" stroke="grey" stroke-width="2" points="342.695,-255.612 350.201,-248.135 339.671,-249.299 342.695,-255.612"/>
</g>
<!-- 41&#45;&gt;28 -->
<g id="edge69" class="edge"><title>41&#45;&gt;28</title>
<path fill="none" stroke="grey" stroke-width="2" d="M296.02,-503.914C282.944,-473.252 260.714,-407.644 285,-360 291.235,-347.769 301.758,-337.7 312.903,-329.747"/>
<polygon fill="grey" stroke="grey" stroke-width="2" points="315.072,-332.509 321.486,-324.076 311.213,-326.668 315.072,-332.509"/>
</g>
<!-- 41&#45;&gt;32 -->
<g id="edge77" class="edge"><title>41&#45;&gt;32</title>
<path fill="none" stroke="grey" stroke-width="2" d="M276.984,-503.964C243.272,-480.367 190,-434.325 190,-379 190,-379 190,-379 190,-305 190,-208.967 328.314,-177.48 403.178,-167.471"/>
<polygon fill="grey" stroke="grey" stroke-width="2" points="403.815,-170.918 413.3,-166.196 402.941,-163.973 403.815,-170.918"/>
</g>
<!-- 47 -->
<g id="node48" class="node"><title>47</title>
<path fill="none" stroke="#d85656" stroke-width="2" d="M410,-396C410,-396 306,-396 306,-396 300,-396 294,-390 294,-384 294,-384 294,-372 294,-372 294,-366 300,-360 306,-360 306,-360 410,-360 410,-360 416,-360 422,-366 422,-372 422,-372 422,-384 422,-384 422,-390 416,-396 410,-396"/>
<text text-anchor="middle" x="358" y="-375.5" font-family="sans" font-size="10.00">anvi_export_gene_calls</text>
</g>
<!-- 41&#45;&gt;47 -->
<g id="edge107" class="edge"><title>41&#45;&gt;47</title>
<path fill="none" stroke="grey" stroke-width="2" d="M305.758,-503.7C308.063,-485.338 313.043,-455.751 323,-432 326.987,-422.49 332.731,-412.856 338.417,-404.457"/>
<polygon fill="grey" stroke="grey" stroke-width="2" points="341.333,-406.395 344.246,-396.209 335.616,-402.356 341.333,-406.395"/>
</g>
<!-- 41&#45;&gt;59 -->
<g id="edge127" class="edge"><title>41&#45;&gt;59</title>
<path fill="none" stroke="grey" stroke-width="2" d="M378.695,-508.301C407.232,-500.479 438.52,-487.954 462,-468 568.541,-377.455 572.982,-189.335 570.589,-118.647"/>
<polygon fill="grey" stroke="grey" stroke-width="2" points="574.073,-118.19 570.16,-108.344 567.079,-118.48 574.073,-118.19"/>
</g>
<!-- 61 -->
<g id="node62" class="node"><title>61</title>
<path fill="none" stroke="#d89c56" stroke-width="2" d="M413.5,-468C413.5,-468 344.5,-468 344.5,-468 338.5,-468 332.5,-462 332.5,-456 332.5,-456 332.5,-444 332.5,-444 332.5,-438 338.5,-432 344.5,-432 344.5,-432 413.5,-432 413.5,-432 419.5,-432 425.5,-438 425.5,-444 425.5,-444 425.5,-456 425.5,-456 425.5,-462 419.5,-468 413.5,-468"/>
<text text-anchor="middle" x="379" y="-447.5" font-family="sans" font-size="10.00">anvi_run_hmms</text>
</g>
<!-- 41&#45;&gt;61 -->
<g id="edge128" class="edge"><title>41&#45;&gt;61</title>
<path fill="none" stroke="grey" stroke-width="2" d="M322.539,-503.697C331.803,-495.05 343.162,-484.449 353.257,-475.027"/>
<polygon fill="grey" stroke="grey" stroke-width="2" points="355.751,-477.486 360.674,-468.104 350.975,-472.369 355.751,-477.486"/>
</g>
<!-- 42&#45;&gt;18 -->
<g id="edge28" class="edge"><title>42&#45;&gt;18</title>
<path fill="none" stroke="grey" stroke-width="2" d="M627.922,-431.849C581.178,-393.814 468.74,-302.325 415.24,-258.792"/>
<polygon fill="grey" stroke="grey" stroke-width="2" points="417.144,-255.829 407.178,-252.232 412.726,-261.259 417.144,-255.829"/>
</g>
<!-- 42&#45;&gt;33 -->
<g id="edge79" class="edge"><title>42&#45;&gt;33</title>
<path fill="none" stroke="grey" stroke-width="2" d="M657.899,-431.697C661.997,-423.728 666.949,-414.1 671.493,-405.264"/>
<polygon fill="grey" stroke="grey" stroke-width="2" points="674.742,-406.598 676.203,-396.104 668.517,-403.396 674.742,-406.598"/>
</g>
<!-- 43&#45;&gt;21 -->
<g id="edge35" class="edge"><title>43&#45;&gt;21</title>
<path fill="none" stroke="grey" stroke-width="2" d="M1482.71,-143.876C1465.13,-134.554 1443.19,-122.919 1424.37,-112.939"/>
<polygon fill="grey" stroke="grey" stroke-width="2" points="1425.89,-109.783 1415.41,-108.19 1422.61,-115.967 1425.89,-109.783"/>
</g>
<!-- 43&#45;&gt;22 -->
<g id="edge38" class="edge"><title>43&#45;&gt;22</title>
<path fill="none" stroke="grey" stroke-width="2" d="M1533.04,-143.697C1542.06,-135.05 1553.12,-124.449 1562.94,-115.027"/>
<polygon fill="grey" stroke="grey" stroke-width="2" points="1565.37,-117.552 1570.16,-108.104 1560.52,-112.499 1565.37,-117.552"/>
</g>
<!-- 44 -->
<g id="node45" class="node"><title>44</title>
<path fill="none" stroke="#61d856" stroke-width="2" d="M1840.5,-468C1840.5,-468 1759.5,-468 1759.5,-468 1753.5,-468 1747.5,-462 1747.5,-456 1747.5,-456 1747.5,-444 1747.5,-444 1747.5,-438 1753.5,-432 1759.5,-432 1759.5,-432 1840.5,-432 1840.5,-432 1846.5,-432 1852.5,-438 1852.5,-444 1852.5,-444 1852.5,-456 1852.5,-456 1852.5,-462 1846.5,-468 1840.5,-468"/>
<text text-anchor="middle" x="1800" y="-453" font-family="sans" font-size="10.00">map_bowtie2</text>
<text text-anchor="middle" x="1800" y="-442" font-family="sans" font-size="10.00">abund_sample: Bs</text>
</g>
<!-- 44&#45;&gt;8 -->
<g id="edge13" class="edge"><title>44&#45;&gt;8</title>
<path fill="none" stroke="grey" stroke-width="2" d="M1829.84,-431.876C1845.94,-422.639 1866,-411.131 1883.29,-401.212"/>
<polygon fill="grey" stroke="grey" stroke-width="2" points="1885.11,-404.202 1892.04,-396.19 1881.63,-398.131 1885.11,-404.202"/>
</g>
<!-- 44&#45;&gt;66 -->
<g id="edge135" class="edge"><title>44&#45;&gt;66</title>
<path fill="none" stroke="grey" stroke-width="2" d="M1789.26,-431.849C1765.84,-394.44 1710.03,-305.322 1682.27,-260.98"/>
<polygon fill="grey" stroke="grey" stroke-width="2" points="1685.06,-258.85 1676.79,-252.232 1679.13,-262.565 1685.06,-258.85"/>
</g>
<!-- 45&#45;&gt;23 -->
<g id="edge46" class="edge"><title>45&#45;&gt;23</title>
<path fill="none" stroke="grey" stroke-width="2" d="M211.531,-575.935C173.026,-553.086 114,-508.656 114,-451 114,-451 114,-451 114,-161 114,-153.341 176.525,-114.537 392,-72 613.856,-28.2034 886.661,-20.5735 984.714,-19.2636"/>
<polygon fill="grey" stroke="grey" stroke-width="2" points="985.035,-22.7601 994.993,-19.1414 984.952,-15.7606 985.035,-22.7601"/>
</g>
<!-- 46&#45;&gt;58 -->
<g id="edge125" class="edge"><title>46&#45;&gt;58</title>
<path fill="none" stroke="grey" stroke-width="2" d="M896.314,-791.876C882.712,-782.808 865.828,-771.552 851.139,-761.759"/>
<polygon fill="grey" stroke="grey" stroke-width="2" points="853.047,-758.825 842.785,-756.19 849.164,-764.649 853.047,-758.825"/>
</g>
<!-- 47&#45;&gt;28 -->
<g id="edge68" class="edge"><title>47&#45;&gt;28</title>
<path fill="none" stroke="grey" stroke-width="2" d="M358,-359.697C358,-351.983 358,-342.712 358,-334.112"/>
<polygon fill="grey" stroke="grey" stroke-width="2" points="361.5,-334.104 358,-324.104 354.5,-334.104 361.5,-334.104"/>
</g>
<!-- 48&#45;&gt;43 -->
<g id="edge98" class="edge"><title>48&#45;&gt;43</title>
<path fill="none" stroke="grey" stroke-width="2" d="M1515,-215.697C1515,-207.983 1515,-198.712 1515,-190.112"/>
<polygon fill="grey" stroke="grey" stroke-width="2" points="1518.5,-190.104 1515,-180.104 1511.5,-190.104 1518.5,-190.104"/>
</g>
<!-- 49&#45;&gt;23 -->
<g id="edge50" class="edge"><title>49&#45;&gt;23</title>
<path fill="none" stroke="grey" stroke-width="2" d="M782.473,-143.92C792.162,-123.756 810.958,-90.6181 837,-72 881.534,-40.1612 944.851,-27.367 984.66,-22.2816"/>
<polygon fill="grey" stroke="grey" stroke-width="2" points="985.217,-25.7403 994.74,-21.0949 984.399,-18.7883 985.217,-25.7403"/>
</g>
<!-- 50 -->
<g id="node51" class="node"><title>50</title>
<path fill="none" stroke="#80d856" stroke-width="2" d="M1288.5,-684C1288.5,-684 1217.5,-684 1217.5,-684 1211.5,-684 1205.5,-678 1205.5,-672 1205.5,-672 1205.5,-660 1205.5,-660 1205.5,-654 1211.5,-648 1217.5,-648 1217.5,-648 1288.5,-648 1288.5,-648 1294.5,-648 1300.5,-654 1300.5,-660 1300.5,-660 1300.5,-672 1300.5,-672 1300.5,-678 1294.5,-684 1288.5,-684"/>
<text text-anchor="middle" x="1253" y="-663.5" font-family="sans" font-size="10.00">tax_metaphlan2</text>
</g>
<!-- 50&#45;&gt;19 -->
<g id="edge32" class="edge"><title>50&#45;&gt;19</title>
<path fill="none" stroke="grey" stroke-width="2" d="M1225.36,-647.876C1210.58,-638.724 1192.21,-627.342 1176.3,-617.485"/>
<polygon fill="grey" stroke="grey" stroke-width="2" points="1178.09,-614.481 1167.75,-612.19 1174.41,-620.431 1178.09,-614.481"/>
</g>
<!-- 51&#45;&gt;37 -->
<g id="edge87" class="edge"><title>51&#45;&gt;37</title>
<path fill="none" stroke="grey" stroke-width="2" d="M1557.3,-652.615C1552.52,-651.008 1547.65,-649.426 1543,-648 1503.97,-636.024 1460.17,-624.139 1423.7,-614.668"/>
<polygon fill="grey" stroke="grey" stroke-width="2" points="1424.17,-611.176 1413.62,-612.063 1422.42,-617.953 1424.17,-611.176"/>
</g>
<!-- 52&#45;&gt;5 -->
<g id="edge8" class="edge"><title>52&#45;&gt;5</title>
<path fill="none" stroke="grey" stroke-width="2" d="M695.467,-215.871C644.956,-190.071 549.37,-141.247 493.866,-112.896"/>
<polygon fill="grey" stroke="grey" stroke-width="2" points="495.15,-109.621 484.652,-108.189 491.966,-115.855 495.15,-109.621"/>
</g>
<!-- 52&#45;&gt;49 -->
<g id="edge112" class="edge"><title>52&#45;&gt;49</title>
<path fill="none" stroke="grey" stroke-width="2" d="M740.371,-215.697C745.718,-207.559 752.204,-197.689 758.111,-188.701"/>
<polygon fill="grey" stroke="grey" stroke-width="2" points="761.193,-190.384 763.76,-180.104 755.343,-186.539 761.193,-190.384"/>
</g>
<!-- 53&#45;&gt;23 -->
<g id="edge54" class="edge"><title>53&#45;&gt;23</title>
<path fill="none" stroke="grey" stroke-width="2" d="M1517.09,-578.773C1512.33,-577.79 1507.59,-576.853 1503,-576 1448.25,-565.837 1296.65,-576.962 1255,-540 1224.36,-512.809 1231,-491.969 1231,-451 1231,-451 1231,-451 1231,-161 1231,-120.031 1235.74,-101.194 1207,-72 1167.78,-32.164 1100.8,-21.7603 1059.1,-19.3327"/>
<polygon fill="grey" stroke="grey" stroke-width="2" points="1059.22,-15.8349 1049.08,-18.8744 1058.9,-22.8276 1059.22,-15.8349"/>
</g>
<!-- 54&#45;&gt;23 -->
<g id="edge56" class="edge"><title>54&#45;&gt;23</title>
<path fill="none" stroke="grey" stroke-width="2" d="M786.774,-575.988C836.568,-564.028 894.393,-548.67 903,-540 931.863,-510.926 927,-491.969 927,-451 927,-451 927,-451 927,-161 927,-120.031 927.987,-105.894 951,-72 959.986,-58.7651 973.389,-47.5365 986.137,-38.8684"/>
<polygon fill="grey" stroke="grey" stroke-width="2" points="988.289,-41.6451 994.795,-33.2832 984.494,-35.7627 988.289,-41.6451"/>
</g>
<!-- 55&#45;&gt;8 -->
<g id="edge12" class="edge"><title>55&#45;&gt;8</title>
<path fill="none" stroke="grey" stroke-width="2" d="M1922,-431.697C1922,-423.983 1922,-414.712 1922,-406.112"/>
<polygon fill="grey" stroke="grey" stroke-width="2" points="1925.5,-406.104 1922,-396.104 1918.5,-406.104 1925.5,-406.104"/>
</g>
<!-- 55&#45;&gt;48 -->
<g id="edge108" class="edge"><title>55&#45;&gt;48</title>
<path fill="none" stroke="grey" stroke-width="2" d="M1870.36,-433.856C1767.45,-403.473 1545.64,-336.882 1534,-324 1518.99,-307.382 1514.77,-281.88 1514,-262.428"/>
<polygon fill="grey" stroke="grey" stroke-width="2" points="1517.5,-262.295 1513.88,-252.338 1510.5,-262.379 1517.5,-262.295"/>
</g>
<!-- 56&#45;&gt;22 -->
<g id="edge36" class="edge"><title>56&#45;&gt;22</title>
<path fill="none" stroke="grey" stroke-width="2" d="M1909.7,-215.906C1914.02,-196.041 1917.43,-163.501 1900,-144 1867.44,-107.562 1729.47,-96.1726 1648.32,-92.6146"/>
<polygon fill="grey" stroke="grey" stroke-width="2" points="1648.36,-89.1137 1638.23,-92.1997 1648.08,-96.1078 1648.36,-89.1137"/>
</g>
<!-- 56&#45;&gt;65 -->
<g id="edge132" class="edge"><title>56&#45;&gt;65</title>
<path fill="none" stroke="grey" stroke-width="2" d="M1889.92,-215.697C1882.61,-207.305 1873.69,-197.07 1865.66,-187.861"/>
<polygon fill="grey" stroke="grey" stroke-width="2" points="1868.11,-185.344 1858.91,-180.104 1862.84,-189.943 1868.11,-185.344"/>
</g>
<!-- 57&#45;&gt;44 -->
<g id="edge102" class="edge"><title>57&#45;&gt;44</title>
<path fill="none" stroke="grey" stroke-width="2" d="M1880.82,-503.876C1866.96,-494.808 1849.76,-483.552 1834.79,-473.759"/>
<polygon fill="grey" stroke="grey" stroke-width="2" points="1836.56,-470.735 1826.28,-468.19 1832.73,-476.593 1836.56,-470.735"/>
</g>
<!-- 57&#45;&gt;55 -->
<g id="edge121" class="edge"><title>57&#45;&gt;55</title>
<path fill="none" stroke="grey" stroke-width="2" d="M1910.71,-503.697C1912.36,-495.983 1914.35,-486.712 1916.19,-478.112"/>
<polygon fill="grey" stroke="grey" stroke-width="2" points="1919.66,-478.616 1918.33,-468.104 1912.82,-477.149 1919.66,-478.616"/>
</g>
<!-- 58&#45;&gt;23 -->
<g id="edge62" class="edge"><title>58&#45;&gt;23</title>
<path fill="none" stroke="grey" stroke-width="2" d="M813.775,-719.863C808.797,-687.947 802.969,-618.769 836,-576 862.839,-541.25 896.628,-570.72 928,-540 958.607,-510.029 965,-493.838 965,-451 965,-451 965,-451 965,-161 965,-117.801 988,-72.1859 1004.78,-44.6553"/>
<polygon fill="grey" stroke="grey" stroke-width="2" points="1007.83,-46.3716 1010.19,-36.0417 1001.91,-42.6485 1007.83,-46.3716"/>
</g>
<!-- 59&#45;&gt;23 -->
<g id="edge63" class="edge"><title>59&#45;&gt;23</title>
<path fill="none" stroke="grey" stroke-width="2" d="M616.574,-75.2694C621.425,-74.0754 626.297,-72.959 631,-72 759.645,-45.7652 914.825,-29.1058 984.7,-22.3891"/>
<polygon fill="grey" stroke="grey" stroke-width="2" points="985.147,-25.8625 994.772,-21.4333 984.486,-18.8938 985.147,-25.8625"/>
</g>
<!-- 60 -->
<g id="node61" class="node"><title>60</title>
<path fill="none" stroke="#569ad8" stroke-width="2" d="M749,-900C749,-900 669,-900 669,-900 663,-900 657,-894 657,-888 657,-888 657,-876 657,-876 657,-870 663,-864 669,-864 669,-864 749,-864 749,-864 755,-864 761,-870 761,-876 761,-876 761,-888 761,-888 761,-894 755,-900 749,-900"/>
<text text-anchor="middle" x="709" y="-885" font-family="sans" font-size="10.00">raw_combine_files</text>
<text text-anchor="middle" x="709" y="-874" font-family="sans" font-size="10.00">sample: Bs</text>
</g>
<!-- 60&#45;&gt;14 -->
<g id="edge23" class="edge"><title>60&#45;&gt;14</title>
<path fill="none" stroke="grey" stroke-width="2" d="M692.685,-863.697C684.693,-855.22 674.928,-844.864 666.178,-835.583"/>
<polygon fill="grey" stroke="grey" stroke-width="2" points="668.534,-832.979 659.127,-828.104 663.441,-837.781 668.534,-832.979"/>
</g>
<!-- 60&#45;&gt;17 -->
<g id="edge27" class="edge"><title>60&#45;&gt;17</title>
<path fill="none" stroke="grey" stroke-width="2" d="M725.315,-863.697C733.307,-855.22 743.072,-844.864 751.822,-835.583"/>
<polygon fill="grey" stroke="grey" stroke-width="2" points="754.559,-837.781 758.873,-828.104 749.466,-832.979 754.559,-837.781"/>
</g>
<!-- 61&#45;&gt;32 -->
<g id="edge74" class="edge"><title>61&#45;&gt;32</title>
<path fill="none" stroke="grey" stroke-width="2" d="M401.991,-431.931C412.743,-422.594 424.571,-410.069 431,-396 462.4,-327.284 458.181,-235.303 453.541,-190.225"/>
<polygon fill="grey" stroke="grey" stroke-width="2" points="456.995,-189.619 452.405,-180.071 450.039,-190.398 456.995,-189.619"/>
</g>
<!-- 61&#45;&gt;47 -->
<g id="edge106" class="edge"><title>61&#45;&gt;47</title>
<path fill="none" stroke="grey" stroke-width="2" d="M373.809,-431.697C371.469,-423.898 368.653,-414.509 366.049,-405.829"/>
<polygon fill="grey" stroke="grey" stroke-width="2" points="369.357,-404.677 363.131,-396.104 362.652,-406.688 369.357,-404.677"/>
</g>
<!-- 62&#45;&gt;3 -->
<g id="edge6" class="edge"><title>62&#45;&gt;3</title>
<path fill="none" stroke="grey" stroke-width="2" d="M427.808,-575.904C460.032,-536.366 543.365,-436.168 621,-360 631.23,-349.963 643.061,-339.579 653.628,-330.691"/>
<polygon fill="grey" stroke="grey" stroke-width="2" points="655.964,-333.301 661.416,-324.216 651.489,-327.918 655.964,-333.301"/>
</g>
<!-- 62&#45;&gt;33 -->
<g id="edge80" class="edge"><title>62&#45;&gt;33</title>
<path fill="none" stroke="grey" stroke-width="2" d="M482.346,-575.881C503.569,-567.839 525.655,-556.309 542,-540 578.81,-503.271 552.133,-470.578 587,-432 598.709,-419.045 614.348,-408.635 629.688,-400.588"/>
<polygon fill="grey" stroke="grey" stroke-width="2" points="631.264,-403.713 638.654,-396.121 628.142,-397.447 631.264,-403.713"/>
</g>
<!-- 62&#45;&gt;34 -->
<g id="edge82" class="edge"><title>62&#45;&gt;34</title>
<path fill="none" stroke="grey" stroke-width="2" d="M471.43,-575.966C505.602,-565.83 549.071,-552.937 584.565,-542.409"/>
<polygon fill="grey" stroke="grey" stroke-width="2" points="585.758,-545.705 594.35,-539.506 583.768,-538.994 585.758,-545.705"/>
</g>
<!-- 62&#45;&gt;41 -->
<g id="edge93" class="edge"><title>62&#45;&gt;41</title>
<path fill="none" stroke="grey" stroke-width="2" d="M387.091,-575.876C372.842,-566.808 355.154,-555.552 339.764,-545.759"/>
<polygon fill="grey" stroke="grey" stroke-width="2" points="341.328,-542.606 331.012,-540.19 337.57,-548.511 341.328,-542.606"/>
</g>
<!-- 63 -->
<g id="node64" class="node"><title>63</title>
<path fill="none" stroke="#d88d56" stroke-width="2" d="M687,-684C687,-684 639,-684 639,-684 633,-684 627,-678 627,-672 627,-672 627,-660 627,-660 627,-654 633,-648 639,-648 639,-648 687,-648 687,-648 693,-648 699,-654 699,-660 699,-660 699,-672 699,-672 699,-678 693,-684 687,-684"/>
<text text-anchor="middle" x="663" y="-663.5" font-family="sans" font-size="10.00">tax_shogun</text>
</g>
<!-- 63&#45;&gt;54 -->
<g id="edge119" class="edge"><title>63&#45;&gt;54</title>
<path fill="none" stroke="grey" stroke-width="2" d="M675.112,-647.697C680.868,-639.474 687.862,-629.483 694.206,-620.421"/>
<polygon fill="grey" stroke="grey" stroke-width="2" points="697.16,-622.304 700.027,-612.104 691.425,-618.29 697.16,-622.304"/>
</g>
<!-- 64&#45;&gt;11 -->
<g id="edge17" class="edge"><title>64&#45;&gt;11</title>
<path fill="none" stroke="grey" stroke-width="2" d="M680.271,-730.651C697.338,-726.931 719.839,-722.489 740,-720 1038.01,-683.203 1123.35,-746.109 1421.45,-683.651"/>
<polygon fill="grey" stroke="grey" stroke-width="2" points="1422.19,-687.073 1431.24,-681.571 1420.73,-680.226 1422.19,-687.073"/>
</g>
<!-- 64&#45;&gt;23 -->
<g id="edge57" class="edge"><title>64&#45;&gt;23</title>
<path fill="none" stroke="grey" stroke-width="2" d="M637.817,-719.703C630.268,-709.939 621.934,-697.095 618,-684 610.919,-660.427 624.184,-578.043 626,-576 672.984,-523.14 717.589,-571.317 781,-540 836.768,-512.458 889,-513.198 889,-451 889,-451 889,-451 889,-161 889,-117.633 899.835,-104.095 929,-72 944.503,-54.9397 966.817,-41.9689 985.701,-33.1299"/>
<polygon fill="grey" stroke="grey" stroke-width="2" points="987.229,-36.2806 994.93,-29.0039 984.372,-29.8902 987.229,-36.2806"/>
</g>
<!-- 64&#45;&gt;29 -->
<g id="edge70" class="edge"><title>64&#45;&gt;29</title>
<path fill="none" stroke="grey" stroke-width="2" d="M625.928,-732.985C552.847,-722.147 350.033,-692.069 245.353,-676.544"/>
<polygon fill="grey" stroke="grey" stroke-width="2" points="245.636,-673.048 235.23,-675.043 244.609,-679.972 245.636,-673.048"/>
</g>
<!-- 64&#45;&gt;38 -->
<g id="edge89" class="edge"><title>64&#45;&gt;38</title>
<path fill="none" stroke="grey" stroke-width="2" d="M680.182,-729.509C716.913,-719.386 783.735,-700.971 835.371,-686.74"/>
<polygon fill="grey" stroke="grey" stroke-width="2" points="836.443,-690.075 845.154,-684.044 834.583,-683.327 836.443,-690.075"/>
</g>
<!-- 64&#45;&gt;39 -->
<g id="edge90" class="edge"><title>64&#45;&gt;39</title>
<path fill="none" stroke="grey" stroke-width="2" d="M625.584,-728.97C590.827,-718.79 529.699,-700.887 482.055,-686.933"/>
<polygon fill="grey" stroke="grey" stroke-width="2" points="482.994,-683.56 472.413,-684.109 481.026,-690.278 482.994,-683.56"/>
</g>
<!-- 64&#45;&gt;42 -->
<g id="edge94" class="edge"><title>64&#45;&gt;42</title>
<path fill="none" stroke="grey" stroke-width="2" d="M625.655,-723.62C610.675,-714.672 593.474,-701.349 585,-684 577.978,-669.623 584.115,-663.976 585,-648 586.781,-615.852 572.353,-600.706 593,-576 628.979,-532.947 680.457,-584.976 714,-540 723.565,-527.174 720.864,-518.453 714,-504 708.431,-492.273 698.856,-482.285 688.741,-474.248"/>
<polygon fill="grey" stroke="grey" stroke-width="2" points="690.704,-471.347 680.58,-468.224 686.547,-476.979 690.704,-471.347"/>
</g>
<!-- 64&#45;&gt;44 -->
<g id="edge101" class="edge"><title>64&#45;&gt;44</title>
<path fill="none" stroke="grey" stroke-width="2" d="M680.373,-731.339C697.479,-727.879 719.984,-723.468 740,-720 845.411,-701.738 886.009,-738.613 978,-684 1029.82,-653.234 1007.05,-604.791 1060,-576 1154.17,-524.795 1436.01,-561.594 1541,-540 1616.25,-524.522 1699.69,-493.125 1751.01,-472.072"/>
<polygon fill="grey" stroke="grey" stroke-width="2" points="1752.61,-475.194 1760.52,-468.137 1749.94,-468.726 1752.61,-475.194"/>
</g>
<!-- 64&#45;&gt;50 -->
<g id="edge113" class="edge"><title>64&#45;&gt;50</title>
<path fill="none" stroke="grey" stroke-width="2" d="M680.295,-730.835C697.371,-727.186 719.873,-722.752 740,-720 938.178,-692.905 994.345,-720.346 1195.29,-683.871"/>
<polygon fill="grey" stroke="grey" stroke-width="2" points="1196.09,-687.284 1205.29,-682.027 1194.82,-680.4 1196.09,-687.284"/>
</g>
<!-- 64&#45;&gt;63 -->
<g id="edge130" class="edge"><title>64&#45;&gt;63</title>
<path fill="none" stroke="grey" stroke-width="2" d="M655.472,-719.697C656.574,-711.983 657.898,-702.712 659.127,-694.112"/>
<polygon fill="grey" stroke="grey" stroke-width="2" points="662.607,-694.499 660.557,-684.104 655.677,-693.509 662.607,-694.499"/>
</g>
<!-- 65&#45;&gt;23 -->
<g id="edge64" class="edge"><title>65&#45;&gt;23</title>
<path fill="none" stroke="grey" stroke-width="2" d="M1814.79,-143.972C1777.32,-123.041 1709.65,-88.2965 1647,-72 1534.71,-42.7927 1176.29,-25.4862 1059.32,-20.5058"/>
<polygon fill="grey" stroke="grey" stroke-width="2" points="1059.22,-16.9987 1049.08,-20.0754 1058.93,-23.9925 1059.22,-16.9987"/>
</g>
<!-- 66&#45;&gt;43 -->
<g id="edge99" class="edge"><title>66&#45;&gt;43</title>
<path fill="none" stroke="grey" stroke-width="2" d="M1630.22,-216.411C1609.46,-206.789 1583.1,-194.571 1560.84,-184.25"/>
<polygon fill="grey" stroke="grey" stroke-width="2" points="1562.12,-180.987 1551.58,-179.956 1559.18,-187.337 1562.12,-180.987"/>
</g>
</g>
</svg>
