<?xml version="1.0" encoding="UTF-8" standalone="no"?>
<!DOCTYPE svg PUBLIC "-//W3C//DTD SVG 1.1//EN"
 "http://www.w3.org/Graphics/SVG/1.1/DTD/svg11.dtd">
<!-- Generated by graphviz version 2.38.0 (20140413.2041)
 -->
<!-- Title: snakemake_dag Pages: 1 -->
<svg width="794pt" height="836pt"
 viewBox="0.00 0.00 794.00 836.00" xmlns="http://www.w3.org/2000/svg" xmlns:xlink="http://www.w3.org/1999/xlink">
<g id="graph0" class="graph" transform="scale(1 1) rotate(0) translate(4 832)">
<title>snakemake_dag</title>
<polygon fill="white" stroke="none" points="-4,4 -4,-832 790,-832 790,4 -4,4"/>
<!-- 0 -->
<g id="node1" class="node"><title>0</title>
<path fill="none" stroke="#56a9d8" stroke-width="2" d="M736,-612C736,-612 632,-612 632,-612 626,-612 620,-606 620,-600 620,-600 620,-588 620,-588 620,-582 626,-576 632,-576 632,-576 736,-576 736,-576 742,-576 748,-582 748,-588 748,-588 748,-600 748,-600 748,-606 742,-612 736,-612"/>
<text text-anchor="middle" x="684" y="-591.5" font-family="sans" font-size="10.00">assemble_metaspades</text>
</g>
<!-- 21 -->
<g id="node22" class="node"><title>21</title>
<path fill="none" stroke="#56d8b9" stroke-width="2" d="M774,-540C774,-540 620,-540 620,-540 614,-540 608,-534 608,-528 608,-528 608,-516 608,-516 608,-510 614,-504 620,-504 620,-504 774,-504 774,-504 780,-504 786,-510 786,-516 786,-516 786,-528 786,-528 786,-534 780,-540 774,-540"/>
<text text-anchor="middle" x="697" y="-525" font-family="sans" font-size="10.00">assemble_simplify_fasta_headers</text>
<text text-anchor="middle" x="697" y="-514" font-family="sans" font-size="10.00">assembler: metaspades</text>
</g>
<!-- 0&#45;&gt;21 -->
<g id="edge33" class="edge"><title>0&#45;&gt;21</title>
<path fill="none" stroke="grey" stroke-width="2" d="M687.213,-575.697C688.646,-567.983 690.368,-558.712 691.965,-550.112"/>
<polygon fill="grey" stroke="grey" stroke-width="2" points="695.439,-550.575 693.823,-540.104 688.556,-549.297 695.439,-550.575"/>
</g>
<!-- 1 -->
<g id="node2" class="node"><title>1</title>
<path fill="none" stroke="#56d873" stroke-width="2" d="M621.5,-324C621.5,-324 536.5,-324 536.5,-324 530.5,-324 524.5,-318 524.5,-312 524.5,-312 524.5,-300 524.5,-300 524.5,-294 530.5,-288 536.5,-288 536.5,-288 621.5,-288 621.5,-288 627.5,-288 633.5,-294 633.5,-300 633.5,-300 633.5,-312 633.5,-312 633.5,-318 627.5,-324 621.5,-324"/>
<text text-anchor="middle" x="579" y="-303.5" font-family="sans" font-size="10.00">bin_make_cov_files</text>
</g>
<!-- 3 -->
<g id="node4" class="node"><title>3</title>
<path fill="none" stroke="#d89556" stroke-width="2" d="M623,-252C623,-252 555,-252 555,-252 549,-252 543,-246 543,-240 543,-240 543,-228 543,-228 543,-222 549,-216 555,-216 555,-216 623,-216 623,-216 629,-216 635,-222 635,-228 635,-228 635,-240 635,-240 635,-246 629,-252 623,-252"/>
<text text-anchor="middle" x="589" y="-231.5" font-family="sans" font-size="10.00">bin_run_maxbin</text>
</g>
<!-- 1&#45;&gt;3 -->
<g id="edge8" class="edge"><title>1&#45;&gt;3</title>
<path fill="none" stroke="grey" stroke-width="2" d="M581.472,-287.697C582.574,-279.983 583.898,-270.712 585.127,-262.112"/>
<polygon fill="grey" stroke="grey" stroke-width="2" points="588.607,-262.499 586.557,-252.104 581.677,-261.509 588.607,-262.499"/>
</g>
<!-- 9 -->
<g id="node10" class="node"><title>9</title>
<path fill="none" stroke="#d85656" stroke-width="2" d="M497.5,-108C497.5,-108 426.5,-108 426.5,-108 420.5,-108 414.5,-102 414.5,-96 414.5,-96 414.5,-84 414.5,-84 414.5,-78 420.5,-72 426.5,-72 426.5,-72 497.5,-72 497.5,-72 503.5,-72 509.5,-78 509.5,-84 509.5,-84 509.5,-96 509.5,-96 509.5,-102 503.5,-108 497.5,-108"/>
<text text-anchor="middle" x="462" y="-87.5" font-family="sans" font-size="10.00">tar_bin_cov_files</text>
</g>
<!-- 1&#45;&gt;9 -->
<g id="edge17" class="edge"><title>1&#45;&gt;9</title>
<path fill="none" stroke="grey" stroke-width="2" d="M560.471,-287.942C537.396,-265.545 498.628,-223.89 479,-180 470.237,-160.405 465.986,-136.413 463.926,-118.279"/>
<polygon fill="grey" stroke="grey" stroke-width="2" points="467.387,-117.708 462.928,-108.097 460.421,-118.391 467.387,-117.708"/>
</g>
<!-- 2 -->
<g id="node3" class="node"><title>2</title>
<path fill="none" stroke="#9fd856" stroke-width="2" d="M497.5,-396C497.5,-396 416.5,-396 416.5,-396 410.5,-396 404.5,-390 404.5,-384 404.5,-384 404.5,-372 404.5,-372 404.5,-366 410.5,-360 416.5,-360 416.5,-360 497.5,-360 497.5,-360 503.5,-360 509.5,-366 509.5,-372 509.5,-372 509.5,-384 509.5,-384 509.5,-390 503.5,-396 497.5,-396"/>
<text text-anchor="middle" x="457" y="-381" font-family="sans" font-size="10.00">map_bowtie2</text>
<text text-anchor="middle" x="457" y="-370" font-family="sans" font-size="10.00">abund_sample: Bs</text>
</g>
<!-- 2&#45;&gt;1 -->
<g id="edge3" class="edge"><title>2&#45;&gt;1</title>
<path fill="none" stroke="grey" stroke-width="2" d="M486.845,-359.876C502.944,-350.639 523.001,-339.131 540.288,-329.212"/>
<polygon fill="grey" stroke="grey" stroke-width="2" points="542.109,-332.202 549.041,-324.19 538.625,-326.131 542.109,-332.202"/>
</g>
<!-- 6 -->
<g id="node7" class="node"><title>6</title>
<path fill="none" stroke="#56d863" stroke-width="2" d="M420,-36C420,-36 390,-36 390,-36 384,-36 378,-30 378,-24 378,-24 378,-12 378,-12 378,-6 384,-0 390,-0 390,-0 420,-0 420,-0 426,-0 432,-6 432,-12 432,-12 432,-24 432,-24 432,-30 426,-36 420,-36"/>
<text text-anchor="middle" x="405" y="-15.5" font-family="sans" font-size="10.00">bin</text>
</g>
<!-- 3&#45;&gt;6 -->
<g id="edge11" class="edge"><title>3&#45;&gt;6</title>
<path fill="none" stroke="grey" stroke-width="2" d="M598.947,-215.827C608.27,-197.311 619.224,-167.354 608,-144 576.214,-77.8656 491.097,-43.3818 441.758,-28.4284"/>
<polygon fill="grey" stroke="grey" stroke-width="2" points="442.68,-25.0514 432.1,-25.612 440.72,-31.7715 442.68,-25.0514"/>
</g>
<!-- 16 -->
<g id="node17" class="node"><title>16</title>
<path fill="none" stroke="#d85e56" stroke-width="2" d="M587.5,-180C587.5,-180 500.5,-180 500.5,-180 494.5,-180 488.5,-174 488.5,-168 488.5,-168 488.5,-156 488.5,-156 488.5,-150 494.5,-144 500.5,-144 500.5,-144 587.5,-144 587.5,-144 593.5,-144 599.5,-150 599.5,-156 599.5,-156 599.5,-168 599.5,-168 599.5,-174 593.5,-180 587.5,-180"/>
<text text-anchor="middle" x="544" y="-159.5" font-family="sans" font-size="10.00">summarize_maxbin</text>
</g>
<!-- 3&#45;&gt;16 -->
<g id="edge27" class="edge"><title>3&#45;&gt;16</title>
<path fill="none" stroke="grey" stroke-width="2" d="M577.876,-215.697C572.645,-207.559 566.3,-197.689 560.522,-188.701"/>
<polygon fill="grey" stroke="grey" stroke-width="2" points="563.347,-186.623 554.996,-180.104 557.459,-190.409 563.347,-186.623"/>
</g>
<!-- 4 -->
<g id="node5" class="node"><title>4</title>
<path fill="none" stroke="#566bd8" stroke-width="2" d="M243,-756C243,-756 169,-756 169,-756 163,-756 157,-750 157,-744 157,-744 157,-732 157,-732 157,-726 163,-720 169,-720 169,-720 243,-720 243,-720 249,-720 255,-726 255,-732 255,-732 255,-744 255,-744 255,-750 249,-756 243,-756"/>
<text text-anchor="middle" x="206" y="-741" font-family="sans" font-size="10.00">qc_atropos</text>
<text text-anchor="middle" x="206" y="-730" font-family="sans" font-size="10.00">trimmer: atropos</text>
</g>
<!-- 5 -->
<g id="node6" class="node"><title>5</title>
<path fill="none" stroke="#bed856" stroke-width="2" d="M221,-684C221,-684 191,-684 191,-684 185,-684 179,-678 179,-672 179,-672 179,-660 179,-660 179,-654 185,-648 191,-648 191,-648 221,-648 221,-648 227,-648 233,-654 233,-660 233,-660 233,-672 233,-672 233,-678 227,-684 221,-684"/>
<text text-anchor="middle" x="206" y="-663.5" font-family="sans" font-size="10.00">qc_filter</text>
</g>
<!-- 4&#45;&gt;5 -->
<g id="edge10" class="edge"><title>4&#45;&gt;5</title>
<path fill="none" stroke="grey" stroke-width="2" d="M206,-719.697C206,-711.983 206,-702.712 206,-694.112"/>
<polygon fill="grey" stroke="grey" stroke-width="2" points="209.5,-694.104 206,-684.104 202.5,-694.104 209.5,-694.104"/>
</g>
<!-- 5&#45;&gt;2 -->
<g id="edge5" class="edge"><title>5&#45;&gt;2</title>
<path fill="none" stroke="grey" stroke-width="2" d="M220.95,-647.966C263.399,-599.597 384.83,-461.234 434.952,-404.123"/>
<polygon fill="grey" stroke="grey" stroke-width="2" points="437.846,-406.131 441.811,-396.306 432.585,-401.514 437.846,-406.131"/>
</g>
<!-- 12 -->
<g id="node13" class="node"><title>12</title>
<path fill="none" stroke="#9fd856" stroke-width="2" d="M248.5,-396C248.5,-396 167.5,-396 167.5,-396 161.5,-396 155.5,-390 155.5,-384 155.5,-384 155.5,-372 155.5,-372 155.5,-366 161.5,-360 167.5,-360 167.5,-360 248.5,-360 248.5,-360 254.5,-360 260.5,-366 260.5,-372 260.5,-372 260.5,-384 260.5,-384 260.5,-390 254.5,-396 248.5,-396"/>
<text text-anchor="middle" x="208" y="-381" font-family="sans" font-size="10.00">map_bowtie2</text>
<text text-anchor="middle" x="208" y="-370" font-family="sans" font-size="10.00">abund_sample: Bs</text>
</g>
<!-- 5&#45;&gt;12 -->
<g id="edge22" class="edge"><title>5&#45;&gt;12</title>
<path fill="none" stroke="grey" stroke-width="2" d="M206.119,-647.966C206.453,-600.291 207.397,-465.185 207.807,-406.63"/>
<polygon fill="grey" stroke="grey" stroke-width="2" points="211.309,-406.331 207.879,-396.306 204.309,-406.282 211.309,-406.331"/>
</g>
<!-- 19 -->
<g id="node20" class="node"><title>19</title>
<path fill="none" stroke="#56a9d8" stroke-width="2" d="M154,-612C154,-612 50,-612 50,-612 44,-612 38,-606 38,-600 38,-600 38,-588 38,-588 38,-582 44,-576 50,-576 50,-576 154,-576 154,-576 160,-576 166,-582 166,-588 166,-588 166,-600 166,-600 166,-606 160,-612 154,-612"/>
<text text-anchor="middle" x="102" y="-591.5" font-family="sans" font-size="10.00">assemble_metaspades</text>
</g>
<!-- 5&#45;&gt;19 -->
<g id="edge29" class="edge"><title>5&#45;&gt;19</title>
<path fill="none" stroke="grey" stroke-width="2" d="M180.559,-647.876C167.213,-638.893 150.676,-627.763 136.222,-618.034"/>
<polygon fill="grey" stroke="grey" stroke-width="2" points="137.789,-614.87 127.539,-612.19 133.881,-620.677 137.789,-614.87"/>
</g>
<!-- 7 -->
<g id="node8" class="node"><title>7</title>
<path fill="none" stroke="#bed856" stroke-width="2" d="M595,-684C595,-684 565,-684 565,-684 559,-684 553,-678 553,-672 553,-672 553,-660 553,-660 553,-654 559,-648 565,-648 565,-648 595,-648 595,-648 601,-648 607,-654 607,-660 607,-660 607,-672 607,-672 607,-678 601,-684 595,-684"/>
<text text-anchor="middle" x="580" y="-663.5" font-family="sans" font-size="10.00">qc_filter</text>
</g>
<!-- 7&#45;&gt;0 -->
<g id="edge1" class="edge"><title>7&#45;&gt;0</title>
<path fill="none" stroke="grey" stroke-width="2" d="M605.441,-647.876C618.787,-638.893 635.324,-627.763 649.778,-618.034"/>
<polygon fill="grey" stroke="grey" stroke-width="2" points="652.119,-620.677 658.461,-612.19 648.211,-614.87 652.119,-620.677"/>
</g>
<!-- 10 -->
<g id="node11" class="node"><title>10</title>
<path fill="none" stroke="#9fd856" stroke-width="2" d="M369.5,-396C369.5,-396 290.5,-396 290.5,-396 284.5,-396 278.5,-390 278.5,-384 278.5,-384 278.5,-372 278.5,-372 278.5,-366 284.5,-360 290.5,-360 290.5,-360 369.5,-360 369.5,-360 375.5,-360 381.5,-366 381.5,-372 381.5,-372 381.5,-384 381.5,-384 381.5,-390 375.5,-396 369.5,-396"/>
<text text-anchor="middle" x="330" y="-381" font-family="sans" font-size="10.00">map_bowtie2</text>
<text text-anchor="middle" x="330" y="-370" font-family="sans" font-size="10.00">abund_sample: Vf</text>
</g>
<!-- 7&#45;&gt;10 -->
<g id="edge19" class="edge"><title>7&#45;&gt;10</title>
<path fill="none" stroke="grey" stroke-width="2" d="M565.11,-647.966C522.83,-599.597 401.883,-461.234 351.96,-404.123"/>
<polygon fill="grey" stroke="grey" stroke-width="2" points="354.345,-401.532 345.128,-396.306 349.074,-406.139 354.345,-401.532"/>
</g>
<!-- 23 -->
<g id="node24" class="node"><title>23</title>
<path fill="none" stroke="#9fd856" stroke-width="2" d="M618.5,-396C618.5,-396 539.5,-396 539.5,-396 533.5,-396 527.5,-390 527.5,-384 527.5,-384 527.5,-372 527.5,-372 527.5,-366 533.5,-360 539.5,-360 539.5,-360 618.5,-360 618.5,-360 624.5,-360 630.5,-366 630.5,-372 630.5,-372 630.5,-384 630.5,-384 630.5,-390 624.5,-396 618.5,-396"/>
<text text-anchor="middle" x="579" y="-381" font-family="sans" font-size="10.00">map_bowtie2</text>
<text text-anchor="middle" x="579" y="-370" font-family="sans" font-size="10.00">abund_sample: Vf</text>
</g>
<!-- 7&#45;&gt;23 -->
<g id="edge35" class="edge"><title>7&#45;&gt;23</title>
<path fill="none" stroke="grey" stroke-width="2" d="M579.94,-647.966C579.774,-600.291 579.301,-465.185 579.097,-406.63"/>
<polygon fill="grey" stroke="grey" stroke-width="2" points="582.596,-406.294 579.061,-396.306 575.596,-406.319 582.596,-406.294"/>
</g>
<!-- 8 -->
<g id="node9" class="node"><title>8</title>
<path fill="none" stroke="#566bd8" stroke-width="2" d="M617,-756C617,-756 543,-756 543,-756 537,-756 531,-750 531,-744 531,-744 531,-732 531,-732 531,-726 537,-720 543,-720 543,-720 617,-720 617,-720 623,-720 629,-726 629,-732 629,-732 629,-744 629,-744 629,-750 623,-756 617,-756"/>
<text text-anchor="middle" x="580" y="-741" font-family="sans" font-size="10.00">qc_atropos</text>
<text text-anchor="middle" x="580" y="-730" font-family="sans" font-size="10.00">trimmer: atropos</text>
</g>
<!-- 8&#45;&gt;7 -->
<g id="edge15" class="edge"><title>8&#45;&gt;7</title>
<path fill="none" stroke="grey" stroke-width="2" d="M580,-719.697C580,-711.983 580,-702.712 580,-694.112"/>
<polygon fill="grey" stroke="grey" stroke-width="2" points="583.5,-694.104 580,-684.104 576.5,-694.104 583.5,-694.104"/>
</g>
<!-- 9&#45;&gt;6 -->
<g id="edge13" class="edge"><title>9&#45;&gt;6</title>
<path fill="none" stroke="grey" stroke-width="2" d="M447.91,-71.6966C441.077,-63.3046 432.743,-53.0705 425.244,-43.8613"/>
<polygon fill="grey" stroke="grey" stroke-width="2" points="427.956,-41.6487 418.928,-36.1043 422.528,-46.0687 427.956,-41.6487"/>
</g>
<!-- 20 -->
<g id="node21" class="node"><title>20</title>
<path fill="none" stroke="#56d873" stroke-width="2" d="M250.5,-324C250.5,-324 165.5,-324 165.5,-324 159.5,-324 153.5,-318 153.5,-312 153.5,-312 153.5,-300 153.5,-300 153.5,-294 159.5,-288 165.5,-288 165.5,-288 250.5,-288 250.5,-288 256.5,-288 262.5,-294 262.5,-300 262.5,-300 262.5,-312 262.5,-312 262.5,-318 256.5,-324 250.5,-324"/>
<text text-anchor="middle" x="208" y="-303.5" font-family="sans" font-size="10.00">bin_make_cov_files</text>
</g>
<!-- 10&#45;&gt;20 -->
<g id="edge31" class="edge"><title>10&#45;&gt;20</title>
<path fill="none" stroke="grey" stroke-width="2" d="M300.155,-359.876C284.056,-350.639 263.999,-339.131 246.712,-329.212"/>
<polygon fill="grey" stroke="grey" stroke-width="2" points="248.375,-326.131 237.959,-324.19 244.891,-332.202 248.375,-326.131"/>
</g>
<!-- 11 -->
<g id="node12" class="node"><title>11</title>
<path fill="none" stroke="#d8cb56" stroke-width="2" d="M539.5,-468C539.5,-468 452.5,-468 452.5,-468 446.5,-468 440.5,-462 440.5,-456 440.5,-456 440.5,-444 440.5,-444 440.5,-438 446.5,-432 452.5,-432 452.5,-432 539.5,-432 539.5,-432 545.5,-432 551.5,-438 551.5,-444 551.5,-444 551.5,-456 551.5,-456 551.5,-462 545.5,-468 539.5,-468"/>
<text text-anchor="middle" x="496" y="-453" font-family="sans" font-size="10.00">map_bowtie2_index</text>
<text text-anchor="middle" x="496" y="-442" font-family="sans" font-size="10.00">bin_sample: Vf</text>
</g>
<!-- 11&#45;&gt;2 -->
<g id="edge6" class="edge"><title>11&#45;&gt;2</title>
<path fill="none" stroke="grey" stroke-width="2" d="M486.36,-431.697C481.873,-423.644 476.441,-413.894 471.476,-404.982"/>
<polygon fill="grey" stroke="grey" stroke-width="2" points="474.454,-403.137 466.53,-396.104 468.339,-406.544 474.454,-403.137"/>
</g>
<!-- 11&#45;&gt;23 -->
<g id="edge36" class="edge"><title>11&#45;&gt;23</title>
<path fill="none" stroke="grey" stroke-width="2" d="M516.517,-431.697C526.869,-422.965 539.586,-412.24 550.839,-402.75"/>
<polygon fill="grey" stroke="grey" stroke-width="2" points="553.331,-405.227 558.719,-396.104 548.818,-399.876 553.331,-405.227"/>
</g>
<!-- 12&#45;&gt;20 -->
<g id="edge32" class="edge"><title>12&#45;&gt;20</title>
<path fill="none" stroke="grey" stroke-width="2" d="M208,-359.697C208,-351.983 208,-342.712 208,-334.112"/>
<polygon fill="grey" stroke="grey" stroke-width="2" points="211.5,-334.104 208,-324.104 204.5,-334.104 211.5,-334.104"/>
</g>
<!-- 13 -->
<g id="node14" class="node"><title>13</title>
<path fill="none" stroke="#d89556" stroke-width="2" d="M239,-252C239,-252 171,-252 171,-252 165,-252 159,-246 159,-240 159,-240 159,-228 159,-228 159,-222 165,-216 171,-216 171,-216 239,-216 239,-216 245,-216 251,-222 251,-228 251,-228 251,-240 251,-240 251,-246 245,-252 239,-252"/>
<text text-anchor="middle" x="205" y="-231.5" font-family="sans" font-size="10.00">bin_run_maxbin</text>
</g>
<!-- 13&#45;&gt;6 -->
<g id="edge14" class="edge"><title>13&#45;&gt;6</title>
<path fill="none" stroke="grey" stroke-width="2" d="M204.582,-215.961C204.807,-197.296 207.216,-166.961 219,-144 249.636,-84.3056 323.406,-48.3114 368.291,-31.1761"/>
<polygon fill="grey" stroke="grey" stroke-width="2" points="369.78,-34.3573 377.948,-27.6097 367.355,-27.7908 369.78,-34.3573"/>
</g>
<!-- 18 -->
<g id="node19" class="node"><title>18</title>
<path fill="none" stroke="#d85e56" stroke-width="2" d="M327.5,-180C327.5,-180 240.5,-180 240.5,-180 234.5,-180 228.5,-174 228.5,-168 228.5,-168 228.5,-156 228.5,-156 228.5,-150 234.5,-144 240.5,-144 240.5,-144 327.5,-144 327.5,-144 333.5,-144 339.5,-150 339.5,-156 339.5,-156 339.5,-168 339.5,-168 339.5,-174 333.5,-180 327.5,-180"/>
<text text-anchor="middle" x="284" y="-159.5" font-family="sans" font-size="10.00">summarize_maxbin</text>
</g>
<!-- 13&#45;&gt;18 -->
<g id="edge28" class="edge"><title>13&#45;&gt;18</title>
<path fill="none" stroke="grey" stroke-width="2" d="M224.528,-215.697C234.382,-206.965 246.486,-196.24 257.196,-186.75"/>
<polygon fill="grey" stroke="grey" stroke-width="2" points="259.533,-189.356 264.697,-180.104 254.891,-184.117 259.533,-189.356"/>
</g>
<!-- 14 -->
<g id="node15" class="node"><title>14</title>
<path fill="none" stroke="#56d8b9" stroke-width="2" d="M166,-540C166,-540 12,-540 12,-540 6,-540 1.42109e-14,-534 1.42109e-14,-528 1.42109e-14,-528 1.42109e-14,-516 1.42109e-14,-516 1.42109e-14,-510 6,-504 12,-504 12,-504 166,-504 166,-504 172,-504 178,-510 178,-516 178,-516 178,-528 178,-528 178,-534 172,-540 166,-540"/>
<text text-anchor="middle" x="89" y="-525" font-family="sans" font-size="10.00">assemble_simplify_fasta_headers</text>
<text text-anchor="middle" x="89" y="-514" font-family="sans" font-size="10.00">assembler: metaspades</text>
</g>
<!-- 14&#45;&gt;13 -->
<g id="edge24" class="edge"><title>14&#45;&gt;13</title>
<path fill="none" stroke="grey" stroke-width="2" d="M89.2954,-503.729C90.7493,-462.958 98.9472,-358.846 144,-288 151.069,-276.884 161.159,-266.792 171.103,-258.469"/>
<polygon fill="grey" stroke="grey" stroke-width="2" points="173.346,-261.156 178.986,-252.187 168.984,-255.682 173.346,-261.156"/>
</g>
<!-- 14&#45;&gt;20 -->
<g id="edge30" class="edge"><title>14&#45;&gt;20</title>
<path fill="none" stroke="grey" stroke-width="2" d="M93.8132,-503.953C104.245,-467.695 129.337,-384.258 146,-360 153.592,-348.948 164.05,-338.821 174.215,-330.446"/>
<polygon fill="grey" stroke="grey" stroke-width="2" points="176.554,-333.059 182.244,-324.122 172.222,-327.56 176.554,-333.059"/>
</g>
<!-- 22 -->
<g id="node23" class="node"><title>22</title>
<path fill="none" stroke="#d8cb56" stroke-width="2" d="M333.5,-468C333.5,-468 246.5,-468 246.5,-468 240.5,-468 234.5,-462 234.5,-456 234.5,-456 234.5,-444 234.5,-444 234.5,-438 240.5,-432 246.5,-432 246.5,-432 333.5,-432 333.5,-432 339.5,-432 345.5,-438 345.5,-444 345.5,-444 345.5,-456 345.5,-456 345.5,-462 339.5,-468 333.5,-468"/>
<text text-anchor="middle" x="290" y="-453" font-family="sans" font-size="10.00">map_bowtie2_index</text>
<text text-anchor="middle" x="290" y="-442" font-family="sans" font-size="10.00">bin_sample: Bs</text>
</g>
<!-- 14&#45;&gt;22 -->
<g id="edge34" class="edge"><title>14&#45;&gt;22</title>
<path fill="none" stroke="grey" stroke-width="2" d="M137.913,-503.966C165.997,-494.185 201.455,-481.836 231.068,-471.524"/>
<polygon fill="grey" stroke="grey" stroke-width="2" points="232.575,-474.705 240.868,-468.111 230.273,-468.094 232.575,-474.705"/>
</g>
<!-- 15 -->
<g id="node16" class="node"><title>15</title>
<path fill="none" stroke="#56d0d8" stroke-width="2" d="M246,-828C246,-828 166,-828 166,-828 160,-828 154,-822 154,-816 154,-816 154,-804 154,-804 154,-798 160,-792 166,-792 166,-792 246,-792 246,-792 252,-792 258,-798 258,-804 258,-804 258,-816 258,-816 258,-822 252,-828 246,-828"/>
<text text-anchor="middle" x="206" y="-813" font-family="sans" font-size="10.00">raw_combine_files</text>
<text text-anchor="middle" x="206" y="-802" font-family="sans" font-size="10.00">sample: Bs</text>
</g>
<!-- 15&#45;&gt;4 -->
<g id="edge9" class="edge"><title>15&#45;&gt;4</title>
<path fill="none" stroke="grey" stroke-width="2" d="M206,-791.697C206,-783.983 206,-774.712 206,-766.112"/>
<polygon fill="grey" stroke="grey" stroke-width="2" points="209.5,-766.104 206,-756.104 202.5,-766.104 209.5,-766.104"/>
</g>
<!-- 16&#45;&gt;9 -->
<g id="edge18" class="edge"><title>16&#45;&gt;9</title>
<path fill="none" stroke="grey" stroke-width="2" d="M523.73,-143.697C513.502,-134.965 500.939,-124.24 489.822,-114.75"/>
<polygon fill="grey" stroke="grey" stroke-width="2" points="491.915,-111.935 482.037,-108.104 487.37,-117.259 491.915,-111.935"/>
</g>
<!-- 17 -->
<g id="node18" class="node"><title>17</title>
<path fill="none" stroke="#56d0d8" stroke-width="2" d="M620,-828C620,-828 540,-828 540,-828 534,-828 528,-822 528,-816 528,-816 528,-804 528,-804 528,-798 534,-792 540,-792 540,-792 620,-792 620,-792 626,-792 632,-798 632,-804 632,-804 632,-816 632,-816 632,-822 626,-828 620,-828"/>
<text text-anchor="middle" x="580" y="-813" font-family="sans" font-size="10.00">raw_combine_files</text>
<text text-anchor="middle" x="580" y="-802" font-family="sans" font-size="10.00">sample: Vf</text>
</g>
<!-- 17&#45;&gt;8 -->
<g id="edge16" class="edge"><title>17&#45;&gt;8</title>
<path fill="none" stroke="grey" stroke-width="2" d="M580,-791.697C580,-783.983 580,-774.712 580,-766.112"/>
<polygon fill="grey" stroke="grey" stroke-width="2" points="583.5,-766.104 580,-756.104 576.5,-766.104 583.5,-766.104"/>
</g>
<!-- 24 -->
<g id="node25" class="node"><title>24</title>
<path fill="none" stroke="#d85656" stroke-width="2" d="M384.5,-108C384.5,-108 313.5,-108 313.5,-108 307.5,-108 301.5,-102 301.5,-96 301.5,-96 301.5,-84 301.5,-84 301.5,-78 307.5,-72 313.5,-72 313.5,-72 384.5,-72 384.5,-72 390.5,-72 396.5,-78 396.5,-84 396.5,-84 396.5,-96 396.5,-96 396.5,-102 390.5,-108 384.5,-108"/>
<text text-anchor="middle" x="349" y="-87.5" font-family="sans" font-size="10.00">tar_bin_cov_files</text>
</g>
<!-- 18&#45;&gt;24 -->
<g id="edge37" class="edge"><title>18&#45;&gt;24</title>
<path fill="none" stroke="grey" stroke-width="2" d="M300.067,-143.697C307.939,-135.22 317.555,-124.864 326.173,-115.583"/>
<polygon fill="grey" stroke="grey" stroke-width="2" points="328.878,-117.814 333.117,-108.104 323.748,-113.051 328.878,-117.814"/>
</g>
<!-- 19&#45;&gt;14 -->
<g id="edge26" class="edge"><title>19&#45;&gt;14</title>
<path fill="none" stroke="grey" stroke-width="2" d="M98.7865,-575.697C97.3539,-567.983 95.6323,-558.712 94.0352,-550.112"/>
<polygon fill="grey" stroke="grey" stroke-width="2" points="97.4437,-549.297 92.1765,-540.104 90.5614,-550.575 97.4437,-549.297"/>
</g>
<!-- 20&#45;&gt;13 -->
<g id="edge25" class="edge"><title>20&#45;&gt;13</title>
<path fill="none" stroke="grey" stroke-width="2" d="M207.258,-287.697C206.928,-279.983 206.531,-270.712 206.162,-262.112"/>
<polygon fill="grey" stroke="grey" stroke-width="2" points="209.658,-261.945 205.733,-252.104 202.665,-262.245 209.658,-261.945"/>
</g>
<!-- 20&#45;&gt;24 -->
<g id="edge38" class="edge"><title>20&#45;&gt;24</title>
<path fill="none" stroke="grey" stroke-width="2" d="M239.139,-287.958C273.083,-267.411 325.552,-229.39 348,-180 356.765,-160.714 356.429,-136.561 354.226,-118.284"/>
<polygon fill="grey" stroke="grey" stroke-width="2" points="357.674,-117.673 352.768,-108.283 350.748,-118.683 357.674,-117.673"/>
</g>
<!-- 21&#45;&gt;1 -->
<g id="edge2" class="edge"><title>21&#45;&gt;1</title>
<path fill="none" stroke="grey" stroke-width="2" d="M692.043,-503.974C681.313,-467.757 655.565,-384.394 639,-360 631.545,-349.022 621.305,-338.86 611.395,-330.433"/>
<polygon fill="grey" stroke="grey" stroke-width="2" points="613.54,-327.667 603.577,-324.064 609.119,-333.094 613.54,-327.667"/>
</g>
<!-- 21&#45;&gt;3 -->
<g id="edge7" class="edge"><title>21&#45;&gt;3</title>
<path fill="none" stroke="grey" stroke-width="2" d="M696.37,-503.934C694.192,-463.606 684.544,-360.38 642,-288 635.778,-277.414 626.942,-267.432 618.265,-259.046"/>
<polygon fill="grey" stroke="grey" stroke-width="2" points="620.473,-256.321 610.75,-252.112 615.726,-261.466 620.473,-256.321"/>
</g>
<!-- 21&#45;&gt;11 -->
<g id="edge21" class="edge"><title>21&#45;&gt;11</title>
<path fill="none" stroke="grey" stroke-width="2" d="M648.087,-503.966C620.003,-494.185 584.545,-481.836 554.932,-471.524"/>
<polygon fill="grey" stroke="grey" stroke-width="2" points="555.727,-468.094 545.132,-468.111 553.425,-474.705 555.727,-468.094"/>
</g>
<!-- 22&#45;&gt;10 -->
<g id="edge20" class="edge"><title>22&#45;&gt;10</title>
<path fill="none" stroke="grey" stroke-width="2" d="M299.888,-431.697C304.489,-423.644 310.06,-413.894 315.153,-404.982"/>
<polygon fill="grey" stroke="grey" stroke-width="2" points="318.304,-406.523 320.226,-396.104 312.226,-403.05 318.304,-406.523"/>
</g>
<!-- 22&#45;&gt;12 -->
<g id="edge23" class="edge"><title>22&#45;&gt;12</title>
<path fill="none" stroke="grey" stroke-width="2" d="M269.73,-431.697C259.502,-422.965 246.939,-412.24 235.822,-402.75"/>
<polygon fill="grey" stroke="grey" stroke-width="2" points="237.915,-399.935 228.037,-396.104 233.37,-405.259 237.915,-399.935"/>
</g>
<!-- 23&#45;&gt;1 -->
<g id="edge4" class="edge"><title>23&#45;&gt;1</title>
<path fill="none" stroke="grey" stroke-width="2" d="M579,-359.697C579,-351.983 579,-342.712 579,-334.112"/>
<polygon fill="grey" stroke="grey" stroke-width="2" points="582.5,-334.104 579,-324.104 575.5,-334.104 582.5,-334.104"/>
</g>
<!-- 24&#45;&gt;6 -->
<g id="edge12" class="edge"><title>24&#45;&gt;6</title>
<path fill="none" stroke="grey" stroke-width="2" d="M362.843,-71.6966C369.489,-63.3893 377.578,-53.2771 384.887,-44.1407"/>
<polygon fill="grey" stroke="grey" stroke-width="2" points="387.803,-46.0995 391.317,-36.1043 382.336,-41.7266 387.803,-46.0995"/>
</g>
</g>
</svg>
