<?xml version="1.0" encoding="UTF-8" standalone="no"?>
<!DOCTYPE svg PUBLIC "-//W3C//DTD SVG 1.1//EN"
 "http://www.w3.org/Graphics/SVG/1.1/DTD/svg11.dtd">
<!-- Generated by graphviz version 2.38.0 (20140413.2041)
 -->
<!-- Title: snakemake_dag Pages: 1 -->
<svg width="455pt" height="404pt"
 viewBox="0.00 0.00 455.00 404.00" xmlns="http://www.w3.org/2000/svg" xmlns:xlink="http://www.w3.org/1999/xlink">
<g id="graph0" class="graph" transform="scale(1 1) rotate(0) translate(4 400)">
<title>snakemake_dag</title>
<polygon fill="white" stroke="none" points="-4,4 -4,-400 451,-400 451,4 -4,4"/>
<!-- 0 -->
<g id="node1" class="node"><title>0</title>
<path fill="none" stroke="#9fd856" stroke-width="2" d="M89,-324C89,-324 15,-324 15,-324 9,-324 3,-318 3,-312 3,-312 3,-300 3,-300 3,-294 9,-288 15,-288 15,-288 89,-288 89,-288 95,-288 101,-294 101,-300 101,-300 101,-312 101,-312 101,-318 95,-324 89,-324"/>
<text text-anchor="middle" x="52" y="-309" font-family="sans" font-size="10.00">qc_atropos</text>
<text text-anchor="middle" x="52" y="-298" font-family="sans" font-size="10.00">trimmer: atropos</text>
</g>
<!-- 6 -->
<g id="node7" class="node"><title>6</title>
<path fill="none" stroke="#56b9d8" stroke-width="2" d="M95,-252C95,-252 65,-252 65,-252 59,-252 53,-246 53,-240 53,-240 53,-228 53,-228 53,-222 59,-216 65,-216 65,-216 95,-216 95,-216 101,-216 107,-222 107,-228 107,-228 107,-240 107,-240 107,-246 101,-252 95,-252"/>
<text text-anchor="middle" x="80" y="-231.5" font-family="sans" font-size="10.00">qc_filter</text>
</g>
<!-- 0&#45;&gt;6 -->
<g id="edge6" class="edge"><title>0&#45;&gt;6</title>
<path fill="none" stroke="grey" stroke-width="2" d="M58.9214,-287.697C62.0747,-279.813 65.8783,-270.304 69.3814,-261.546"/>
<polygon fill="grey" stroke="grey" stroke-width="2" points="72.694,-262.689 73.1583,-252.104 66.1946,-260.089 72.694,-262.689"/>
</g>
<!-- 8 -->
<g id="node9" class="node"><title>8</title>
<path fill="none" stroke="#56d0d8" stroke-width="2" d="M239,-36C239,-36 209,-36 209,-36 203,-36 197,-30 197,-24 197,-24 197,-12 197,-12 197,-6 203,-0 209,-0 209,-0 239,-0 239,-0 245,-0 251,-6 251,-12 251,-12 251,-24 251,-24 251,-30 245,-36 239,-36"/>
<text text-anchor="middle" x="224" y="-15.5" font-family="sans" font-size="10.00">qc</text>
</g>
<!-- 0&#45;&gt;8 -->
<g id="edge12" class="edge"><title>0&#45;&gt;8</title>
<path fill="none" stroke="grey" stroke-width="2" d="M47.7425,-287.816C43.9105,-269.8 39.5158,-240.729 44,-216 56.2813,-148.273 52.6232,-120.964 101,-72 124.403,-48.3129 160.113,-34.5418 187.037,-27.005"/>
<polygon fill="grey" stroke="grey" stroke-width="2" points="188.102,-30.344 196.882,-24.414 186.32,-23.5745 188.102,-30.344"/>
</g>
<!-- 1 -->
<g id="node2" class="node"><title>1</title>
<path fill="none" stroke="#8fd856" stroke-width="2" d="M345,-180C345,-180 245,-180 245,-180 239,-180 233,-174 233,-168 233,-168 233,-156 233,-156 233,-150 239,-144 245,-144 245,-144 345,-144 345,-144 351,-144 357,-150 357,-156 357,-156 357,-168 357,-168 357,-174 351,-180 345,-180"/>
<text text-anchor="middle" x="295" y="-159.5" font-family="sans" font-size="10.00">qc_per_sample_fastqc</text>
</g>
<!-- 2 -->
<g id="node3" class="node"><title>2</title>
<path fill="none" stroke="#d8d356" stroke-width="2" d="M277,-108C277,-108 171,-108 171,-108 165,-108 159,-102 159,-96 159,-96 159,-84 159,-84 159,-78 165,-72 171,-72 171,-72 277,-72 277,-72 283,-72 289,-78 289,-84 289,-84 289,-96 289,-96 289,-102 283,-108 277,-108"/>
<text text-anchor="middle" x="224" y="-87.5" font-family="sans" font-size="10.00">qc_per_sample_multiqc</text>
</g>
<!-- 1&#45;&gt;2 -->
<g id="edge3" class="edge"><title>1&#45;&gt;2</title>
<path fill="none" stroke="grey" stroke-width="2" d="M277.449,-143.697C268.766,-135.135 258.137,-124.656 248.652,-115.304"/>
<polygon fill="grey" stroke="grey" stroke-width="2" points="250.927,-112.633 241.349,-108.104 246.012,-117.617 250.927,-112.633"/>
</g>
<!-- 2&#45;&gt;8 -->
<g id="edge10" class="edge"><title>2&#45;&gt;8</title>
<path fill="none" stroke="grey" stroke-width="2" d="M224,-71.6966C224,-63.9827 224,-54.7125 224,-46.1124"/>
<polygon fill="grey" stroke="grey" stroke-width="2" points="227.5,-46.1043 224,-36.1043 220.5,-46.1044 227.5,-46.1043"/>
</g>
<!-- 3 -->
<g id="node4" class="node"><title>3</title>
<path fill="none" stroke="#a7d856" stroke-width="2" d="M435,-396C435,-396 355,-396 355,-396 349,-396 343,-390 343,-384 343,-384 343,-372 343,-372 343,-366 349,-360 355,-360 355,-360 435,-360 435,-360 441,-360 447,-366 447,-372 447,-372 447,-384 447,-384 447,-390 441,-396 435,-396"/>
<text text-anchor="middle" x="395" y="-381" font-family="sans" font-size="10.00">raw_combine_files</text>
<text text-anchor="middle" x="395" y="-370" font-family="sans" font-size="10.00">sample: Vf</text>
</g>
<!-- 9 -->
<g id="node10" class="node"><title>9</title>
<path fill="none" stroke="#9fd856" stroke-width="2" d="M432,-324C432,-324 358,-324 358,-324 352,-324 346,-318 346,-312 346,-312 346,-300 346,-300 346,-294 352,-288 358,-288 358,-288 432,-288 432,-288 438,-288 444,-294 444,-300 444,-300 444,-312 444,-312 444,-318 438,-324 432,-324"/>
<text text-anchor="middle" x="395" y="-309" font-family="sans" font-size="10.00">qc_atropos</text>
<text text-anchor="middle" x="395" y="-298" font-family="sans" font-size="10.00">trimmer: atropos</text>
</g>
<!-- 3&#45;&gt;9 -->
<g id="edge13" class="edge"><title>3&#45;&gt;9</title>
<path fill="none" stroke="grey" stroke-width="2" d="M395,-359.697C395,-351.983 395,-342.712 395,-334.112"/>
<polygon fill="grey" stroke="grey" stroke-width="2" points="398.5,-334.104 395,-324.104 391.5,-334.104 398.5,-334.104"/>
</g>
<!-- 4 -->
<g id="node5" class="node"><title>4</title>
<path fill="none" stroke="#8fd856" stroke-width="2" d="M203,-180C203,-180 103,-180 103,-180 97,-180 91,-174 91,-168 91,-168 91,-156 91,-156 91,-150 97,-144 103,-144 103,-144 203,-144 203,-144 209,-144 215,-150 215,-156 215,-156 215,-168 215,-168 215,-174 209,-180 203,-180"/>
<text text-anchor="middle" x="153" y="-159.5" font-family="sans" font-size="10.00">qc_per_sample_fastqc</text>
</g>
<!-- 4&#45;&gt;2 -->
<g id="edge4" class="edge"><title>4&#45;&gt;2</title>
<path fill="none" stroke="grey" stroke-width="2" d="M170.551,-143.697C179.234,-135.135 189.863,-124.656 199.348,-115.304"/>
<polygon fill="grey" stroke="grey" stroke-width="2" points="201.988,-117.617 206.651,-108.104 197.073,-112.633 201.988,-117.617"/>
</g>
<!-- 5 -->
<g id="node6" class="node"><title>5</title>
<path fill="none" stroke="#a7d856" stroke-width="2" d="M92,-396C92,-396 12,-396 12,-396 6,-396 0,-390 0,-384 0,-384 0,-372 0,-372 0,-366 6,-360 12,-360 12,-360 92,-360 92,-360 98,-360 104,-366 104,-372 104,-372 104,-384 104,-384 104,-390 98,-396 92,-396"/>
<text text-anchor="middle" x="52" y="-381" font-family="sans" font-size="10.00">raw_combine_files</text>
<text text-anchor="middle" x="52" y="-370" font-family="sans" font-size="10.00">sample: Bs</text>
</g>
<!-- 5&#45;&gt;0 -->
<g id="edge1" class="edge"><title>5&#45;&gt;0</title>
<path fill="none" stroke="grey" stroke-width="2" d="M52,-359.697C52,-351.983 52,-342.712 52,-334.112"/>
<polygon fill="grey" stroke="grey" stroke-width="2" points="55.5001,-334.104 52,-324.104 48.5001,-334.104 55.5001,-334.104"/>
</g>
<!-- 6&#45;&gt;4 -->
<g id="edge5" class="edge"><title>6&#45;&gt;4</title>
<path fill="none" stroke="grey" stroke-width="2" d="M98.0449,-215.697C107.062,-207.05 118.118,-196.449 127.943,-187.027"/>
<polygon fill="grey" stroke="grey" stroke-width="2" points="130.367,-189.552 135.163,-180.104 125.522,-184.499 130.367,-189.552"/>
</g>
<!-- 6&#45;&gt;8 -->
<g id="edge9" class="edge"><title>6&#45;&gt;8</title>
<path fill="none" stroke="grey" stroke-width="2" d="M76.8587,-215.863C74.2588,-197.378 72.3717,-167.447 82,-144 102.042,-95.1933 152.847,-58.4184 187.915,-37.794"/>
<polygon fill="grey" stroke="grey" stroke-width="2" points="189.961,-40.6561 196.905,-32.6548 186.487,-34.5788 189.961,-40.6561"/>
</g>
<!-- 7 -->
<g id="node8" class="node"><title>7</title>
<path fill="none" stroke="#56b9d8" stroke-width="2" d="M383,-252C383,-252 353,-252 353,-252 347,-252 341,-246 341,-240 341,-240 341,-228 341,-228 341,-222 347,-216 353,-216 353,-216 383,-216 383,-216 389,-216 395,-222 395,-228 395,-228 395,-240 395,-240 395,-246 389,-252 383,-252"/>
<text text-anchor="middle" x="368" y="-231.5" font-family="sans" font-size="10.00">qc_filter</text>
</g>
<!-- 7&#45;&gt;1 -->
<g id="edge2" class="edge"><title>7&#45;&gt;1</title>
<path fill="none" stroke="grey" stroke-width="2" d="M349.955,-215.697C340.938,-207.05 329.882,-196.449 320.057,-187.027"/>
<polygon fill="grey" stroke="grey" stroke-width="2" points="322.478,-184.499 312.837,-180.104 317.633,-189.552 322.478,-184.499"/>
</g>
<!-- 7&#45;&gt;8 -->
<g id="edge8" class="edge"><title>7&#45;&gt;8</title>
<path fill="none" stroke="grey" stroke-width="2" d="M371.141,-215.863C373.741,-197.378 375.628,-167.447 366,-144 345.958,-95.1933 295.153,-58.4184 260.085,-37.794"/>
<polygon fill="grey" stroke="grey" stroke-width="2" points="261.513,-34.5788 251.095,-32.6548 258.039,-40.6561 261.513,-34.5788"/>
</g>
<!-- 9&#45;&gt;7 -->
<g id="edge7" class="edge"><title>9&#45;&gt;7</title>
<path fill="none" stroke="grey" stroke-width="2" d="M388.326,-287.697C385.285,-279.813 381.617,-270.304 378.239,-261.546"/>
<polygon fill="grey" stroke="grey" stroke-width="2" points="381.462,-260.175 374.597,-252.104 374.931,-262.694 381.462,-260.175"/>
</g>
<!-- 9&#45;&gt;8 -->
<g id="edge11" class="edge"><title>9&#45;&gt;8</title>
<path fill="none" stroke="grey" stroke-width="2" d="M399.188,-287.887C403.009,-269.931 407.558,-240.906 404,-216 394.121,-146.845 392.867,-118.795 341,-72 318.153,-51.3878 285.943,-37.5977 261.101,-29.2638"/>
<polygon fill="grey" stroke="grey" stroke-width="2" points="261.888,-25.8407 251.297,-26.1263 259.754,-32.5077 261.888,-25.8407"/>
</g>
</g>
</svg>
