<?xml version="1.0" encoding="UTF-8" standalone="no"?>
<!DOCTYPE svg PUBLIC "-//W3C//DTD SVG 1.1//EN"
 "http://www.w3.org/Graphics/SVG/1.1/DTD/svg11.dtd">
<!-- Generated by graphviz version 2.38.0 (20140413.2041)
 -->
<!-- Title: snakemake_dag Pages: 1 -->
<svg width="765pt" height="476pt"
 viewBox="0.00 0.00 764.95 476.00" xmlns="http://www.w3.org/2000/svg" xmlns:xlink="http://www.w3.org/1999/xlink">
<g id="graph0" class="graph" transform="scale(1 1) rotate(0) translate(4 472)">
<title>snakemake_dag</title>
<polygon fill="white" stroke="none" points="-4,4 -4,-472 760.949,-472 760.949,4 -4,4"/>
<!-- 0 -->
<g id="node1" class="node"><title>0</title>
<path fill="none" stroke="#56c9d8" stroke-width="2" d="M655.95,-396C655.95,-396 581.95,-396 581.95,-396 575.95,-396 569.95,-390 569.95,-384 569.95,-384 569.95,-372 569.95,-372 569.95,-366 575.95,-360 581.95,-360 581.95,-360 655.95,-360 655.95,-360 661.95,-360 667.95,-366 667.95,-372 667.95,-372 667.95,-384 667.95,-384 667.95,-390 661.95,-396 655.95,-396"/>
<text text-anchor="middle" x="618.95" y="-381" font-family="sans" font-size="10.00">qc_atropos</text>
<text text-anchor="middle" x="618.95" y="-370" font-family="sans" font-size="10.00">trimmer: atropos</text>
</g>
<!-- 1 -->
<g id="node2" class="node"><title>1</title>
<path fill="none" stroke="#d8b456" stroke-width="2" d="M633.95,-324C633.95,-324 603.95,-324 603.95,-324 597.95,-324 591.95,-318 591.95,-312 591.95,-312 591.95,-300 591.95,-300 591.95,-294 597.95,-288 603.95,-288 603.95,-288 633.95,-288 633.95,-288 639.95,-288 645.95,-294 645.95,-300 645.95,-300 645.95,-312 645.95,-312 645.95,-318 639.95,-324 633.95,-324"/>
<text text-anchor="middle" x="618.95" y="-303.5" font-family="sans" font-size="10.00">qc_filter</text>
</g>
<!-- 0&#45;&gt;1 -->
<g id="edge2" class="edge"><title>0&#45;&gt;1</title>
<path fill="none" stroke="grey" stroke-width="2" d="M618.95,-359.697C618.95,-351.983 618.95,-342.712 618.95,-334.112"/>
<polygon fill="grey" stroke="grey" stroke-width="2" points="622.45,-334.104 618.95,-324.104 615.45,-334.104 622.45,-334.104"/>
</g>
<!-- 11 -->
<g id="node12" class="node"><title>11</title>
<path fill="none" stroke="#68d856" stroke-width="2" d="M602.95,-252C602.95,-252 498.95,-252 498.95,-252 492.95,-252 486.95,-246 486.95,-240 486.95,-240 486.95,-228 486.95,-228 486.95,-222 492.95,-216 498.95,-216 498.95,-216 602.95,-216 602.95,-216 608.95,-216 614.95,-222 614.95,-228 614.95,-228 614.95,-240 614.95,-240 614.95,-246 608.95,-252 602.95,-252"/>
<text text-anchor="middle" x="550.95" y="-231.5" font-family="sans" font-size="10.00">assemble_metaspades</text>
</g>
<!-- 1&#45;&gt;11 -->
<g id="edge21" class="edge"><title>1&#45;&gt;11</title>
<path fill="none" stroke="grey" stroke-width="2" d="M602.141,-287.697C593.824,-279.135 583.644,-268.656 574.56,-259.304"/>
<polygon fill="grey" stroke="grey" stroke-width="2" points="577.044,-256.838 567.565,-252.104 572.023,-261.716 577.044,-256.838"/>
</g>
<!-- 15 -->
<g id="node16" class="node"><title>15</title>
<path fill="none" stroke="#d89c56" stroke-width="2" d="M728.95,-252C728.95,-252 644.95,-252 644.95,-252 638.95,-252 632.95,-246 632.95,-240 632.95,-240 632.95,-228 632.95,-228 632.95,-222 638.95,-216 644.95,-216 644.95,-216 728.95,-216 728.95,-216 734.95,-216 740.95,-222 740.95,-228 740.95,-228 740.95,-240 740.95,-240 740.95,-246 734.95,-252 728.95,-252"/>
<text text-anchor="middle" x="686.95" y="-231.5" font-family="sans" font-size="10.00">assemble_megahit</text>
</g>
<!-- 1&#45;&gt;15 -->
<g id="edge27" class="edge"><title>1&#45;&gt;15</title>
<path fill="none" stroke="grey" stroke-width="2" d="M635.759,-287.697C644.076,-279.135 654.255,-268.656 663.34,-259.304"/>
<polygon fill="grey" stroke="grey" stroke-width="2" points="665.877,-261.716 670.334,-252.104 660.856,-256.838 665.877,-261.716"/>
</g>
<!-- 2 -->
<g id="node3" class="node"><title>2</title>
<path fill="none" stroke="#d86656" stroke-width="2" d="M658.95,-468C658.95,-468 578.95,-468 578.95,-468 572.95,-468 566.95,-462 566.95,-456 566.95,-456 566.95,-444 566.95,-444 566.95,-438 572.95,-432 578.95,-432 578.95,-432 658.95,-432 658.95,-432 664.95,-432 670.95,-438 670.95,-444 670.95,-444 670.95,-456 670.95,-456 670.95,-462 664.95,-468 658.95,-468"/>
<text text-anchor="middle" x="618.95" y="-453" font-family="sans" font-size="10.00">raw_combine_files</text>
<text text-anchor="middle" x="618.95" y="-442" font-family="sans" font-size="10.00">sample: Vf</text>
</g>
<!-- 2&#45;&gt;0 -->
<g id="edge1" class="edge"><title>2&#45;&gt;0</title>
<path fill="none" stroke="grey" stroke-width="2" d="M618.95,-431.697C618.95,-423.983 618.95,-414.712 618.95,-406.112"/>
<polygon fill="grey" stroke="grey" stroke-width="2" points="622.45,-406.104 618.95,-396.104 615.45,-406.104 622.45,-406.104"/>
</g>
<!-- 3 -->
<g id="node4" class="node"><title>3</title>
<path fill="none" stroke="#d86656" stroke-width="2" d="M178.95,-468C178.95,-468 98.9497,-468 98.9497,-468 92.9497,-468 86.9497,-462 86.9497,-456 86.9497,-456 86.9497,-444 86.9497,-444 86.9497,-438 92.9497,-432 98.9497,-432 98.9497,-432 178.95,-432 178.95,-432 184.95,-432 190.95,-438 190.95,-444 190.95,-444 190.95,-456 190.95,-456 190.95,-462 184.95,-468 178.95,-468"/>
<text text-anchor="middle" x="138.95" y="-453" font-family="sans" font-size="10.00">raw_combine_files</text>
<text text-anchor="middle" x="138.95" y="-442" font-family="sans" font-size="10.00">sample: Bs</text>
</g>
<!-- 4 -->
<g id="node5" class="node"><title>4</title>
<path fill="none" stroke="#56c9d8" stroke-width="2" d="M175.95,-396C175.95,-396 101.95,-396 101.95,-396 95.9497,-396 89.9497,-390 89.9497,-384 89.9497,-384 89.9497,-372 89.9497,-372 89.9497,-366 95.9497,-360 101.95,-360 101.95,-360 175.95,-360 175.95,-360 181.95,-360 187.95,-366 187.95,-372 187.95,-372 187.95,-384 187.95,-384 187.95,-390 181.95,-396 175.95,-396"/>
<text text-anchor="middle" x="138.95" y="-381" font-family="sans" font-size="10.00">qc_atropos</text>
<text text-anchor="middle" x="138.95" y="-370" font-family="sans" font-size="10.00">trimmer: atropos</text>
</g>
<!-- 3&#45;&gt;4 -->
<g id="edge3" class="edge"><title>3&#45;&gt;4</title>
<path fill="none" stroke="grey" stroke-width="2" d="M138.95,-431.697C138.95,-423.983 138.95,-414.712 138.95,-406.112"/>
<polygon fill="grey" stroke="grey" stroke-width="2" points="142.45,-406.104 138.95,-396.104 135.45,-406.104 142.45,-406.104"/>
</g>
<!-- 12 -->
<g id="node13" class="node"><title>12</title>
<path fill="none" stroke="#d8b456" stroke-width="2" d="M153.95,-324C153.95,-324 123.95,-324 123.95,-324 117.95,-324 111.95,-318 111.95,-312 111.95,-312 111.95,-300 111.95,-300 111.95,-294 117.95,-288 123.95,-288 123.95,-288 153.95,-288 153.95,-288 159.95,-288 165.95,-294 165.95,-300 165.95,-300 165.95,-312 165.95,-312 165.95,-318 159.95,-324 153.95,-324"/>
<text text-anchor="middle" x="138.95" y="-303.5" font-family="sans" font-size="10.00">qc_filter</text>
</g>
<!-- 4&#45;&gt;12 -->
<g id="edge22" class="edge"><title>4&#45;&gt;12</title>
<path fill="none" stroke="grey" stroke-width="2" d="M138.95,-359.697C138.95,-351.983 138.95,-342.712 138.95,-334.112"/>
<polygon fill="grey" stroke="grey" stroke-width="2" points="142.45,-334.104 138.95,-324.104 135.45,-334.104 142.45,-334.104"/>
</g>
<!-- 5 -->
<g id="node6" class="node"><title>5</title>
<path fill="none" stroke="#68d856" stroke-width="2" d="M122.95,-252C122.95,-252 18.9497,-252 18.9497,-252 12.9497,-252 6.94966,-246 6.94966,-240 6.94966,-240 6.94966,-228 6.94966,-228 6.94966,-222 12.9497,-216 18.9497,-216 18.9497,-216 122.95,-216 122.95,-216 128.95,-216 134.95,-222 134.95,-228 134.95,-228 134.95,-240 134.95,-240 134.95,-246 128.95,-252 122.95,-252"/>
<text text-anchor="middle" x="70.9497" y="-231.5" font-family="sans" font-size="10.00">assemble_metaspades</text>
</g>
<!-- 6 -->
<g id="node7" class="node"><title>6</title>
<path fill="none" stroke="#70d856" stroke-width="2" d="M124.45,-180C124.45,-180 27.4497,-180 27.4497,-180 21.4497,-180 15.4497,-174 15.4497,-168 15.4497,-168 15.4497,-156 15.4497,-156 15.4497,-150 21.4497,-144 27.4497,-144 27.4497,-144 124.45,-144 124.45,-144 130.45,-144 136.45,-150 136.45,-156 136.45,-156 136.45,-168 136.45,-168 136.45,-174 130.45,-180 124.45,-180"/>
<text text-anchor="middle" x="75.9497" y="-159.5" font-family="sans" font-size="10.00">assemble_metaquast</text>
</g>
<!-- 5&#45;&gt;6 -->
<g id="edge6" class="edge"><title>5&#45;&gt;6</title>
<path fill="none" stroke="grey" stroke-width="2" d="M72.1856,-215.697C72.7366,-207.983 73.3988,-198.712 74.0131,-190.112"/>
<polygon fill="grey" stroke="grey" stroke-width="2" points="77.5065,-190.328 74.7279,-180.104 70.5242,-189.83 77.5065,-190.328"/>
</g>
<!-- 10 -->
<g id="node11" class="node"><title>10</title>
<path fill="none" stroke="#5682d8" stroke-width="2" d="M398.45,-36C398.45,-36 359.45,-36 359.45,-36 353.45,-36 347.45,-30 347.45,-24 347.45,-24 347.45,-12 347.45,-12 347.45,-6 353.45,-0 359.45,-0 359.45,-0 398.45,-0 398.45,-0 404.45,-0 410.45,-6 410.45,-12 410.45,-12 410.45,-24 410.45,-24 410.45,-30 404.45,-36 398.45,-36"/>
<text text-anchor="middle" x="378.95" y="-15.5" font-family="sans" font-size="10.00">assemble</text>
</g>
<!-- 5&#45;&gt;10 -->
<g id="edge19" class="edge"><title>5&#45;&gt;10</title>
<path fill="none" stroke="grey" stroke-width="2" d="M39.3701,-215.776C26.4997,-206.931 13.008,-194.863 5.94966,-180 -0.914155,-165.547 -2.51775,-157.576 5.94966,-144 41.9333,-86.3072 247.594,-42.7399 337.215,-26.2269"/>
<polygon fill="grey" stroke="grey" stroke-width="2" points="338.084,-29.6263 347.296,-24.3935 336.831,-22.7393 338.084,-29.6263"/>
</g>
<!-- 13 -->
<g id="node14" class="node"><title>13</title>
<path fill="none" stroke="#5692d8" stroke-width="2" d="M237.45,-180C237.45,-180 166.45,-180 166.45,-180 160.45,-180 154.45,-174 154.45,-168 154.45,-168 154.45,-156 154.45,-156 154.45,-150 160.45,-144 166.45,-144 166.45,-144 237.45,-144 237.45,-144 243.45,-144 249.45,-150 249.45,-156 249.45,-156 249.45,-168 249.45,-168 249.45,-174 243.45,-180 237.45,-180"/>
<text text-anchor="middle" x="201.95" y="-159.5" font-family="sans" font-size="10.00">assemble_quast</text>
</g>
<!-- 5&#45;&gt;13 -->
<g id="edge24" class="edge"><title>5&#45;&gt;13</title>
<path fill="none" stroke="grey" stroke-width="2" d="M102.996,-215.876C120.441,-206.554 142.215,-194.919 160.892,-184.939"/>
<polygon fill="grey" stroke="grey" stroke-width="2" points="162.61,-187.99 169.78,-180.19 159.311,-181.816 162.61,-187.99"/>
</g>
<!-- 6&#45;&gt;10 -->
<g id="edge13" class="edge"><title>6&#45;&gt;10</title>
<path fill="none" stroke="grey" stroke-width="2" d="M100.522,-143.837C128.991,-124.503 177.787,-93.0391 222.95,-72 260.501,-54.5067 305.492,-39.8438 337.487,-30.4075"/>
<polygon fill="grey" stroke="grey" stroke-width="2" points="338.765,-33.6808 347.392,-27.5304 336.813,-26.9586 338.765,-33.6808"/>
</g>
<!-- 7 -->
<g id="node8" class="node"><title>7</title>
<path fill="none" stroke="#70d856" stroke-width="2" d="M730.45,-180C730.45,-180 633.45,-180 633.45,-180 627.45,-180 621.45,-174 621.45,-168 621.45,-168 621.45,-156 621.45,-156 621.45,-150 627.45,-144 633.45,-144 633.45,-144 730.45,-144 730.45,-144 736.45,-144 742.45,-150 742.45,-156 742.45,-156 742.45,-168 742.45,-168 742.45,-174 736.45,-180 730.45,-180"/>
<text text-anchor="middle" x="681.95" y="-159.5" font-family="sans" font-size="10.00">assemble_metaquast</text>
</g>
<!-- 7&#45;&gt;10 -->
<g id="edge12" class="edge"><title>7&#45;&gt;10</title>
<path fill="none" stroke="grey" stroke-width="2" d="M656.799,-143.927C627.677,-124.675 577.82,-93.2865 531.95,-72 495.365,-55.0226 451.731,-40.4279 420.441,-30.8777"/>
<polygon fill="grey" stroke="grey" stroke-width="2" points="421.324,-27.4885 410.739,-27.9576 419.306,-34.1914 421.324,-27.4885"/>
</g>
<!-- 8 -->
<g id="node9" class="node"><title>8</title>
<path fill="none" stroke="#5692d8" stroke-width="2" d="M591.45,-180C591.45,-180 520.45,-180 520.45,-180 514.45,-180 508.45,-174 508.45,-168 508.45,-168 508.45,-156 508.45,-156 508.45,-150 514.45,-144 520.45,-144 520.45,-144 591.45,-144 591.45,-144 597.45,-144 603.45,-150 603.45,-156 603.45,-156 603.45,-168 603.45,-168 603.45,-174 597.45,-180 591.45,-180"/>
<text text-anchor="middle" x="555.95" y="-159.5" font-family="sans" font-size="10.00">assemble_quast</text>
</g>
<!-- 8&#45;&gt;10 -->
<g id="edge14" class="edge"><title>8&#45;&gt;10</title>
<path fill="none" stroke="grey" stroke-width="2" d="M549.742,-143.72C541.863,-123.982 526.522,-91.8584 503.95,-72 480.018,-50.946 446.492,-37.3464 420.184,-29.2005"/>
<polygon fill="grey" stroke="grey" stroke-width="2" points="421.072,-25.8133 410.49,-26.3413 419.091,-32.5273 421.072,-25.8133"/>
</g>
<!-- 14 -->
<g id="node15" class="node"><title>14</title>
<path fill="none" stroke="#d85656" stroke-width="2" d="M449.45,-108C449.45,-108 308.45,-108 308.45,-108 302.45,-108 296.45,-102 296.45,-96 296.45,-96 296.45,-84 296.45,-84 296.45,-78 302.45,-72 308.45,-72 308.45,-72 449.45,-72 449.45,-72 455.45,-72 461.45,-78 461.45,-84 461.45,-84 461.45,-96 461.45,-96 461.45,-102 455.45,-108 449.45,-108"/>
<text text-anchor="middle" x="378.95" y="-87.5" font-family="sans" font-size="10.00">assemble_per_sample_multiqc</text>
</g>
<!-- 8&#45;&gt;14 -->
<g id="edge25" class="edge"><title>8&#45;&gt;14</title>
<path fill="none" stroke="grey" stroke-width="2" d="M512.651,-143.876C488.239,-134.222 457.554,-122.087 431.74,-111.878"/>
<polygon fill="grey" stroke="grey" stroke-width="2" points="432.695,-108.491 422.108,-108.068 430.12,-115.001 432.695,-108.491"/>
</g>
<!-- 9 -->
<g id="node10" class="node"><title>9</title>
<path fill="none" stroke="#d89c56" stroke-width="2" d="M248.95,-252C248.95,-252 164.95,-252 164.95,-252 158.95,-252 152.95,-246 152.95,-240 152.95,-240 152.95,-228 152.95,-228 152.95,-222 158.95,-216 164.95,-216 164.95,-216 248.95,-216 248.95,-216 254.95,-216 260.95,-222 260.95,-228 260.95,-228 260.95,-240 260.95,-240 260.95,-246 254.95,-252 248.95,-252"/>
<text text-anchor="middle" x="206.95" y="-231.5" font-family="sans" font-size="10.00">assemble_megahit</text>
</g>
<!-- 9&#45;&gt;6 -->
<g id="edge5" class="edge"><title>9&#45;&gt;6</title>
<path fill="none" stroke="grey" stroke-width="2" d="M174.903,-215.876C157.458,-206.554 135.685,-194.919 117.007,-184.939"/>
<polygon fill="grey" stroke="grey" stroke-width="2" points="118.588,-181.816 108.119,-180.19 115.289,-187.99 118.588,-181.816"/>
</g>
<!-- 9&#45;&gt;10 -->
<g id="edge15" class="edge"><title>9&#45;&gt;10</title>
<path fill="none" stroke="grey" stroke-width="2" d="M227.943,-215.787C238.345,-206.237 250.287,-193.564 257.95,-180 282.396,-136.728 256.665,-111.408 286.95,-72 299.958,-55.0733 320.025,-42.6147 338.102,-34.0457"/>
<polygon fill="grey" stroke="grey" stroke-width="2" points="339.629,-37.1969 347.326,-29.9162 336.769,-30.808 339.629,-37.1969"/>
</g>
<!-- 9&#45;&gt;13 -->
<g id="edge23" class="edge"><title>9&#45;&gt;13</title>
<path fill="none" stroke="grey" stroke-width="2" d="M205.714,-215.697C205.163,-207.983 204.501,-198.712 203.886,-190.112"/>
<polygon fill="grey" stroke="grey" stroke-width="2" points="207.375,-189.83 203.171,-180.104 200.393,-190.328 207.375,-189.83"/>
</g>
<!-- 11&#45;&gt;7 -->
<g id="edge8" class="edge"><title>11&#45;&gt;7</title>
<path fill="none" stroke="grey" stroke-width="2" d="M582.996,-215.876C600.441,-206.554 622.215,-194.919 640.892,-184.939"/>
<polygon fill="grey" stroke="grey" stroke-width="2" points="642.61,-187.99 649.78,-180.19 639.311,-181.816 642.61,-187.99"/>
</g>
<!-- 11&#45;&gt;8 -->
<g id="edge10" class="edge"><title>11&#45;&gt;8</title>
<path fill="none" stroke="grey" stroke-width="2" d="M552.186,-215.697C552.737,-207.983 553.399,-198.712 554.013,-190.112"/>
<polygon fill="grey" stroke="grey" stroke-width="2" points="557.506,-190.328 554.728,-180.104 550.524,-189.83 557.506,-190.328"/>
</g>
<!-- 11&#45;&gt;10 -->
<g id="edge18" class="edge"><title>11&#45;&gt;10</title>
<path fill="none" stroke="grey" stroke-width="2" d="M529.536,-215.862C518.927,-206.332 506.752,-193.655 498.95,-180 474.293,-136.847 500.141,-111.479 469.95,-72 457.299,-55.4575 437.89,-43.1433 420.242,-34.5697"/>
<polygon fill="grey" stroke="grey" stroke-width="2" points="421.222,-31.1689 410.672,-30.1883 418.307,-37.5335 421.222,-31.1689"/>
</g>
<!-- 12&#45;&gt;5 -->
<g id="edge4" class="edge"><title>12&#45;&gt;5</title>
<path fill="none" stroke="grey" stroke-width="2" d="M122.141,-287.697C113.824,-279.135 103.644,-268.656 94.5597,-259.304"/>
<polygon fill="grey" stroke="grey" stroke-width="2" points="97.0437,-256.838 87.5653,-252.104 92.0227,-261.716 97.0437,-256.838"/>
</g>
<!-- 12&#45;&gt;9 -->
<g id="edge11" class="edge"><title>12&#45;&gt;9</title>
<path fill="none" stroke="grey" stroke-width="2" d="M155.759,-287.697C164.076,-279.135 174.255,-268.656 183.34,-259.304"/>
<polygon fill="grey" stroke="grey" stroke-width="2" points="185.877,-261.716 190.334,-252.104 180.856,-256.838 185.877,-261.716"/>
</g>
<!-- 13&#45;&gt;10 -->
<g id="edge17" class="edge"><title>13&#45;&gt;10</title>
<path fill="none" stroke="grey" stroke-width="2" d="M208.157,-143.72C216.037,-123.982 231.377,-91.8584 253.95,-72 277.881,-50.946 311.407,-37.3464 337.715,-29.2005"/>
<polygon fill="grey" stroke="grey" stroke-width="2" points="338.808,-32.5273 347.409,-26.3413 336.828,-25.8133 338.808,-32.5273"/>
</g>
<!-- 13&#45;&gt;14 -->
<g id="edge26" class="edge"><title>13&#45;&gt;14</title>
<path fill="none" stroke="grey" stroke-width="2" d="M245.249,-143.876C269.661,-134.222 300.345,-122.087 326.159,-111.878"/>
<polygon fill="grey" stroke="grey" stroke-width="2" points="327.779,-115.001 335.791,-108.068 325.205,-108.491 327.779,-115.001"/>
</g>
<!-- 14&#45;&gt;10 -->
<g id="edge20" class="edge"><title>14&#45;&gt;10</title>
<path fill="none" stroke="grey" stroke-width="2" d="M378.95,-71.6966C378.95,-63.9827 378.95,-54.7125 378.95,-46.1124"/>
<polygon fill="grey" stroke="grey" stroke-width="2" points="382.45,-46.1043 378.95,-36.1043 375.45,-46.1044 382.45,-46.1043"/>
</g>
<!-- 15&#45;&gt;7 -->
<g id="edge7" class="edge"><title>15&#45;&gt;7</title>
<path fill="none" stroke="grey" stroke-width="2" d="M685.714,-215.697C685.163,-207.983 684.501,-198.712 683.886,-190.112"/>
<polygon fill="grey" stroke="grey" stroke-width="2" points="687.375,-189.83 683.171,-180.104 680.393,-190.328 687.375,-189.83"/>
</g>
<!-- 15&#45;&gt;8 -->
<g id="edge9" class="edge"><title>15&#45;&gt;8</title>
<path fill="none" stroke="grey" stroke-width="2" d="M654.903,-215.876C637.458,-206.554 615.685,-194.919 597.007,-184.939"/>
<polygon fill="grey" stroke="grey" stroke-width="2" points="598.588,-181.816 588.119,-180.19 595.289,-187.99 598.588,-181.816"/>
</g>
<!-- 15&#45;&gt;10 -->
<g id="edge16" class="edge"><title>15&#45;&gt;10</title>
<path fill="none" stroke="grey" stroke-width="2" d="M717.719,-215.907C730.494,-207.021 743.951,-194.883 750.95,-180 757.758,-165.521 759.8,-157.329 750.95,-144 677.823,-33.8648 501.835,-18.8729 420.927,-18.0676"/>
<polygon fill="grey" stroke="grey" stroke-width="2" points="420.632,-14.5669 410.622,-18.0376 420.612,-21.5668 420.632,-14.5669"/>
</g>
</g>
</svg>
