<?xml version="1.0" encoding="UTF-8" standalone="no"?>
<!DOCTYPE svg PUBLIC "-//W3C//DTD SVG 1.1//EN"
 "http://www.w3.org/Graphics/SVG/1.1/DTD/svg11.dtd">
<!-- Generated by graphviz version 2.38.0 (20140413.2041)
 -->
<!-- Title: snakemake_dag Pages: 1 -->
<svg width="848pt" height="764pt"
 viewBox="0.00 0.00 848.20 764.00" xmlns="http://www.w3.org/2000/svg" xmlns:xlink="http://www.w3.org/1999/xlink">
<g id="graph0" class="graph" transform="scale(1 1) rotate(0) translate(4 760)">
<title>snakemake_dag</title>
<polygon fill="white" stroke="none" points="-4,4 -4,-760 844.195,-760 844.195,4 -4,4"/>
<!-- 0 -->
<g id="node1" class="node"><title>0</title>
<path fill="none" stroke="#8fd856" stroke-width="2" d="M257.695,-108C257.695,-108 69.6953,-108 69.6953,-108 63.6953,-108 57.6953,-102 57.6953,-96 57.6953,-96 57.6953,-84 57.6953,-84 57.6953,-78 63.6953,-72 69.6953,-72 69.6953,-72 257.695,-72 257.695,-72 263.695,-72 269.695,-78 269.695,-84 269.695,-84 269.695,-96 269.695,-96 269.695,-102 263.695,-108 257.695,-108"/>
<text text-anchor="middle" x="163.695" y="-93" font-family="sans" font-size="10.00">function_humann2_split_stratified_tables</text>
<text text-anchor="middle" x="163.695" y="-82" font-family="sans" font-size="10.00">mapped: mapped</text>
</g>
<!-- 12 -->
<g id="node13" class="node"><title>12</title>
<path fill="none" stroke="#56d8c1" stroke-width="2" d="M476.195,-36C476.195,-36 445.195,-36 445.195,-36 439.195,-36 433.195,-30 433.195,-24 433.195,-24 433.195,-12 433.195,-12 433.195,-6 439.195,-0 445.195,-0 445.195,-0 476.195,-0 476.195,-0 482.195,-0 488.195,-6 488.195,-12 488.195,-12 488.195,-24 488.195,-24 488.195,-30 482.195,-36 476.195,-36"/>
<text text-anchor="middle" x="460.695" y="-15.5" font-family="sans" font-size="10.00">function</text>
</g>
<!-- 0&#45;&gt;12 -->
<g id="edge14" class="edge"><title>0&#45;&gt;12</title>
<path fill="none" stroke="grey" stroke-width="2" d="M235.97,-71.9656C295.034,-58.0448 376.169,-38.9219 423.06,-27.8704"/>
<polygon fill="grey" stroke="grey" stroke-width="2" points="424.156,-31.2079 433.086,-25.5071 422.55,-24.3946 424.156,-31.2079"/>
</g>
<!-- 1 -->
<g id="node2" class="node"><title>1</title>
<path fill="none" stroke="#8fd856" stroke-width="2" d="M487.695,-108C487.695,-108 299.695,-108 299.695,-108 293.695,-108 287.695,-102 287.695,-96 287.695,-96 287.695,-84 287.695,-84 287.695,-78 293.695,-72 299.695,-72 299.695,-72 487.695,-72 487.695,-72 493.695,-72 499.695,-78 499.695,-84 499.695,-84 499.695,-96 499.695,-96 499.695,-102 493.695,-108 487.695,-108"/>
<text text-anchor="middle" x="393.695" y="-93" font-family="sans" font-size="10.00">function_humann2_split_stratified_tables</text>
<text text-anchor="middle" x="393.695" y="-82" font-family="sans" font-size="10.00">mapped: all</text>
</g>
<!-- 1&#45;&gt;12 -->
<g id="edge15" class="edge"><title>1&#45;&gt;12</title>
<path fill="none" stroke="grey" stroke-width="2" d="M410.257,-71.6966C418.371,-63.2198 428.283,-52.8636 437.166,-43.5826"/>
<polygon fill="grey" stroke="grey" stroke-width="2" points="439.938,-45.7486 444.324,-36.1043 434.881,-40.9084 439.938,-45.7486"/>
</g>
<!-- 2 -->
<g id="node3" class="node"><title>2</title>
<path fill="none" stroke="#56d89a" stroke-width="2" d="M556.695,-684C556.695,-684 482.695,-684 482.695,-684 476.695,-684 470.695,-678 470.695,-672 470.695,-672 470.695,-660 470.695,-660 470.695,-654 476.695,-648 482.695,-648 482.695,-648 556.695,-648 556.695,-648 562.695,-648 568.695,-654 568.695,-660 568.695,-660 568.695,-672 568.695,-672 568.695,-678 562.695,-684 556.695,-684"/>
<text text-anchor="middle" x="519.695" y="-669" font-family="sans" font-size="10.00">qc_atropos</text>
<text text-anchor="middle" x="519.695" y="-658" font-family="sans" font-size="10.00">trimmer: atropos</text>
</g>
<!-- 10 -->
<g id="node11" class="node"><title>10</title>
<path fill="none" stroke="#88d856" stroke-width="2" d="M534.695,-612C534.695,-612 504.695,-612 504.695,-612 498.695,-612 492.695,-606 492.695,-600 492.695,-600 492.695,-588 492.695,-588 492.695,-582 498.695,-576 504.695,-576 504.695,-576 534.695,-576 534.695,-576 540.695,-576 546.695,-582 546.695,-588 546.695,-588 546.695,-600 546.695,-600 546.695,-606 540.695,-612 534.695,-612"/>
<text text-anchor="middle" x="519.695" y="-591.5" font-family="sans" font-size="10.00">qc_filter</text>
</g>
<!-- 2&#45;&gt;10 -->
<g id="edge12" class="edge"><title>2&#45;&gt;10</title>
<path fill="none" stroke="grey" stroke-width="2" d="M519.695,-647.697C519.695,-639.983 519.695,-630.712 519.695,-622.112"/>
<polygon fill="grey" stroke="grey" stroke-width="2" points="523.195,-622.104 519.695,-612.104 516.195,-622.104 523.195,-622.104"/>
</g>
<!-- 3 -->
<g id="node4" class="node"><title>3</title>
<path fill="none" stroke="#b6d856" stroke-width="2" d="M227.195,-324C227.195,-324 70.1953,-324 70.1953,-324 64.1953,-324 58.1953,-318 58.1953,-312 58.1953,-312 58.1953,-300 58.1953,-300 58.1953,-294 64.1953,-288 70.1953,-288 70.1953,-288 227.195,-288 227.195,-288 233.195,-288 239.195,-294 239.195,-300 239.195,-300 239.195,-312 239.195,-312 239.195,-318 233.195,-324 227.195,-324"/>
<text text-anchor="middle" x="148.695" y="-309" font-family="sans" font-size="10.00">function_humann2_renorm_tables</text>
<text text-anchor="middle" x="148.695" y="-298" font-family="sans" font-size="10.00">norm: relab</text>
</g>
<!-- 3&#45;&gt;12 -->
<g id="edge16" class="edge"><title>3&#45;&gt;12</title>
<path fill="none" stroke="grey" stroke-width="2" d="M120.671,-287.808C106.336,-278.263 89.1269,-265.59 75.6953,-252 17.2445,-192.862 -30.4386,-134.242 24.6953,-72 50.9731,-42.3344 322.103,-25.8983 423.076,-20.7686"/>
<polygon fill="grey" stroke="grey" stroke-width="2" points="423.325,-24.2606 433.138,-20.2664 422.976,-17.2693 423.325,-24.2606"/>
</g>
<!-- 14 -->
<g id="node15" class="node"><title>14</title>
<path fill="none" stroke="#56b9d8" stroke-width="2" d="M316.195,-252C316.195,-252 153.195,-252 153.195,-252 147.195,-252 141.195,-246 141.195,-240 141.195,-240 141.195,-228 141.195,-228 141.195,-222 147.195,-216 153.195,-216 153.195,-216 316.195,-216 316.195,-216 322.195,-216 328.195,-222 328.195,-228 328.195,-228 328.195,-240 328.195,-240 328.195,-246 322.195,-252 316.195,-252"/>
<text text-anchor="middle" x="234.695" y="-231.5" font-family="sans" font-size="10.00">function_humann2_combine_tables</text>
</g>
<!-- 3&#45;&gt;14 -->
<g id="edge24" class="edge"><title>3&#45;&gt;14</title>
<path fill="none" stroke="grey" stroke-width="2" d="M169.954,-287.697C180.785,-278.881 194.113,-268.032 205.856,-258.474"/>
<polygon fill="grey" stroke="grey" stroke-width="2" points="208.135,-261.132 213.681,-252.104 203.716,-255.703 208.135,-261.132"/>
</g>
<!-- 4 -->
<g id="node5" class="node"><title>4</title>
<path fill="none" stroke="#5682d8" stroke-width="2" d="M518.195,-468C518.195,-468 401.195,-468 401.195,-468 395.195,-468 389.195,-462 389.195,-456 389.195,-456 389.195,-444 389.195,-444 389.195,-438 395.195,-432 401.195,-432 401.195,-432 518.195,-432 518.195,-432 524.195,-432 530.195,-438 530.195,-444 530.195,-444 530.195,-456 530.195,-456 530.195,-462 524.195,-468 518.195,-468"/>
<text text-anchor="middle" x="459.695" y="-447.5" font-family="sans" font-size="10.00">tax_combine_metaphlan2</text>
</g>
<!-- 15 -->
<g id="node16" class="node"><title>15</title>
<path fill="none" stroke="#56d86b" stroke-width="2" d="M599.695,-396C599.695,-396 517.695,-396 517.695,-396 511.695,-396 505.695,-390 505.695,-384 505.695,-384 505.695,-372 505.695,-372 505.695,-366 511.695,-360 517.695,-360 517.695,-360 599.695,-360 599.695,-360 605.695,-360 611.695,-366 611.695,-372 611.695,-372 611.695,-384 611.695,-384 611.695,-390 605.695,-396 599.695,-396"/>
<text text-anchor="middle" x="558.695" y="-375.5" font-family="sans" font-size="10.00">function_humann2</text>
</g>
<!-- 4&#45;&gt;15 -->
<g id="edge25" class="edge"><title>4&#45;&gt;15</title>
<path fill="none" stroke="grey" stroke-width="2" d="M483.913,-431.876C496.618,-422.893 512.36,-411.763 526.118,-402.034"/>
<polygon fill="grey" stroke="grey" stroke-width="2" points="528.24,-404.821 534.384,-396.19 524.198,-399.105 528.24,-404.821"/>
</g>
<!-- 16 -->
<g id="node17" class="node"><title>16</title>
<path fill="none" stroke="#56d86b" stroke-width="2" d="M383.695,-396C383.695,-396 301.695,-396 301.695,-396 295.695,-396 289.695,-390 289.695,-384 289.695,-384 289.695,-372 289.695,-372 289.695,-366 295.695,-360 301.695,-360 301.695,-360 383.695,-360 383.695,-360 389.695,-360 395.695,-366 395.695,-372 395.695,-372 395.695,-384 395.695,-384 395.695,-390 389.695,-396 383.695,-396"/>
<text text-anchor="middle" x="342.695" y="-375.5" font-family="sans" font-size="10.00">function_humann2</text>
</g>
<!-- 4&#45;&gt;16 -->
<g id="edge28" class="edge"><title>4&#45;&gt;16</title>
<path fill="none" stroke="grey" stroke-width="2" d="M431.074,-431.876C415.776,-422.724 396.752,-411.342 380.277,-401.485"/>
<polygon fill="grey" stroke="grey" stroke-width="2" points="381.805,-398.32 371.427,-396.19 378.211,-404.327 381.805,-398.32"/>
</g>
<!-- 5 -->
<g id="node6" class="node"><title>5</title>
<path fill="none" stroke="#8fd856" stroke-width="2" d="M530.695,-180C530.695,-180 342.695,-180 342.695,-180 336.695,-180 330.695,-174 330.695,-168 330.695,-168 330.695,-156 330.695,-156 330.695,-150 336.695,-144 342.695,-144 342.695,-144 530.695,-144 530.695,-144 536.695,-144 542.695,-150 542.695,-156 542.695,-156 542.695,-168 542.695,-168 542.695,-174 536.695,-180 530.695,-180"/>
<text text-anchor="middle" x="436.695" y="-165" font-family="sans" font-size="10.00">function_humann2_split_stratified_tables</text>
<text text-anchor="middle" x="436.695" y="-154" font-family="sans" font-size="10.00">mapped: all</text>
</g>
<!-- 5&#45;&gt;12 -->
<g id="edge17" class="edge"><title>5&#45;&gt;12</title>
<path fill="none" stroke="grey" stroke-width="2" d="M472.722,-143.815C486.615,-135.165 500.992,-123.237 508.695,-108 515.915,-93.7213 514.451,-86.929 508.695,-72 504.593,-61.358 497.252,-51.5282 489.527,-43.2982"/>
<polygon fill="grey" stroke="grey" stroke-width="2" points="491.963,-40.7847 482.405,-36.2125 487.025,-45.7469 491.963,-40.7847"/>
</g>
<!-- 6 -->
<g id="node7" class="node"><title>6</title>
<path fill="none" stroke="#b6d856" stroke-width="2" d="M828.195,-324C828.195,-324 671.195,-324 671.195,-324 665.195,-324 659.195,-318 659.195,-312 659.195,-312 659.195,-300 659.195,-300 659.195,-294 665.195,-288 671.195,-288 671.195,-288 828.195,-288 828.195,-288 834.195,-288 840.195,-294 840.195,-300 840.195,-300 840.195,-312 840.195,-312 840.195,-318 834.195,-324 828.195,-324"/>
<text text-anchor="middle" x="749.695" y="-309" font-family="sans" font-size="10.00">function_humann2_renorm_tables</text>
<text text-anchor="middle" x="749.695" y="-298" font-family="sans" font-size="10.00">norm: cpm</text>
</g>
<!-- 6&#45;&gt;12 -->
<g id="edge18" class="edge"><title>6&#45;&gt;12</title>
<path fill="none" stroke="grey" stroke-width="2" d="M762.165,-287.698C790.947,-245.487 855.501,-136.011 800.695,-72 762.117,-26.9416 578.799,-19.8963 498.51,-19.0026"/>
<polygon fill="grey" stroke="grey" stroke-width="2" points="498.37,-15.5013 488.341,-18.9165 498.311,-22.5011 498.37,-15.5013"/>
</g>
<!-- 18 -->
<g id="node19" class="node"><title>18</title>
<path fill="none" stroke="#56b9d8" stroke-width="2" d="M631.195,-252C631.195,-252 468.195,-252 468.195,-252 462.195,-252 456.195,-246 456.195,-240 456.195,-240 456.195,-228 456.195,-228 456.195,-222 462.195,-216 468.195,-216 468.195,-216 631.195,-216 631.195,-216 637.195,-216 643.195,-222 643.195,-228 643.195,-228 643.195,-240 643.195,-240 643.195,-246 637.195,-252 631.195,-252"/>
<text text-anchor="middle" x="549.695" y="-231.5" font-family="sans" font-size="10.00">function_humann2_combine_tables</text>
</g>
<!-- 6&#45;&gt;18 -->
<g id="edge29" class="edge"><title>6&#45;&gt;18</title>
<path fill="none" stroke="grey" stroke-width="2" d="M701.026,-287.966C673.081,-278.185 637.8,-265.836 608.334,-255.524"/>
<polygon fill="grey" stroke="grey" stroke-width="2" points="609.178,-252.111 598.583,-252.111 606.866,-258.718 609.178,-252.111"/>
</g>
<!-- 7 -->
<g id="node8" class="node"><title>7</title>
<path fill="none" stroke="#b6d856" stroke-width="2" d="M629.195,-324C629.195,-324 472.195,-324 472.195,-324 466.195,-324 460.195,-318 460.195,-312 460.195,-312 460.195,-300 460.195,-300 460.195,-294 466.195,-288 472.195,-288 472.195,-288 629.195,-288 629.195,-288 635.195,-288 641.195,-294 641.195,-300 641.195,-300 641.195,-312 641.195,-312 641.195,-318 635.195,-324 629.195,-324"/>
<text text-anchor="middle" x="550.695" y="-309" font-family="sans" font-size="10.00">function_humann2_renorm_tables</text>
<text text-anchor="middle" x="550.695" y="-298" font-family="sans" font-size="10.00">norm: relab</text>
</g>
<!-- 7&#45;&gt;12 -->
<g id="edge19" class="edge"><title>7&#45;&gt;12</title>
<path fill="none" stroke="grey" stroke-width="2" d="M615.875,-287.918C668.57,-270.323 739.431,-237.209 773.695,-180 798.369,-138.805 807.714,-108.655 776.695,-72 741.431,-30.329 574.498,-21.4013 498.518,-19.5038"/>
<polygon fill="grey" stroke="grey" stroke-width="2" points="498.499,-16.0026 488.424,-19.2801 498.344,-23.0009 498.499,-16.0026"/>
</g>
<!-- 7&#45;&gt;14 -->
<g id="edge23" class="edge"><title>7&#45;&gt;14</title>
<path fill="none" stroke="grey" stroke-width="2" d="M473.797,-287.966C427.832,-277.783 369.303,-264.818 321.657,-254.264"/>
<polygon fill="grey" stroke="grey" stroke-width="2" points="322.184,-250.796 311.664,-252.05 320.67,-257.63 322.184,-250.796"/>
</g>
<!-- 8 -->
<g id="node9" class="node"><title>8</title>
<path fill="none" stroke="#88d856" stroke-width="2" d="M377.695,-612C377.695,-612 347.695,-612 347.695,-612 341.695,-612 335.695,-606 335.695,-600 335.695,-600 335.695,-588 335.695,-588 335.695,-582 341.695,-576 347.695,-576 347.695,-576 377.695,-576 377.695,-576 383.695,-576 389.695,-582 389.695,-588 389.695,-588 389.695,-600 389.695,-600 389.695,-606 383.695,-612 377.695,-612"/>
<text text-anchor="middle" x="362.695" y="-591.5" font-family="sans" font-size="10.00">qc_filter</text>
</g>
<!-- 9 -->
<g id="node10" class="node"><title>9</title>
<path fill="none" stroke="#d85656" stroke-width="2" d="M438.195,-540C438.195,-540 367.195,-540 367.195,-540 361.195,-540 355.195,-534 355.195,-528 355.195,-528 355.195,-516 355.195,-516 355.195,-510 361.195,-504 367.195,-504 367.195,-504 438.195,-504 438.195,-504 444.195,-504 450.195,-510 450.195,-516 450.195,-516 450.195,-528 450.195,-528 450.195,-534 444.195,-540 438.195,-540"/>
<text text-anchor="middle" x="402.695" y="-519.5" font-family="sans" font-size="10.00">tax_metaphlan2</text>
</g>
<!-- 8&#45;&gt;9 -->
<g id="edge11" class="edge"><title>8&#45;&gt;9</title>
<path fill="none" stroke="grey" stroke-width="2" d="M372.583,-575.697C377.185,-567.644 382.756,-557.894 387.848,-548.982"/>
<polygon fill="grey" stroke="grey" stroke-width="2" points="390.999,-550.523 392.921,-540.104 384.921,-547.05 390.999,-550.523"/>
</g>
<!-- 8&#45;&gt;16 -->
<g id="edge27" class="edge"><title>8&#45;&gt;16</title>
<path fill="none" stroke="grey" stroke-width="2" d="M355.715,-575.651C351.971,-565.452 347.721,-552.202 345.695,-540 337.996,-493.62 339.118,-438.697 340.794,-406.471"/>
<polygon fill="grey" stroke="grey" stroke-width="2" points="344.312,-406.255 341.396,-396.069 337.324,-405.85 344.312,-406.255"/>
</g>
<!-- 9&#45;&gt;4 -->
<g id="edge6" class="edge"><title>9&#45;&gt;4</title>
<path fill="none" stroke="grey" stroke-width="2" d="M416.785,-503.697C423.619,-495.305 431.952,-485.07 439.451,-475.861"/>
<polygon fill="grey" stroke="grey" stroke-width="2" points="442.167,-478.069 445.767,-468.104 436.739,-473.649 442.167,-478.069"/>
</g>
<!-- 11 -->
<g id="node12" class="node"><title>11</title>
<path fill="none" stroke="#d85656" stroke-width="2" d="M551.195,-540C551.195,-540 480.195,-540 480.195,-540 474.195,-540 468.195,-534 468.195,-528 468.195,-528 468.195,-516 468.195,-516 468.195,-510 474.195,-504 480.195,-504 480.195,-504 551.195,-504 551.195,-504 557.195,-504 563.195,-510 563.195,-516 563.195,-516 563.195,-528 563.195,-528 563.195,-534 557.195,-540 551.195,-540"/>
<text text-anchor="middle" x="515.695" y="-519.5" font-family="sans" font-size="10.00">tax_metaphlan2</text>
</g>
<!-- 10&#45;&gt;11 -->
<g id="edge13" class="edge"><title>10&#45;&gt;11</title>
<path fill="none" stroke="grey" stroke-width="2" d="M518.707,-575.697C518.266,-567.983 517.736,-558.712 517.245,-550.112"/>
<polygon fill="grey" stroke="grey" stroke-width="2" points="520.738,-549.888 516.673,-540.104 513.749,-550.288 520.738,-549.888"/>
</g>
<!-- 10&#45;&gt;15 -->
<g id="edge26" class="edge"><title>10&#45;&gt;15</title>
<path fill="none" stroke="grey" stroke-width="2" d="M543.447,-575.91C554.248,-566.651 565.893,-554.2 571.695,-540 589.786,-495.729 578.004,-438.992 568.122,-406.045"/>
<polygon fill="grey" stroke="grey" stroke-width="2" points="571.371,-404.71 565.02,-396.23 564.696,-406.82 571.371,-404.71"/>
</g>
<!-- 11&#45;&gt;4 -->
<g id="edge5" class="edge"><title>11&#45;&gt;4</title>
<path fill="none" stroke="grey" stroke-width="2" d="M501.853,-503.697C495.207,-495.389 487.117,-485.277 479.808,-476.141"/>
<polygon fill="grey" stroke="grey" stroke-width="2" points="482.359,-473.727 473.379,-468.104 476.893,-478.099 482.359,-473.727"/>
</g>
<!-- 13 -->
<g id="node14" class="node"><title>13</title>
<path fill="none" stroke="#b6d856" stroke-width="2" d="M426.195,-324C426.195,-324 269.195,-324 269.195,-324 263.195,-324 257.195,-318 257.195,-312 257.195,-312 257.195,-300 257.195,-300 257.195,-294 263.195,-288 269.195,-288 269.195,-288 426.195,-288 426.195,-288 432.195,-288 438.195,-294 438.195,-300 438.195,-300 438.195,-312 438.195,-312 438.195,-318 432.195,-324 426.195,-324"/>
<text text-anchor="middle" x="347.695" y="-309" font-family="sans" font-size="10.00">function_humann2_renorm_tables</text>
<text text-anchor="middle" x="347.695" y="-298" font-family="sans" font-size="10.00">norm: cpm</text>
</g>
<!-- 13&#45;&gt;12 -->
<g id="edge21" class="edge"><title>13&#45;&gt;12</title>
<path fill="none" stroke="grey" stroke-width="2" d="M259.427,-287.993C210.013,-277.568 153.974,-263.97 131.695,-252 54.0914,-210.306 -9.48801,-138.148 48.6953,-72 73.2568,-44.0765 325.711,-26.7429 422.871,-21.062"/>
<polygon fill="grey" stroke="grey" stroke-width="2" points="423.34,-24.5409 433.123,-20.4723 422.938,-17.5524 423.34,-24.5409"/>
</g>
<!-- 13&#45;&gt;18 -->
<g id="edge30" class="edge"><title>13&#45;&gt;18</title>
<path fill="none" stroke="grey" stroke-width="2" d="M396.852,-287.966C425.198,-278.142 461.02,-265.729 490.858,-255.389"/>
<polygon fill="grey" stroke="grey" stroke-width="2" points="492.016,-258.692 500.318,-252.111 489.724,-252.078 492.016,-258.692"/>
</g>
<!-- 14&#45;&gt;1 -->
<g id="edge2" class="edge"><title>14&#45;&gt;1</title>
<path fill="none" stroke="grey" stroke-width="2" d="M249.966,-215.787C266.769,-197.237 294.953,-167.25 321.695,-144 333.687,-133.574 347.602,-123.011 359.984,-114.088"/>
<polygon fill="grey" stroke="grey" stroke-width="2" points="362.15,-116.843 368.269,-108.194 358.092,-111.139 362.15,-116.843"/>
</g>
<!-- 19 -->
<g id="node20" class="node"><title>19</title>
<path fill="none" stroke="#56d85b" stroke-width="2" d="M256.195,-180C256.195,-180 75.1953,-180 75.1953,-180 69.1953,-180 63.1953,-174 63.1953,-168 63.1953,-168 63.1953,-156 63.1953,-156 63.1953,-150 69.1953,-144 75.1953,-144 75.1953,-144 256.195,-144 256.195,-144 262.195,-144 268.195,-150 268.195,-156 268.195,-156 268.195,-168 268.195,-168 268.195,-174 262.195,-180 256.195,-180"/>
<text text-anchor="middle" x="165.695" y="-159.5" font-family="sans" font-size="10.00">function_humann2_remove_unmapped</text>
</g>
<!-- 14&#45;&gt;19 -->
<g id="edge31" class="edge"><title>14&#45;&gt;19</title>
<path fill="none" stroke="grey" stroke-width="2" d="M217.639,-215.697C209.2,-207.135 198.871,-196.656 189.653,-187.304"/>
<polygon fill="grey" stroke="grey" stroke-width="2" points="192.068,-184.769 182.555,-180.104 187.083,-189.683 192.068,-184.769"/>
</g>
<!-- 15&#45;&gt;6 -->
<g id="edge8" class="edge"><title>15&#45;&gt;6</title>
<path fill="none" stroke="grey" stroke-width="2" d="M605.419,-359.876C631.994,-350.137 665.458,-337.872 693.465,-327.608"/>
<polygon fill="grey" stroke="grey" stroke-width="2" points="694.938,-330.796 703.123,-324.068 692.529,-324.223 694.938,-330.796"/>
</g>
<!-- 15&#45;&gt;7 -->
<g id="edge9" class="edge"><title>15&#45;&gt;7</title>
<path fill="none" stroke="grey" stroke-width="2" d="M556.718,-359.697C555.836,-351.983 554.777,-342.712 553.794,-334.112"/>
<polygon fill="grey" stroke="grey" stroke-width="2" points="557.263,-333.642 552.65,-324.104 550.308,-334.437 557.263,-333.642"/>
</g>
<!-- 16&#45;&gt;3 -->
<g id="edge4" class="edge"><title>16&#45;&gt;3</title>
<path fill="none" stroke="grey" stroke-width="2" d="M295.238,-359.876C268.127,-350.094 233.959,-337.765 205.437,-327.474"/>
<polygon fill="grey" stroke="grey" stroke-width="2" points="206.593,-324.17 195.999,-324.068 204.217,-330.755 206.593,-324.17"/>
</g>
<!-- 16&#45;&gt;13 -->
<g id="edge22" class="edge"><title>16&#45;&gt;13</title>
<path fill="none" stroke="grey" stroke-width="2" d="M343.931,-359.697C344.482,-351.983 345.144,-342.712 345.759,-334.112"/>
<polygon fill="grey" stroke="grey" stroke-width="2" points="349.252,-334.328 346.474,-324.104 342.27,-333.83 349.252,-334.328"/>
</g>
<!-- 17 -->
<g id="node18" class="node"><title>17</title>
<path fill="none" stroke="#d86656" stroke-width="2" d="M559.695,-756C559.695,-756 479.695,-756 479.695,-756 473.695,-756 467.695,-750 467.695,-744 467.695,-744 467.695,-732 467.695,-732 467.695,-726 473.695,-720 479.695,-720 479.695,-720 559.695,-720 559.695,-720 565.695,-720 571.695,-726 571.695,-732 571.695,-732 571.695,-744 571.695,-744 571.695,-750 565.695,-756 559.695,-756"/>
<text text-anchor="middle" x="519.695" y="-741" font-family="sans" font-size="10.00">raw_combine_files</text>
<text text-anchor="middle" x="519.695" y="-730" font-family="sans" font-size="10.00">sample: Vf</text>
</g>
<!-- 17&#45;&gt;2 -->
<g id="edge3" class="edge"><title>17&#45;&gt;2</title>
<path fill="none" stroke="grey" stroke-width="2" d="M519.695,-719.697C519.695,-711.983 519.695,-702.712 519.695,-694.112"/>
<polygon fill="grey" stroke="grey" stroke-width="2" points="523.195,-694.104 519.695,-684.104 516.195,-694.104 523.195,-694.104"/>
</g>
<!-- 18&#45;&gt;5 -->
<g id="edge7" class="edge"><title>18&#45;&gt;5</title>
<path fill="none" stroke="grey" stroke-width="2" d="M522.052,-215.876C507.278,-206.724 488.904,-195.342 472.992,-185.485"/>
<polygon fill="grey" stroke="grey" stroke-width="2" points="474.789,-182.481 464.444,-180.19 471.102,-188.431 474.789,-182.481"/>
</g>
<!-- 20 -->
<g id="node21" class="node"><title>20</title>
<path fill="none" stroke="#56d85b" stroke-width="2" d="M753.195,-180C753.195,-180 572.195,-180 572.195,-180 566.195,-180 560.195,-174 560.195,-168 560.195,-168 560.195,-156 560.195,-156 560.195,-150 566.195,-144 572.195,-144 572.195,-144 753.195,-144 753.195,-144 759.195,-144 765.195,-150 765.195,-156 765.195,-156 765.195,-168 765.195,-168 765.195,-174 759.195,-180 753.195,-180"/>
<text text-anchor="middle" x="662.695" y="-159.5" font-family="sans" font-size="10.00">function_humann2_remove_unmapped</text>
</g>
<!-- 18&#45;&gt;20 -->
<g id="edge32" class="edge"><title>18&#45;&gt;20</title>
<path fill="none" stroke="grey" stroke-width="2" d="M577.338,-215.876C592.113,-206.724 610.486,-195.342 626.398,-185.485"/>
<polygon fill="grey" stroke="grey" stroke-width="2" points="628.288,-188.431 634.946,-180.19 624.602,-182.481 628.288,-188.431"/>
</g>
<!-- 19&#45;&gt;0 -->
<g id="edge1" class="edge"><title>19&#45;&gt;0</title>
<path fill="none" stroke="grey" stroke-width="2" d="M165.201,-143.697C164.981,-135.983 164.716,-126.712 164.47,-118.112"/>
<polygon fill="grey" stroke="grey" stroke-width="2" points="167.968,-118 164.184,-108.104 160.971,-118.2 167.968,-118"/>
</g>
<!-- 23 -->
<g id="node24" class="node"><title>23</title>
<path fill="none" stroke="#8fd856" stroke-width="2" d="M755.695,-108C755.695,-108 567.695,-108 567.695,-108 561.695,-108 555.695,-102 555.695,-96 555.695,-96 555.695,-84 555.695,-84 555.695,-78 561.695,-72 567.695,-72 567.695,-72 755.695,-72 755.695,-72 761.695,-72 767.695,-78 767.695,-84 767.695,-84 767.695,-96 767.695,-96 767.695,-102 761.695,-108 755.695,-108"/>
<text text-anchor="middle" x="661.695" y="-93" font-family="sans" font-size="10.00">function_humann2_split_stratified_tables</text>
<text text-anchor="middle" x="661.695" y="-82" font-family="sans" font-size="10.00">mapped: mapped</text>
</g>
<!-- 20&#45;&gt;23 -->
<g id="edge34" class="edge"><title>20&#45;&gt;23</title>
<path fill="none" stroke="grey" stroke-width="2" d="M662.448,-143.697C662.338,-135.983 662.205,-126.712 662.083,-118.112"/>
<polygon fill="grey" stroke="grey" stroke-width="2" points="665.582,-118.053 661.94,-108.104 658.583,-118.153 665.582,-118.053"/>
</g>
<!-- 21 -->
<g id="node22" class="node"><title>21</title>
<path fill="none" stroke="#d86656" stroke-width="2" d="M402.695,-756C402.695,-756 322.695,-756 322.695,-756 316.695,-756 310.695,-750 310.695,-744 310.695,-744 310.695,-732 310.695,-732 310.695,-726 316.695,-720 322.695,-720 322.695,-720 402.695,-720 402.695,-720 408.695,-720 414.695,-726 414.695,-732 414.695,-732 414.695,-744 414.695,-744 414.695,-750 408.695,-756 402.695,-756"/>
<text text-anchor="middle" x="362.695" y="-741" font-family="sans" font-size="10.00">raw_combine_files</text>
<text text-anchor="middle" x="362.695" y="-730" font-family="sans" font-size="10.00">sample: Bs</text>
</g>
<!-- 22 -->
<g id="node23" class="node"><title>22</title>
<path fill="none" stroke="#56d89a" stroke-width="2" d="M399.695,-684C399.695,-684 325.695,-684 325.695,-684 319.695,-684 313.695,-678 313.695,-672 313.695,-672 313.695,-660 313.695,-660 313.695,-654 319.695,-648 325.695,-648 325.695,-648 399.695,-648 399.695,-648 405.695,-648 411.695,-654 411.695,-660 411.695,-660 411.695,-672 411.695,-672 411.695,-678 405.695,-684 399.695,-684"/>
<text text-anchor="middle" x="362.695" y="-669" font-family="sans" font-size="10.00">qc_atropos</text>
<text text-anchor="middle" x="362.695" y="-658" font-family="sans" font-size="10.00">trimmer: atropos</text>
</g>
<!-- 21&#45;&gt;22 -->
<g id="edge33" class="edge"><title>21&#45;&gt;22</title>
<path fill="none" stroke="grey" stroke-width="2" d="M362.695,-719.697C362.695,-711.983 362.695,-702.712 362.695,-694.112"/>
<polygon fill="grey" stroke="grey" stroke-width="2" points="366.195,-694.104 362.695,-684.104 359.195,-694.104 366.195,-694.104"/>
</g>
<!-- 22&#45;&gt;8 -->
<g id="edge10" class="edge"><title>22&#45;&gt;8</title>
<path fill="none" stroke="grey" stroke-width="2" d="M362.695,-647.697C362.695,-639.983 362.695,-630.712 362.695,-622.112"/>
<polygon fill="grey" stroke="grey" stroke-width="2" points="366.195,-622.104 362.695,-612.104 359.195,-622.104 366.195,-622.104"/>
</g>
<!-- 23&#45;&gt;12 -->
<g id="edge20" class="edge"><title>23&#45;&gt;12</title>
<path fill="none" stroke="grey" stroke-width="2" d="M612.782,-71.9656C577.398,-59.6427 530.309,-43.2434 497.952,-31.975"/>
<polygon fill="grey" stroke="grey" stroke-width="2" points="499.008,-28.6364 488.413,-28.6528 496.705,-35.247 499.008,-28.6364"/>
</g>
</g>
</svg>
