<?xml version="1.0" encoding="UTF-8" standalone="no"?>
<!DOCTYPE svg PUBLIC "-//W3C//DTD SVG 1.1//EN"
 "http://www.w3.org/Graphics/SVG/1.1/DTD/svg11.dtd">
<!-- Generated by graphviz version 2.38.0 (20140413.2041)
 -->
<!-- Title: snakemake_dag Pages: 1 -->
<svg width="537pt" height="260pt"
 viewBox="0.00 0.00 537.00 260.00" xmlns="http://www.w3.org/2000/svg" xmlns:xlink="http://www.w3.org/1999/xlink">
<g id="graph0" class="graph" transform="scale(1 1) rotate(0) translate(4 256)">
<title>snakemake_dag</title>
<polygon fill="white" stroke="none" points="-4,4 -4,-256 533,-256 533,4 -4,4"/>
<!-- 0 -->
<g id="node1" class="node"><title>0</title>
<path fill="none" stroke="#56d8d0" stroke-width="2" d="M396,-108C396,-108 307,-108 307,-108 301,-108 295,-102 295,-96 295,-96 295,-84 295,-84 295,-78 301,-72 307,-72 307,-72 396,-72 396,-72 402,-72 408,-78 408,-84 408,-84 408,-96 408,-96 408,-102 402,-108 396,-108"/>
<text text-anchor="middle" x="351.5" y="-87.5" font-family="sans" font-size="10.00">raw_per_file_multiqc</text>
</g>
<!-- 3 -->
<g id="node4" class="node"><title>3</title>
<path fill="none" stroke="#ced856" stroke-width="2" d="M295.5,-36C295.5,-36 265.5,-36 265.5,-36 259.5,-36 253.5,-30 253.5,-24 253.5,-24 253.5,-12 253.5,-12 253.5,-6 259.5,-0 265.5,-0 265.5,-0 295.5,-0 295.5,-0 301.5,-0 307.5,-6 307.5,-12 307.5,-12 307.5,-24 307.5,-24 307.5,-30 301.5,-36 295.5,-36"/>
<text text-anchor="middle" x="280.5" y="-15.5" font-family="sans" font-size="10.00">raw</text>
</g>
<!-- 0&#45;&gt;3 -->
<g id="edge3" class="edge"><title>0&#45;&gt;3</title>
<path fill="none" stroke="grey" stroke-width="2" d="M333.949,-71.6966C325.266,-63.135 314.637,-52.6562 305.152,-43.3045"/>
<polygon fill="grey" stroke="grey" stroke-width="2" points="307.427,-40.6327 297.849,-36.1043 302.512,-45.6175 307.427,-40.6327"/>
</g>
<!-- 1 -->
<g id="node2" class="node"><title>1</title>
<path fill="none" stroke="#565bd8" stroke-width="2" d="M392,-180C392,-180 309,-180 309,-180 303,-180 297,-174 297,-168 297,-168 297,-156 297,-156 297,-150 303,-144 309,-144 309,-144 392,-144 392,-144 398,-144 404,-150 404,-156 404,-156 404,-168 404,-168 404,-174 398,-180 392,-180"/>
<text text-anchor="middle" x="350.5" y="-165" font-family="sans" font-size="10.00">raw_per_file_fastqc</text>
<text text-anchor="middle" x="350.5" y="-154" font-family="sans" font-size="10.00">sample: Bs</text>
</g>
<!-- 1&#45;&gt;0 -->
<g id="edge1" class="edge"><title>1&#45;&gt;0</title>
<path fill="none" stroke="grey" stroke-width="2" d="M350.747,-143.697C350.857,-135.983 350.99,-126.712 351.113,-118.112"/>
<polygon fill="grey" stroke="grey" stroke-width="2" points="354.612,-118.153 351.256,-108.104 347.613,-118.053 354.612,-118.153"/>
</g>
<!-- 2 -->
<g id="node3" class="node"><title>2</title>
<path fill="none" stroke="#565bd8" stroke-width="2" d="M517,-180C517,-180 434,-180 434,-180 428,-180 422,-174 422,-168 422,-168 422,-156 422,-156 422,-150 428,-144 434,-144 434,-144 517,-144 517,-144 523,-144 529,-150 529,-156 529,-156 529,-168 529,-168 529,-174 523,-180 517,-180"/>
<text text-anchor="middle" x="475.5" y="-165" font-family="sans" font-size="10.00">raw_per_file_fastqc</text>
<text text-anchor="middle" x="475.5" y="-154" font-family="sans" font-size="10.00">sample: Vf</text>
</g>
<!-- 2&#45;&gt;0 -->
<g id="edge2" class="edge"><title>2&#45;&gt;0</title>
<path fill="none" stroke="grey" stroke-width="2" d="M445.166,-143.876C428.803,-134.639 408.417,-123.131 390.846,-113.212"/>
<polygon fill="grey" stroke="grey" stroke-width="2" points="392.379,-110.058 381.95,-108.19 388.938,-116.154 392.379,-110.058"/>
</g>
<!-- 4 -->
<g id="node5" class="node"><title>4</title>
<path fill="none" stroke="#d8d356" stroke-width="2" d="M117,-180C117,-180 12,-180 12,-180 6,-180 0,-174 0,-168 0,-168 0,-156 0,-156 0,-150 6,-144 12,-144 12,-144 117,-144 117,-144 123,-144 129,-150 129,-156 129,-156 129,-168 129,-168 129,-174 123,-180 117,-180"/>
<text text-anchor="middle" x="64.5" y="-159.5" font-family="sans" font-size="10.00">raw_per_sample_fastqc</text>
</g>
<!-- 6 -->
<g id="node7" class="node"><title>6</title>
<path fill="none" stroke="#56b1d8" stroke-width="2" d="M265,-108C265,-108 154,-108 154,-108 148,-108 142,-102 142,-96 142,-96 142,-84 142,-84 142,-78 148,-72 154,-72 154,-72 265,-72 265,-72 271,-72 277,-78 277,-84 277,-84 277,-96 277,-96 277,-102 271,-108 265,-108"/>
<text text-anchor="middle" x="209.5" y="-87.5" font-family="sans" font-size="10.00">raw_per_sample_multiqc</text>
</g>
<!-- 4&#45;&gt;6 -->
<g id="edge7" class="edge"><title>4&#45;&gt;6</title>
<path fill="none" stroke="grey" stroke-width="2" d="M99.971,-143.876C119.617,-134.392 144.222,-122.513 165.132,-112.419"/>
<polygon fill="grey" stroke="grey" stroke-width="2" points="166.66,-115.568 174.144,-108.068 163.617,-109.264 166.66,-115.568"/>
</g>
<!-- 5 -->
<g id="node6" class="node"><title>5</title>
<path fill="none" stroke="#d8d356" stroke-width="2" d="M264,-180C264,-180 159,-180 159,-180 153,-180 147,-174 147,-168 147,-168 147,-156 147,-156 147,-150 153,-144 159,-144 159,-144 264,-144 264,-144 270,-144 276,-150 276,-156 276,-156 276,-168 276,-168 276,-174 270,-180 264,-180"/>
<text text-anchor="middle" x="211.5" y="-159.5" font-family="sans" font-size="10.00">raw_per_sample_fastqc</text>
</g>
<!-- 5&#45;&gt;6 -->
<g id="edge8" class="edge"><title>5&#45;&gt;6</title>
<path fill="none" stroke="grey" stroke-width="2" d="M211.006,-143.697C210.785,-135.983 210.52,-126.712 210.275,-118.112"/>
<polygon fill="grey" stroke="grey" stroke-width="2" points="213.773,-118 209.989,-108.104 206.776,-118.2 213.773,-118"/>
</g>
<!-- 6&#45;&gt;3 -->
<g id="edge4" class="edge"><title>6&#45;&gt;3</title>
<path fill="none" stroke="grey" stroke-width="2" d="M227.051,-71.6966C235.734,-63.135 246.363,-52.6562 255.848,-43.3045"/>
<polygon fill="grey" stroke="grey" stroke-width="2" points="258.488,-45.6175 263.151,-36.1043 253.573,-40.6327 258.488,-45.6175"/>
</g>
<!-- 7 -->
<g id="node8" class="node"><title>7</title>
<path fill="none" stroke="#5673d8" stroke-width="2" d="M251.5,-252C251.5,-252 171.5,-252 171.5,-252 165.5,-252 159.5,-246 159.5,-240 159.5,-240 159.5,-228 159.5,-228 159.5,-222 165.5,-216 171.5,-216 171.5,-216 251.5,-216 251.5,-216 257.5,-216 263.5,-222 263.5,-228 263.5,-228 263.5,-240 263.5,-240 263.5,-246 257.5,-252 251.5,-252"/>
<text text-anchor="middle" x="211.5" y="-237" font-family="sans" font-size="10.00">raw_combine_files</text>
<text text-anchor="middle" x="211.5" y="-226" font-family="sans" font-size="10.00">sample: Vf</text>
</g>
<!-- 7&#45;&gt;5 -->
<g id="edge6" class="edge"><title>7&#45;&gt;5</title>
<path fill="none" stroke="grey" stroke-width="2" d="M211.5,-215.697C211.5,-207.983 211.5,-198.712 211.5,-190.112"/>
<polygon fill="grey" stroke="grey" stroke-width="2" points="215,-190.104 211.5,-180.104 208,-190.104 215,-190.104"/>
</g>
<!-- 8 -->
<g id="node9" class="node"><title>8</title>
<path fill="none" stroke="#5673d8" stroke-width="2" d="M104.5,-252C104.5,-252 24.5,-252 24.5,-252 18.5,-252 12.5,-246 12.5,-240 12.5,-240 12.5,-228 12.5,-228 12.5,-222 18.5,-216 24.5,-216 24.5,-216 104.5,-216 104.5,-216 110.5,-216 116.5,-222 116.5,-228 116.5,-228 116.5,-240 116.5,-240 116.5,-246 110.5,-252 104.5,-252"/>
<text text-anchor="middle" x="64.5" y="-237" font-family="sans" font-size="10.00">raw_combine_files</text>
<text text-anchor="middle" x="64.5" y="-226" font-family="sans" font-size="10.00">sample: Bs</text>
</g>
<!-- 8&#45;&gt;4 -->
<g id="edge5" class="edge"><title>8&#45;&gt;4</title>
<path fill="none" stroke="grey" stroke-width="2" d="M64.5,-215.697C64.5,-207.983 64.5,-198.712 64.5,-190.112"/>
<polygon fill="grey" stroke="grey" stroke-width="2" points="68.0001,-190.104 64.5,-180.104 61.0001,-190.104 68.0001,-190.104"/>
</g>
</g>
</svg>
