<?xml version="1.0" encoding="UTF-8" standalone="no"?>
<!DOCTYPE svg PUBLIC "-//W3C//DTD SVG 1.1//EN"
 "http://www.w3.org/Graphics/SVG/1.1/DTD/svg11.dtd">
<!-- Generated by graphviz version 2.38.0 (20140413.2041)
 -->
<!-- Title: snakemake_dag Pages: 1 -->
<svg width="1419pt" height="908pt"
 viewBox="0.00 0.00 1419.00 908.00" xmlns="http://www.w3.org/2000/svg" xmlns:xlink="http://www.w3.org/1999/xlink">
<g id="graph0" class="graph" transform="scale(1 1) rotate(0) translate(4 904)">
<title>snakemake_dag</title>
<polygon fill="white" stroke="none" points="-4,4 -4,-904 1415,-904 1415,4 -4,4"/>
<!-- 0 -->
<g id="node1" class="node"><title>0</title>
<path fill="none" stroke="#56d8c1" stroke-width="2" d="M596,-612C596,-612 442,-612 442,-612 436,-612 430,-606 430,-600 430,-600 430,-588 430,-588 430,-582 436,-576 442,-576 442,-576 596,-576 596,-576 602,-576 608,-582 608,-588 608,-588 608,-600 608,-600 608,-606 602,-612 596,-612"/>
<text text-anchor="middle" x="519" y="-597" font-family="sans" font-size="10.00">assemble_simplify_fasta_headers</text>
<text text-anchor="middle" x="519" y="-586" font-family="sans" font-size="10.00">assembler: metaspades</text>
</g>
<!-- 1 -->
<g id="node2" class="node"><title>1</title>
<path fill="none" stroke="#d87556" stroke-width="2" d="M610,-324C610,-324 542,-324 542,-324 536,-324 530,-318 530,-312 530,-312 530,-300 530,-300 530,-294 536,-288 542,-288 542,-288 610,-288 610,-288 616,-288 622,-294 622,-300 622,-300 622,-312 622,-312 622,-318 616,-324 610,-324"/>
<text text-anchor="middle" x="576" y="-303.5" font-family="sans" font-size="10.00">bin_run_maxbin</text>
</g>
<!-- 0&#45;&gt;1 -->
<g id="edge2" class="edge"><title>0&#45;&gt;1</title>
<path fill="none" stroke="grey" stroke-width="2" d="M564.284,-575.948C582.668,-567.321 603.049,-555.374 618,-540 642.943,-514.352 645.78,-502.82 654,-468 665.134,-420.836 663.849,-401.605 639,-360 632.234,-348.671 622.155,-338.621 612.032,-330.4"/>
<polygon fill="grey" stroke="grey" stroke-width="2" points="614.03,-327.522 603.967,-324.209 609.768,-333.075 614.03,-327.522"/>
</g>
<!-- 5 -->
<g id="node6" class="node"><title>5</title>
<path fill="none" stroke="#97d856" stroke-width="2" d="M322.5,-540C322.5,-540 197.5,-540 197.5,-540 191.5,-540 185.5,-534 185.5,-528 185.5,-528 185.5,-516 185.5,-516 185.5,-510 191.5,-504 197.5,-504 197.5,-504 322.5,-504 322.5,-504 328.5,-504 334.5,-510 334.5,-516 334.5,-516 334.5,-528 334.5,-528 334.5,-534 328.5,-540 322.5,-540"/>
<text text-anchor="middle" x="260" y="-525" font-family="sans" font-size="10.00">anvi_gen_contigs_database</text>
<text text-anchor="middle" x="260" y="-514" font-family="sans" font-size="10.00">bin_sample: Vf</text>
</g>
<!-- 0&#45;&gt;5 -->
<g id="edge9" class="edge"><title>0&#45;&gt;5</title>
<path fill="none" stroke="grey" stroke-width="2" d="M455.973,-575.966C418.841,-565.93 371.705,-553.19 332.967,-542.721"/>
<polygon fill="grey" stroke="grey" stroke-width="2" points="333.877,-539.341 323.31,-540.111 332.05,-546.099 333.877,-539.341"/>
</g>
<!-- 7 -->
<g id="node8" class="node"><title>7</title>
<path fill="none" stroke="#56d863" stroke-width="2" d="M618.5,-396C618.5,-396 533.5,-396 533.5,-396 527.5,-396 521.5,-390 521.5,-384 521.5,-384 521.5,-372 521.5,-372 521.5,-366 527.5,-360 533.5,-360 533.5,-360 618.5,-360 618.5,-360 624.5,-360 630.5,-366 630.5,-372 630.5,-372 630.5,-384 630.5,-384 630.5,-390 624.5,-396 618.5,-396"/>
<text text-anchor="middle" x="576" y="-375.5" font-family="sans" font-size="10.00">bin_make_cov_files</text>
</g>
<!-- 0&#45;&gt;7 -->
<g id="edge12" class="edge"><title>0&#45;&gt;7</title>
<path fill="none" stroke="grey" stroke-width="2" d="M545.359,-575.893C575.008,-554.765 621.098,-515.706 637,-468 642.06,-452.821 643.637,-446.559 637,-432 631.772,-420.531 622.7,-410.584 613.126,-402.504"/>
<polygon fill="grey" stroke="grey" stroke-width="2" points="615.069,-399.58 605.04,-396.163 610.749,-405.088 615.069,-399.58"/>
</g>
<!-- 28 -->
<g id="node29" class="node"><title>28</title>
<path fill="none" stroke="#d88556" stroke-width="2" d="M562.5,-540C562.5,-540 475.5,-540 475.5,-540 469.5,-540 463.5,-534 463.5,-528 463.5,-528 463.5,-516 463.5,-516 463.5,-510 469.5,-504 475.5,-504 475.5,-504 562.5,-504 562.5,-504 568.5,-504 574.5,-510 574.5,-516 574.5,-516 574.5,-528 574.5,-528 574.5,-534 568.5,-540 562.5,-540"/>
<text text-anchor="middle" x="519" y="-525" font-family="sans" font-size="10.00">map_bowtie2_index</text>
<text text-anchor="middle" x="519" y="-514" font-family="sans" font-size="10.00">bin_sample: Vf</text>
</g>
<!-- 0&#45;&gt;28 -->
<g id="edge47" class="edge"><title>0&#45;&gt;28</title>
<path fill="none" stroke="grey" stroke-width="2" d="M519,-575.697C519,-567.983 519,-558.712 519,-550.112"/>
<polygon fill="grey" stroke="grey" stroke-width="2" points="522.5,-550.104 519,-540.104 515.5,-550.104 522.5,-550.104"/>
</g>
<!-- 2 -->
<g id="node3" class="node"><title>2</title>
<path fill="none" stroke="#61d856" stroke-width="2" d="M588.5,-180C588.5,-180 501.5,-180 501.5,-180 495.5,-180 489.5,-174 489.5,-168 489.5,-168 489.5,-156 489.5,-156 489.5,-150 495.5,-144 501.5,-144 501.5,-144 588.5,-144 588.5,-144 594.5,-144 600.5,-150 600.5,-156 600.5,-156 600.5,-168 600.5,-168 600.5,-174 594.5,-180 588.5,-180"/>
<text text-anchor="middle" x="545" y="-159.5" font-family="sans" font-size="10.00">summarize_maxbin</text>
</g>
<!-- 1&#45;&gt;2 -->
<g id="edge4" class="edge"><title>1&#45;&gt;2</title>
<path fill="none" stroke="grey" stroke-width="2" d="M572.261,-287.871C566.954,-263.564 557.186,-218.819 550.897,-190.013"/>
<polygon fill="grey" stroke="grey" stroke-width="2" points="554.305,-189.213 548.753,-180.189 547.466,-190.706 554.305,-189.213"/>
</g>
<!-- 12 -->
<g id="node13" class="node"><title>12</title>
<path fill="none" stroke="#5663d8" stroke-width="2" d="M535,-108C535,-108 459,-108 459,-108 453,-108 447,-102 447,-96 447,-96 447,-84 447,-84 447,-78 453,-72 459,-72 459,-72 535,-72 535,-72 541,-72 547,-78 547,-84 547,-84 547,-96 547,-96 547,-102 541,-108 535,-108"/>
<text text-anchor="middle" x="497" y="-87.5" font-family="sans" font-size="10.00">anvi_add_maxbin</text>
</g>
<!-- 2&#45;&gt;12 -->
<g id="edge20" class="edge"><title>2&#45;&gt;12</title>
<path fill="none" stroke="grey" stroke-width="2" d="M533.135,-143.697C527.497,-135.474 520.646,-125.483 514.431,-116.421"/>
<polygon fill="grey" stroke="grey" stroke-width="2" points="517.271,-114.372 508.729,-108.104 511.497,-118.331 517.271,-114.372"/>
</g>
<!-- 3 -->
<g id="node4" class="node"><title>3</title>
<path fill="none" stroke="#567bd8" stroke-width="2" d="M571,-684C571,-684 467,-684 467,-684 461,-684 455,-678 455,-672 455,-672 455,-660 455,-660 455,-654 461,-648 467,-648 467,-648 571,-648 571,-648 577,-648 583,-654 583,-660 583,-660 583,-672 583,-672 583,-678 577,-684 571,-684"/>
<text text-anchor="middle" x="519" y="-663.5" font-family="sans" font-size="10.00">assemble_metaspades</text>
</g>
<!-- 3&#45;&gt;0 -->
<g id="edge1" class="edge"><title>3&#45;&gt;0</title>
<path fill="none" stroke="grey" stroke-width="2" d="M519,-647.697C519,-639.983 519,-630.712 519,-622.112"/>
<polygon fill="grey" stroke="grey" stroke-width="2" points="522.5,-622.104 519,-612.104 515.5,-622.104 522.5,-622.104"/>
</g>
<!-- 4 -->
<g id="node5" class="node"><title>4</title>
<path fill="none" stroke="#5663d8" stroke-width="2" d="M1088,-108C1088,-108 1012,-108 1012,-108 1006,-108 1000,-102 1000,-96 1000,-96 1000,-84 1000,-84 1000,-78 1006,-72 1012,-72 1012,-72 1088,-72 1088,-72 1094,-72 1100,-78 1100,-84 1100,-84 1100,-96 1100,-96 1100,-102 1094,-108 1088,-108"/>
<text text-anchor="middle" x="1050" y="-87.5" font-family="sans" font-size="10.00">anvi_add_maxbin</text>
</g>
<!-- 40 -->
<g id="node41" class="node"><title>40</title>
<path fill="none" stroke="#565bd8" stroke-width="2" d="M630,-36C630,-36 600,-36 600,-36 594,-36 588,-30 588,-24 588,-24 588,-12 588,-12 588,-6 594,-0 600,-0 600,-0 630,-0 630,-0 636,-0 642,-6 642,-12 642,-12 642,-24 642,-24 642,-30 636,-36 630,-36"/>
<text text-anchor="middle" x="615" y="-15.5" font-family="sans" font-size="10.00">anvio</text>
</g>
<!-- 4&#45;&gt;40 -->
<g id="edge75" class="edge"><title>4&#45;&gt;40</title>
<path fill="none" stroke="grey" stroke-width="2" d="M999.675,-80.9017C911.459,-66.7061 730.854,-37.6431 652.571,-25.046"/>
<polygon fill="grey" stroke="grey" stroke-width="2" points="652.654,-21.5143 642.225,-23.381 651.542,-28.4254 652.654,-21.5143"/>
</g>
<!-- 5&#45;&gt;12 -->
<g id="edge21" class="edge"><title>5&#45;&gt;12</title>
<path fill="none" stroke="grey" stroke-width="2" d="M292.231,-503.994C346.439,-472.794 450,-400.901 450,-307 450,-307 450,-307 450,-233 450,-190.955 468.8,-145.293 482.62,-117.407"/>
<polygon fill="grey" stroke="grey" stroke-width="2" points="485.83,-118.817 487.262,-108.32 479.596,-115.633 485.83,-118.817"/>
</g>
<!-- 16 -->
<g id="node17" class="node"><title>16</title>
<path fill="none" stroke="#56d85b" stroke-width="2" d="M258,-396C258,-396 154,-396 154,-396 148,-396 142,-390 142,-384 142,-384 142,-372 142,-372 142,-366 148,-360 154,-360 154,-360 258,-360 258,-360 264,-360 270,-366 270,-372 270,-372 270,-384 270,-384 270,-390 264,-396 258,-396"/>
<text text-anchor="middle" x="206" y="-375.5" font-family="sans" font-size="10.00">anvi_export_gene_calls</text>
</g>
<!-- 5&#45;&gt;16 -->
<g id="edge32" class="edge"><title>5&#45;&gt;16</title>
<path fill="none" stroke="grey" stroke-width="2" d="M257.939,-503.727C255.338,-485.388 249.95,-455.819 240,-432 236.059,-422.567 230.461,-412.953 224.941,-404.55"/>
<polygon fill="grey" stroke="grey" stroke-width="2" points="227.825,-402.567 219.291,-396.288 222.047,-406.518 227.825,-402.567"/>
</g>
<!-- 18 -->
<g id="node19" class="node"><title>18</title>
<path fill="none" stroke="#56d86b" stroke-width="2" d="M219.5,-468C219.5,-468 150.5,-468 150.5,-468 144.5,-468 138.5,-462 138.5,-456 138.5,-456 138.5,-444 138.5,-444 138.5,-438 144.5,-432 150.5,-432 150.5,-432 219.5,-432 219.5,-432 225.5,-432 231.5,-438 231.5,-444 231.5,-444 231.5,-456 231.5,-456 231.5,-462 225.5,-468 219.5,-468"/>
<text text-anchor="middle" x="185" y="-447.5" font-family="sans" font-size="10.00">anvi_run_hmms</text>
</g>
<!-- 5&#45;&gt;18 -->
<g id="edge36" class="edge"><title>5&#45;&gt;18</title>
<path fill="none" stroke="grey" stroke-width="2" d="M241.461,-503.697C232.197,-495.05 220.838,-484.449 210.743,-475.027"/>
<polygon fill="grey" stroke="grey" stroke-width="2" points="213.025,-472.369 203.326,-468.104 208.249,-477.486 213.025,-472.369"/>
</g>
<!-- 21 -->
<g id="node22" class="node"><title>21</title>
<path fill="none" stroke="#56d8b1" stroke-width="2" d="M261.5,-108C261.5,-108 190.5,-108 190.5,-108 184.5,-108 178.5,-102 178.5,-96 178.5,-96 178.5,-84 178.5,-84 178.5,-78 184.5,-72 190.5,-72 190.5,-72 261.5,-72 261.5,-72 267.5,-72 273.5,-78 273.5,-84 273.5,-84 273.5,-96 273.5,-96 273.5,-102 267.5,-108 261.5,-108"/>
<text text-anchor="middle" x="226" y="-87.5" font-family="sans" font-size="10.00">anvi_summarize</text>
</g>
<!-- 5&#45;&gt;21 -->
<g id="edge40" class="edge"><title>5&#45;&gt;21</title>
<path fill="none" stroke="grey" stroke-width="2" d="M185.019,-515.83C142.775,-509.69 91.0249,-496.44 53,-468 16.1328,-440.426 0,-425.038 0,-379 0,-379 0,-379 0,-233 0,-153.554 101.367,-116.83 168.326,-101.239"/>
<polygon fill="grey" stroke="grey" stroke-width="2" points="169.35,-104.596 178.347,-99.0018 167.825,-97.7645 169.35,-104.596"/>
</g>
<!-- 22 -->
<g id="node23" class="node"><title>22</title>
<path fill="none" stroke="#d86e56" stroke-width="2" d="M296,-324C296,-324 210,-324 210,-324 204,-324 198,-318 198,-312 198,-312 198,-300 198,-300 198,-294 204,-288 210,-288 210,-288 296,-288 296,-288 302,-288 308,-294 308,-300 308,-300 308,-312 308,-312 308,-318 302,-324 296,-324"/>
<text text-anchor="middle" x="253" y="-303.5" font-family="sans" font-size="10.00">anvi_run_centrifuge</text>
</g>
<!-- 5&#45;&gt;22 -->
<g id="edge42" class="edge"><title>5&#45;&gt;22</title>
<path fill="none" stroke="grey" stroke-width="2" d="M265.842,-503.866C275.108,-474.211 290.962,-411.543 279,-360 276.902,-350.959 273.034,-341.681 268.912,-333.467"/>
<polygon fill="grey" stroke="grey" stroke-width="2" points="271.855,-331.55 264.046,-324.389 265.686,-334.857 271.855,-331.55"/>
</g>
<!-- 32 -->
<g id="node33" class="node"><title>32</title>
<path fill="none" stroke="#56d8d0" stroke-width="2" d="M217.5,-252C217.5,-252 170.5,-252 170.5,-252 164.5,-252 158.5,-246 158.5,-240 158.5,-240 158.5,-228 158.5,-228 158.5,-222 164.5,-216 170.5,-216 170.5,-216 217.5,-216 217.5,-216 223.5,-216 229.5,-222 229.5,-228 229.5,-228 229.5,-240 229.5,-240 229.5,-246 223.5,-252 217.5,-252"/>
<text text-anchor="middle" x="194" y="-231.5" font-family="sans" font-size="10.00">anvi_profile</text>
</g>
<!-- 5&#45;&gt;32 -->
<g id="edge56" class="edge"><title>5&#45;&gt;32</title>
<path fill="none" stroke="grey" stroke-width="2" d="M185.19,-507.41C163.428,-499.607 142.029,-487.326 129,-468 84.3403,-401.755 141.951,-305.297 174.495,-260.112"/>
<polygon fill="grey" stroke="grey" stroke-width="2" points="177.331,-262.164 180.441,-252.036 171.694,-258.014 177.331,-262.164"/>
</g>
<!-- 34 -->
<g id="node35" class="node"><title>34</title>
<path fill="none" stroke="#d89c56" stroke-width="2" d="M250.5,-180C250.5,-180 201.5,-180 201.5,-180 195.5,-180 189.5,-174 189.5,-168 189.5,-168 189.5,-156 189.5,-156 189.5,-150 195.5,-144 201.5,-144 201.5,-144 250.5,-144 250.5,-144 256.5,-144 262.5,-150 262.5,-156 262.5,-156 262.5,-168 262.5,-168 262.5,-174 256.5,-180 250.5,-180"/>
<text text-anchor="middle" x="226" y="-159.5" font-family="sans" font-size="10.00">anvi_merge</text>
</g>
<!-- 5&#45;&gt;34 -->
<g id="edge61" class="edge"><title>5&#45;&gt;34</title>
<path fill="none" stroke="grey" stroke-width="2" d="M185.46,-505.771C120.966,-487.727 38,-450.601 38,-379 38,-379 38,-379 38,-305 38,-234.194 123.962,-194.217 179.631,-175.752"/>
<polygon fill="grey" stroke="grey" stroke-width="2" points="180.848,-179.037 189.305,-172.657 178.714,-172.37 180.848,-179.037"/>
</g>
<!-- 35 -->
<g id="node36" class="node"><title>35</title>
<path fill="none" stroke="#56d8d0" stroke-width="2" d="M354.5,-252C354.5,-252 307.5,-252 307.5,-252 301.5,-252 295.5,-246 295.5,-240 295.5,-240 295.5,-228 295.5,-228 295.5,-222 301.5,-216 307.5,-216 307.5,-216 354.5,-216 354.5,-216 360.5,-216 366.5,-222 366.5,-228 366.5,-228 366.5,-240 366.5,-240 366.5,-246 360.5,-252 354.5,-252"/>
<text text-anchor="middle" x="331" y="-231.5" font-family="sans" font-size="10.00">anvi_profile</text>
</g>
<!-- 5&#45;&gt;35 -->
<g id="edge66" class="edge"><title>5&#45;&gt;35</title>
<path fill="none" stroke="grey" stroke-width="2" d="M273.155,-503.764C280.106,-493.816 288.176,-480.777 293,-468 319.816,-396.977 327.721,-306.751 330.042,-262.292"/>
<polygon fill="grey" stroke="grey" stroke-width="2" points="333.539,-262.417 330.509,-252.265 326.547,-262.091 333.539,-262.417"/>
</g>
<!-- 6 -->
<g id="node7" class="node"><title>6</title>
<path fill="none" stroke="#d8bc56" stroke-width="2" d="M1226.5,-468C1226.5,-468 1147.5,-468 1147.5,-468 1141.5,-468 1135.5,-462 1135.5,-456 1135.5,-456 1135.5,-444 1135.5,-444 1135.5,-438 1141.5,-432 1147.5,-432 1147.5,-432 1226.5,-432 1226.5,-432 1232.5,-432 1238.5,-438 1238.5,-444 1238.5,-444 1238.5,-456 1238.5,-456 1238.5,-462 1232.5,-468 1226.5,-468"/>
<text text-anchor="middle" x="1187" y="-453" font-family="sans" font-size="10.00">map_bowtie2</text>
<text text-anchor="middle" x="1187" y="-442" font-family="sans" font-size="10.00">abund_sample: Vf</text>
</g>
<!-- 13 -->
<g id="node14" class="node"><title>13</title>
<path fill="none" stroke="#56d8d0" stroke-width="2" d="M940.5,-252C940.5,-252 893.5,-252 893.5,-252 887.5,-252 881.5,-246 881.5,-240 881.5,-240 881.5,-228 881.5,-228 881.5,-222 887.5,-216 893.5,-216 893.5,-216 940.5,-216 940.5,-216 946.5,-216 952.5,-222 952.5,-228 952.5,-228 952.5,-240 952.5,-240 952.5,-246 946.5,-252 940.5,-252"/>
<text text-anchor="middle" x="917" y="-231.5" font-family="sans" font-size="10.00">anvi_profile</text>
</g>
<!-- 6&#45;&gt;13 -->
<g id="edge23" class="edge"><title>6&#45;&gt;13</title>
<path fill="none" stroke="grey" stroke-width="2" d="M1175.73,-431.643C1153.99,-399.36 1103.23,-329.595 1045,-288 1019.92,-270.086 987.883,-256.828 962.133,-248.052"/>
<polygon fill="grey" stroke="grey" stroke-width="2" points="963.192,-244.716 952.599,-244.907 961,-251.363 963.192,-244.716"/>
</g>
<!-- 39 -->
<g id="node40" class="node"><title>39</title>
<path fill="none" stroke="#56d863" stroke-width="2" d="M1351.5,-396C1351.5,-396 1266.5,-396 1266.5,-396 1260.5,-396 1254.5,-390 1254.5,-384 1254.5,-384 1254.5,-372 1254.5,-372 1254.5,-366 1260.5,-360 1266.5,-360 1266.5,-360 1351.5,-360 1351.5,-360 1357.5,-360 1363.5,-366 1363.5,-372 1363.5,-372 1363.5,-384 1363.5,-384 1363.5,-390 1357.5,-396 1351.5,-396"/>
<text text-anchor="middle" x="1309" y="-375.5" font-family="sans" font-size="10.00">bin_make_cov_files</text>
</g>
<!-- 6&#45;&gt;39 -->
<g id="edge73" class="edge"><title>6&#45;&gt;39</title>
<path fill="none" stroke="grey" stroke-width="2" d="M1216.84,-431.876C1232.94,-422.639 1253,-411.131 1270.29,-401.212"/>
<polygon fill="grey" stroke="grey" stroke-width="2" points="1272.11,-404.202 1279.04,-396.19 1268.63,-398.131 1272.11,-404.202"/>
</g>
<!-- 7&#45;&gt;1 -->
<g id="edge3" class="edge"><title>7&#45;&gt;1</title>
<path fill="none" stroke="grey" stroke-width="2" d="M576,-359.697C576,-351.983 576,-342.712 576,-334.112"/>
<polygon fill="grey" stroke="grey" stroke-width="2" points="579.5,-334.104 576,-324.104 572.5,-334.104 579.5,-334.104"/>
</g>
<!-- 8 -->
<g id="node9" class="node"><title>8</title>
<path fill="none" stroke="#d88556" stroke-width="2" d="M1349.5,-540C1349.5,-540 1262.5,-540 1262.5,-540 1256.5,-540 1250.5,-534 1250.5,-528 1250.5,-528 1250.5,-516 1250.5,-516 1250.5,-510 1256.5,-504 1262.5,-504 1262.5,-504 1349.5,-504 1349.5,-504 1355.5,-504 1361.5,-510 1361.5,-516 1361.5,-516 1361.5,-528 1361.5,-528 1361.5,-534 1355.5,-540 1349.5,-540"/>
<text text-anchor="middle" x="1306" y="-525" font-family="sans" font-size="10.00">map_bowtie2_index</text>
<text text-anchor="middle" x="1306" y="-514" font-family="sans" font-size="10.00">bin_sample: Bs</text>
</g>
<!-- 8&#45;&gt;6 -->
<g id="edge11" class="edge"><title>8&#45;&gt;6</title>
<path fill="none" stroke="grey" stroke-width="2" d="M1276.89,-503.876C1261.33,-494.724 1241.98,-483.342 1225.22,-473.485"/>
<polygon fill="grey" stroke="grey" stroke-width="2" points="1226.62,-470.243 1216.22,-468.19 1223.07,-476.277 1226.62,-470.243"/>
</g>
<!-- 17 -->
<g id="node18" class="node"><title>17</title>
<path fill="none" stroke="#d8bc56" stroke-width="2" d="M1349.5,-468C1349.5,-468 1268.5,-468 1268.5,-468 1262.5,-468 1256.5,-462 1256.5,-456 1256.5,-456 1256.5,-444 1256.5,-444 1256.5,-438 1262.5,-432 1268.5,-432 1268.5,-432 1349.5,-432 1349.5,-432 1355.5,-432 1361.5,-438 1361.5,-444 1361.5,-444 1361.5,-456 1361.5,-456 1361.5,-462 1355.5,-468 1349.5,-468"/>
<text text-anchor="middle" x="1309" y="-453" font-family="sans" font-size="10.00">map_bowtie2</text>
<text text-anchor="middle" x="1309" y="-442" font-family="sans" font-size="10.00">abund_sample: Bs</text>
</g>
<!-- 8&#45;&gt;17 -->
<g id="edge35" class="edge"><title>8&#45;&gt;17</title>
<path fill="none" stroke="grey" stroke-width="2" d="M1306.74,-503.697C1307.07,-495.983 1307.47,-486.712 1307.84,-478.112"/>
<polygon fill="grey" stroke="grey" stroke-width="2" points="1311.34,-478.245 1308.27,-468.104 1304.34,-477.945 1311.34,-478.245"/>
</g>
<!-- 9 -->
<g id="node10" class="node"><title>9</title>
<path fill="none" stroke="#56d86b" stroke-width="2" d="M935.5,-468C935.5,-468 866.5,-468 866.5,-468 860.5,-468 854.5,-462 854.5,-456 854.5,-456 854.5,-444 854.5,-444 854.5,-438 860.5,-432 866.5,-432 866.5,-432 935.5,-432 935.5,-432 941.5,-432 947.5,-438 947.5,-444 947.5,-444 947.5,-456 947.5,-456 947.5,-462 941.5,-468 935.5,-468"/>
<text text-anchor="middle" x="901" y="-447.5" font-family="sans" font-size="10.00">anvi_run_hmms</text>
</g>
<!-- 14 -->
<g id="node15" class="node"><title>14</title>
<path fill="none" stroke="#d89c56" stroke-width="2" d="M941.5,-180C941.5,-180 892.5,-180 892.5,-180 886.5,-180 880.5,-174 880.5,-168 880.5,-168 880.5,-156 880.5,-156 880.5,-150 886.5,-144 892.5,-144 892.5,-144 941.5,-144 941.5,-144 947.5,-144 953.5,-150 953.5,-156 953.5,-156 953.5,-168 953.5,-168 953.5,-174 947.5,-180 941.5,-180"/>
<text text-anchor="middle" x="917" y="-159.5" font-family="sans" font-size="10.00">anvi_merge</text>
</g>
<!-- 9&#45;&gt;14 -->
<g id="edge27" class="edge"><title>9&#45;&gt;14</title>
<path fill="none" stroke="grey" stroke-width="2" d="M885.817,-431.703C878.268,-421.939 869.934,-409.095 866,-396 854.848,-358.876 836.02,-308.001 872,-216 876.065,-205.607 883.063,-195.808 890.345,-187.53"/>
<polygon fill="grey" stroke="grey" stroke-width="2" points="893.037,-189.776 897.328,-180.089 887.932,-184.986 893.037,-189.776"/>
</g>
<!-- 31 -->
<g id="node32" class="node"><title>31</title>
<path fill="none" stroke="#56d85b" stroke-width="2" d="M991,-396C991,-396 887,-396 887,-396 881,-396 875,-390 875,-384 875,-384 875,-372 875,-372 875,-366 881,-360 887,-360 887,-360 991,-360 991,-360 997,-360 1003,-366 1003,-372 1003,-372 1003,-384 1003,-384 1003,-390 997,-396 991,-396"/>
<text text-anchor="middle" x="939" y="-375.5" font-family="sans" font-size="10.00">anvi_export_gene_calls</text>
</g>
<!-- 9&#45;&gt;31 -->
<g id="edge54" class="edge"><title>9&#45;&gt;31</title>
<path fill="none" stroke="grey" stroke-width="2" d="M910.393,-431.697C914.765,-423.644 920.057,-413.894 924.895,-404.982"/>
<polygon fill="grey" stroke="grey" stroke-width="2" points="928.02,-406.563 929.715,-396.104 921.868,-403.223 928.02,-406.563"/>
</g>
<!-- 10 -->
<g id="node11" class="node"><title>10</title>
<path fill="none" stroke="#97d856" stroke-width="2" d="M1038.5,-540C1038.5,-540 913.5,-540 913.5,-540 907.5,-540 901.5,-534 901.5,-528 901.5,-528 901.5,-516 901.5,-516 901.5,-510 907.5,-504 913.5,-504 913.5,-504 1038.5,-504 1038.5,-504 1044.5,-504 1050.5,-510 1050.5,-516 1050.5,-516 1050.5,-528 1050.5,-528 1050.5,-534 1044.5,-540 1038.5,-540"/>
<text text-anchor="middle" x="976" y="-525" font-family="sans" font-size="10.00">anvi_gen_contigs_database</text>
<text text-anchor="middle" x="976" y="-514" font-family="sans" font-size="10.00">bin_sample: Bs</text>
</g>
<!-- 10&#45;&gt;4 -->
<g id="edge6" class="edge"><title>10&#45;&gt;4</title>
<path fill="none" stroke="grey" stroke-width="2" d="M1013.01,-503.807C1072.55,-473.293 1183,-403.66 1183,-307 1183,-307 1183,-307 1183,-233 1183,-179.215 1131.54,-137.4 1092.64,-113.474"/>
<polygon fill="grey" stroke="grey" stroke-width="2" points="1093.94,-110.176 1083.56,-108.067 1090.36,-116.19 1093.94,-110.176"/>
</g>
<!-- 10&#45;&gt;9 -->
<g id="edge16" class="edge"><title>10&#45;&gt;9</title>
<path fill="none" stroke="grey" stroke-width="2" d="M957.461,-503.697C948.197,-495.05 936.838,-484.449 926.743,-475.027"/>
<polygon fill="grey" stroke="grey" stroke-width="2" points="929.025,-472.369 919.326,-468.104 924.249,-477.486 929.025,-472.369"/>
</g>
<!-- 10&#45;&gt;13 -->
<g id="edge22" class="edge"><title>10&#45;&gt;13</title>
<path fill="none" stroke="grey" stroke-width="2" d="M901.19,-507.41C879.428,-499.607 858.029,-487.326 845,-468 800.087,-401.38 861.325,-305.494 896.018,-260.339"/>
<polygon fill="grey" stroke="grey" stroke-width="2" points="898.937,-262.289 902.359,-252.262 893.431,-257.966 898.937,-262.289"/>
</g>
<!-- 10&#45;&gt;14 -->
<g id="edge26" class="edge"><title>10&#45;&gt;14</title>
<path fill="none" stroke="grey" stroke-width="2" d="M901.315,-505.068C875.85,-497.009 848.427,-485.167 827,-468 790.528,-438.779 771,-425.734 771,-379 771,-379 771,-379 771,-305 771,-248.222 828.444,-206.802 871.268,-183.814"/>
<polygon fill="grey" stroke="grey" stroke-width="2" points="872.902,-186.909 880.158,-179.189 869.671,-180.699 872.902,-186.909"/>
</g>
<!-- 29 -->
<g id="node30" class="node"><title>29</title>
<path fill="none" stroke="#56d8d0" stroke-width="2" d="M1080.5,-252C1080.5,-252 1033.5,-252 1033.5,-252 1027.5,-252 1021.5,-246 1021.5,-240 1021.5,-240 1021.5,-228 1021.5,-228 1021.5,-222 1027.5,-216 1033.5,-216 1033.5,-216 1080.5,-216 1080.5,-216 1086.5,-216 1092.5,-222 1092.5,-228 1092.5,-228 1092.5,-240 1092.5,-240 1092.5,-246 1086.5,-252 1080.5,-252"/>
<text text-anchor="middle" x="1057" y="-231.5" font-family="sans" font-size="10.00">anvi_profile</text>
</g>
<!-- 10&#45;&gt;29 -->
<g id="edge48" class="edge"><title>10&#45;&gt;29</title>
<path fill="none" stroke="grey" stroke-width="2" d="M994.985,-503.617C1004.29,-494.021 1014.8,-481.358 1021,-468 1053.08,-398.887 1057.54,-307.086 1057.59,-262.136"/>
<polygon fill="grey" stroke="grey" stroke-width="2" points="1061.09,-261.989 1057.52,-252.012 1054.09,-262.035 1061.09,-261.989"/>
</g>
<!-- 10&#45;&gt;31 -->
<g id="edge53" class="edge"><title>10&#45;&gt;31</title>
<path fill="none" stroke="grey" stroke-width="2" d="M972.616,-503.826C968.957,-485.82 962.737,-456.755 956,-432 953.655,-423.383 950.787,-414.079 948.08,-405.709"/>
<polygon fill="grey" stroke="grey" stroke-width="2" points="951.358,-404.472 944.903,-396.07 944.709,-406.663 951.358,-404.472"/>
</g>
<!-- 36 -->
<g id="node37" class="node"><title>36</title>
<path fill="none" stroke="#d86e56" stroke-width="2" d="M1024,-324C1024,-324 938,-324 938,-324 932,-324 926,-318 926,-312 926,-312 926,-300 926,-300 926,-294 932,-288 938,-288 938,-288 1024,-288 1024,-288 1030,-288 1036,-294 1036,-300 1036,-300 1036,-312 1036,-312 1036,-318 1030,-324 1024,-324"/>
<text text-anchor="middle" x="981" y="-303.5" font-family="sans" font-size="10.00">anvi_run_centrifuge</text>
</g>
<!-- 10&#45;&gt;36 -->
<g id="edge67" class="edge"><title>10&#45;&gt;36</title>
<path fill="none" stroke="grey" stroke-width="2" d="M985.252,-503.957C1000.07,-474.438 1026.08,-411.972 1012,-360 1009.42,-350.48 1004.66,-340.917 999.622,-332.587"/>
<polygon fill="grey" stroke="grey" stroke-width="2" points="1002.51,-330.601 994.146,-324.092 996.622,-334.393 1002.51,-330.601"/>
</g>
<!-- 37 -->
<g id="node38" class="node"><title>37</title>
<path fill="none" stroke="#56d8b1" stroke-width="2" d="M768.5,-108C768.5,-108 697.5,-108 697.5,-108 691.5,-108 685.5,-102 685.5,-96 685.5,-96 685.5,-84 685.5,-84 685.5,-78 691.5,-72 697.5,-72 697.5,-72 768.5,-72 768.5,-72 774.5,-72 780.5,-78 780.5,-84 780.5,-84 780.5,-96 780.5,-96 780.5,-102 774.5,-108 768.5,-108"/>
<text text-anchor="middle" x="733" y="-87.5" font-family="sans" font-size="10.00">anvi_summarize</text>
</g>
<!-- 10&#45;&gt;37 -->
<g id="edge69" class="edge"><title>10&#45;&gt;37</title>
<path fill="none" stroke="grey" stroke-width="2" d="M901.12,-513.979C862.869,-507.22 817.467,-493.968 784,-468 747.981,-440.052 733,-424.59 733,-379 733,-379 733,-379 733,-233 733,-192.996 733,-146.653 733,-118.08"/>
<polygon fill="grey" stroke="grey" stroke-width="2" points="736.5,-118.049 733,-108.049 729.5,-118.049 736.5,-118.049"/>
</g>
<!-- 11 -->
<g id="node12" class="node"><title>11</title>
<path fill="none" stroke="#78d856" stroke-width="2" d="M556,-828C556,-828 482,-828 482,-828 476,-828 470,-822 470,-816 470,-816 470,-804 470,-804 470,-798 476,-792 482,-792 482,-792 556,-792 556,-792 562,-792 568,-798 568,-804 568,-804 568,-816 568,-816 568,-822 562,-828 556,-828"/>
<text text-anchor="middle" x="519" y="-813" font-family="sans" font-size="10.00">qc_atropos</text>
<text text-anchor="middle" x="519" y="-802" font-family="sans" font-size="10.00">trimmer: atropos</text>
</g>
<!-- 19 -->
<g id="node20" class="node"><title>19</title>
<path fill="none" stroke="#56a2d8" stroke-width="2" d="M534,-756C534,-756 504,-756 504,-756 498,-756 492,-750 492,-744 492,-744 492,-732 492,-732 492,-726 498,-720 504,-720 504,-720 534,-720 534,-720 540,-720 546,-726 546,-732 546,-732 546,-744 546,-744 546,-750 540,-756 534,-756"/>
<text text-anchor="middle" x="519" y="-735.5" font-family="sans" font-size="10.00">qc_filter</text>
</g>
<!-- 11&#45;&gt;19 -->
<g id="edge37" class="edge"><title>11&#45;&gt;19</title>
<path fill="none" stroke="grey" stroke-width="2" d="M519,-791.697C519,-783.983 519,-774.712 519,-766.112"/>
<polygon fill="grey" stroke="grey" stroke-width="2" points="522.5,-766.104 519,-756.104 515.5,-766.104 522.5,-766.104"/>
</g>
<!-- 12&#45;&gt;40 -->
<g id="edge76" class="edge"><title>12&#45;&gt;40</title>
<path fill="none" stroke="grey" stroke-width="2" d="M525.866,-71.8761C541.755,-62.4504 561.63,-50.6602 578.578,-40.6065"/>
<polygon fill="grey" stroke="grey" stroke-width="2" points="580.833,-43.338 587.648,-35.2257 577.262,-37.3176 580.833,-43.338"/>
</g>
<!-- 13&#45;&gt;14 -->
<g id="edge25" class="edge"><title>13&#45;&gt;14</title>
<path fill="none" stroke="grey" stroke-width="2" d="M917,-215.697C917,-207.983 917,-198.712 917,-190.112"/>
<polygon fill="grey" stroke="grey" stroke-width="2" points="920.5,-190.104 917,-180.104 913.5,-190.104 920.5,-190.104"/>
</g>
<!-- 14&#45;&gt;4 -->
<g id="edge7" class="edge"><title>14&#45;&gt;4</title>
<path fill="none" stroke="grey" stroke-width="2" d="M949.535,-143.876C967.247,-134.554 989.353,-122.919 1008.32,-112.939"/>
<polygon fill="grey" stroke="grey" stroke-width="2" points="1010.12,-115.944 1017.34,-108.19 1006.86,-109.75 1010.12,-115.944"/>
</g>
<!-- 14&#45;&gt;37 -->
<g id="edge70" class="edge"><title>14&#45;&gt;37</title>
<path fill="none" stroke="grey" stroke-width="2" d="M880.207,-147.003C853.615,-136.886 817.258,-123.055 787.33,-111.669"/>
<polygon fill="grey" stroke="grey" stroke-width="2" points="788.451,-108.351 777.86,-108.066 785.962,-114.893 788.451,-108.351"/>
</g>
<!-- 15 -->
<g id="node16" class="node"><title>15</title>
<path fill="none" stroke="#d87556" stroke-width="2" d="M1343,-324C1343,-324 1275,-324 1275,-324 1269,-324 1263,-318 1263,-312 1263,-312 1263,-300 1263,-300 1263,-294 1269,-288 1275,-288 1275,-288 1343,-288 1343,-288 1349,-288 1355,-294 1355,-300 1355,-300 1355,-312 1355,-312 1355,-318 1349,-324 1343,-324"/>
<text text-anchor="middle" x="1309" y="-303.5" font-family="sans" font-size="10.00">bin_run_maxbin</text>
</g>
<!-- 23 -->
<g id="node24" class="node"><title>23</title>
<path fill="none" stroke="#61d856" stroke-width="2" d="M1320.5,-180C1320.5,-180 1233.5,-180 1233.5,-180 1227.5,-180 1221.5,-174 1221.5,-168 1221.5,-168 1221.5,-156 1221.5,-156 1221.5,-150 1227.5,-144 1233.5,-144 1233.5,-144 1320.5,-144 1320.5,-144 1326.5,-144 1332.5,-150 1332.5,-156 1332.5,-156 1332.5,-168 1332.5,-168 1332.5,-174 1326.5,-180 1320.5,-180"/>
<text text-anchor="middle" x="1277" y="-159.5" font-family="sans" font-size="10.00">summarize_maxbin</text>
</g>
<!-- 15&#45;&gt;23 -->
<g id="edge43" class="edge"><title>15&#45;&gt;23</title>
<path fill="none" stroke="grey" stroke-width="2" d="M1305.14,-287.871C1299.66,-263.564 1289.58,-218.819 1283.09,-190.013"/>
<polygon fill="grey" stroke="grey" stroke-width="2" points="1286.49,-189.175 1280.87,-180.189 1279.66,-190.714 1286.49,-189.175"/>
</g>
<!-- 16&#45;&gt;22 -->
<g id="edge41" class="edge"><title>16&#45;&gt;22</title>
<path fill="none" stroke="grey" stroke-width="2" d="M217.618,-359.697C223.139,-351.474 229.847,-341.483 235.932,-332.421"/>
<polygon fill="grey" stroke="grey" stroke-width="2" points="238.847,-334.358 241.516,-324.104 233.035,-330.456 238.847,-334.358"/>
</g>
<!-- 17&#45;&gt;29 -->
<g id="edge49" class="edge"><title>17&#45;&gt;29</title>
<path fill="none" stroke="grey" stroke-width="2" d="M1288.14,-431.944C1275.58,-421.618 1259.29,-408.141 1245,-396 1189.3,-348.689 1176.7,-335.311 1121,-288 1109.5,-278.231 1096.71,-267.595 1085.61,-258.433"/>
<polygon fill="grey" stroke="grey" stroke-width="2" points="1087.81,-255.711 1077.86,-252.056 1083.36,-261.115 1087.81,-255.711"/>
</g>
<!-- 17&#45;&gt;39 -->
<g id="edge74" class="edge"><title>17&#45;&gt;39</title>
<path fill="none" stroke="grey" stroke-width="2" d="M1309,-431.697C1309,-423.983 1309,-414.712 1309,-406.112"/>
<polygon fill="grey" stroke="grey" stroke-width="2" points="1312.5,-406.104 1309,-396.104 1305.5,-406.104 1312.5,-406.104"/>
</g>
<!-- 18&#45;&gt;16 -->
<g id="edge33" class="edge"><title>18&#45;&gt;16</title>
<path fill="none" stroke="grey" stroke-width="2" d="M190.191,-431.697C192.531,-423.898 195.347,-414.509 197.951,-405.829"/>
<polygon fill="grey" stroke="grey" stroke-width="2" points="201.348,-406.688 200.869,-396.104 194.643,-404.677 201.348,-406.688"/>
</g>
<!-- 18&#45;&gt;34 -->
<g id="edge62" class="edge"><title>18&#45;&gt;34</title>
<path fill="none" stroke="grey" stroke-width="2" d="M161.248,-431.91C150.447,-422.651 138.803,-410.2 133,-396 115.922,-354.208 103.368,-292.245 149,-216 156.511,-203.45 168.277,-193.167 180.371,-185.112"/>
<polygon fill="grey" stroke="grey" stroke-width="2" points="182.532,-187.889 189.179,-179.639 178.838,-181.944 182.532,-187.889"/>
</g>
<!-- 19&#45;&gt;3 -->
<g id="edge5" class="edge"><title>19&#45;&gt;3</title>
<path fill="none" stroke="grey" stroke-width="2" d="M519,-719.697C519,-711.983 519,-702.712 519,-694.112"/>
<polygon fill="grey" stroke="grey" stroke-width="2" points="522.5,-694.104 519,-684.104 515.5,-694.104 522.5,-694.104"/>
</g>
<!-- 19&#45;&gt;6 -->
<g id="edge10" class="edge"><title>19&#45;&gt;6</title>
<path fill="none" stroke="grey" stroke-width="2" d="M546.153,-729.791C627.034,-707.759 872.324,-636.875 1059,-540 1095.05,-521.294 1132.81,-493.944 1157.89,-474.507"/>
<polygon fill="grey" stroke="grey" stroke-width="2" points="1160.18,-477.163 1165.89,-468.242 1155.86,-471.652 1160.18,-477.163"/>
</g>
<!-- 25 -->
<g id="node26" class="node"><title>25</title>
<path fill="none" stroke="#d8bc56" stroke-width="2" d="M493.5,-468C493.5,-468 414.5,-468 414.5,-468 408.5,-468 402.5,-462 402.5,-456 402.5,-456 402.5,-444 402.5,-444 402.5,-438 408.5,-432 414.5,-432 414.5,-432 493.5,-432 493.5,-432 499.5,-432 505.5,-438 505.5,-444 505.5,-444 505.5,-456 505.5,-456 505.5,-462 499.5,-468 493.5,-468"/>
<text text-anchor="middle" x="454" y="-453" font-family="sans" font-size="10.00">map_bowtie2</text>
<text text-anchor="middle" x="454" y="-442" font-family="sans" font-size="10.00">abund_sample: Vf</text>
</g>
<!-- 19&#45;&gt;25 -->
<g id="edge44" class="edge"><title>19&#45;&gt;25</title>
<path fill="none" stroke="grey" stroke-width="2" d="M491.818,-722.789C476.483,-713.554 458.041,-700.223 446,-684 425.811,-656.8 426.634,-645.402 421,-612 412.992,-564.525 429.878,-509.687 442.32,-477.819"/>
<polygon fill="grey" stroke="grey" stroke-width="2" points="445.658,-478.9 446.166,-468.317 439.17,-476.273 445.658,-478.9"/>
</g>
<!-- 20 -->
<g id="node21" class="node"><title>20</title>
<path fill="none" stroke="#56d8c1" stroke-width="2" d="M1399,-612C1399,-612 1245,-612 1245,-612 1239,-612 1233,-606 1233,-600 1233,-600 1233,-588 1233,-588 1233,-582 1239,-576 1245,-576 1245,-576 1399,-576 1399,-576 1405,-576 1411,-582 1411,-588 1411,-588 1411,-600 1411,-600 1411,-606 1405,-612 1399,-612"/>
<text text-anchor="middle" x="1322" y="-597" font-family="sans" font-size="10.00">assemble_simplify_fasta_headers</text>
<text text-anchor="middle" x="1322" y="-586" font-family="sans" font-size="10.00">assembler: metaspades</text>
</g>
<!-- 20&#45;&gt;8 -->
<g id="edge15" class="edge"><title>20&#45;&gt;8</title>
<path fill="none" stroke="grey" stroke-width="2" d="M1318.04,-575.697C1316.28,-567.983 1314.16,-558.712 1312.2,-550.112"/>
<polygon fill="grey" stroke="grey" stroke-width="2" points="1315.55,-549.073 1309.91,-540.104 1308.73,-550.633 1315.55,-549.073"/>
</g>
<!-- 20&#45;&gt;10 -->
<g id="edge17" class="edge"><title>20&#45;&gt;10</title>
<path fill="none" stroke="grey" stroke-width="2" d="M1237.8,-575.966C1183.94,-565.07 1114.33,-550.987 1060.43,-540.081"/>
<polygon fill="grey" stroke="grey" stroke-width="2" points="1061.05,-536.636 1050.56,-538.084 1059.66,-543.497 1061.05,-536.636"/>
</g>
<!-- 20&#45;&gt;15 -->
<g id="edge30" class="edge"><title>20&#45;&gt;15</title>
<path fill="none" stroke="grey" stroke-width="2" d="M1354.33,-575.888C1367.56,-567.065 1381.49,-554.982 1389,-540 1410.51,-497.082 1396.87,-479.649 1391,-432 1386.97,-399.262 1390.58,-387.91 1373,-360 1365.84,-348.634 1355.42,-338.525 1345.07,-330.262"/>
<polygon fill="grey" stroke="grey" stroke-width="2" points="1346.92,-327.278 1336.83,-324.042 1342.7,-332.863 1346.92,-327.278"/>
</g>
<!-- 20&#45;&gt;39 -->
<g id="edge72" class="edge"><title>20&#45;&gt;39</title>
<path fill="none" stroke="grey" stroke-width="2" d="M1343.63,-575.756C1353.66,-566.374 1364.54,-553.862 1370,-540 1387.58,-495.332 1391.09,-475.597 1371,-432 1365.68,-420.445 1356.45,-410.473 1346.72,-402.395"/>
<polygon fill="grey" stroke="grey" stroke-width="2" points="1348.56,-399.394 1338.5,-396.063 1344.29,-404.939 1348.56,-399.394"/>
</g>
<!-- 21&#45;&gt;40 -->
<g id="edge77" class="edge"><title>21&#45;&gt;40</title>
<path fill="none" stroke="grey" stroke-width="2" d="M273.699,-80.4166C352.046,-66.3182 506.37,-38.5478 577.489,-25.75"/>
<polygon fill="grey" stroke="grey" stroke-width="2" points="578.54,-29.1172 587.762,-23.9014 577.3,-22.2278 578.54,-29.1172"/>
</g>
<!-- 22&#45;&gt;32 -->
<g id="edge55" class="edge"><title>22&#45;&gt;32</title>
<path fill="none" stroke="grey" stroke-width="2" d="M238.416,-287.697C231.342,-279.305 222.717,-269.07 214.955,-259.861"/>
<polygon fill="grey" stroke="grey" stroke-width="2" points="217.537,-257.495 208.417,-252.104 212.185,-262.006 217.537,-257.495"/>
</g>
<!-- 22&#45;&gt;34 -->
<g id="edge60" class="edge"><title>22&#45;&gt;34</title>
<path fill="none" stroke="grey" stroke-width="2" d="M250.406,-287.887C247.616,-269.929 242.914,-240.904 238,-216 236.331,-207.54 234.323,-198.364 232.433,-190.062"/>
<polygon fill="grey" stroke="grey" stroke-width="2" points="235.799,-189.087 230.134,-180.134 228.98,-190.666 235.799,-189.087"/>
</g>
<!-- 22&#45;&gt;35 -->
<g id="edge64" class="edge"><title>22&#45;&gt;35</title>
<path fill="none" stroke="grey" stroke-width="2" d="M272.281,-287.697C281.915,-279.05 293.729,-268.449 304.227,-259.027"/>
<polygon fill="grey" stroke="grey" stroke-width="2" points="306.836,-261.388 311.941,-252.104 302.161,-256.179 306.836,-261.388"/>
</g>
<!-- 23&#45;&gt;4 -->
<g id="edge8" class="edge"><title>23&#45;&gt;4</title>
<path fill="none" stroke="grey" stroke-width="2" d="M1221.76,-143.966C1187.96,-133.542 1144.7,-120.201 1110.05,-109.517"/>
<polygon fill="grey" stroke="grey" stroke-width="2" points="1110.64,-106.038 1100.05,-106.435 1108.58,-112.727 1110.64,-106.038"/>
</g>
<!-- 24 -->
<g id="node25" class="node"><title>24</title>
<path fill="none" stroke="#c6d856" stroke-width="2" d="M559,-900C559,-900 479,-900 479,-900 473,-900 467,-894 467,-888 467,-888 467,-876 467,-876 467,-870 473,-864 479,-864 479,-864 559,-864 559,-864 565,-864 571,-870 571,-876 571,-876 571,-888 571,-888 571,-894 565,-900 559,-900"/>
<text text-anchor="middle" x="519" y="-885" font-family="sans" font-size="10.00">raw_combine_files</text>
<text text-anchor="middle" x="519" y="-874" font-family="sans" font-size="10.00">sample: Vf</text>
</g>
<!-- 24&#45;&gt;11 -->
<g id="edge18" class="edge"><title>24&#45;&gt;11</title>
<path fill="none" stroke="grey" stroke-width="2" d="M519,-863.697C519,-855.983 519,-846.712 519,-838.112"/>
<polygon fill="grey" stroke="grey" stroke-width="2" points="522.5,-838.104 519,-828.104 515.5,-838.104 522.5,-838.104"/>
</g>
<!-- 25&#45;&gt;7 -->
<g id="edge14" class="edge"><title>25&#45;&gt;7</title>
<path fill="none" stroke="grey" stroke-width="2" d="M483.845,-431.876C499.944,-422.639 520.001,-411.131 537.288,-401.212"/>
<polygon fill="grey" stroke="grey" stroke-width="2" points="539.109,-404.202 546.041,-396.19 535.625,-398.131 539.109,-404.202"/>
</g>
<!-- 25&#45;&gt;32 -->
<g id="edge57" class="edge"><title>25&#45;&gt;32</title>
<path fill="none" stroke="grey" stroke-width="2" d="M443.221,-431.695C422.401,-399.499 373.676,-329.873 317,-288 293.659,-270.756 263.843,-257.728 239.412,-248.905"/>
<polygon fill="grey" stroke="grey" stroke-width="2" points="240.247,-245.489 229.652,-245.497 237.939,-252.098 240.247,-245.489"/>
</g>
<!-- 26 -->
<g id="node27" class="node"><title>26</title>
<path fill="none" stroke="#c6d856" stroke-width="2" d="M1245,-900C1245,-900 1165,-900 1165,-900 1159,-900 1153,-894 1153,-888 1153,-888 1153,-876 1153,-876 1153,-870 1159,-864 1165,-864 1165,-864 1245,-864 1245,-864 1251,-864 1257,-870 1257,-876 1257,-876 1257,-888 1257,-888 1257,-894 1251,-900 1245,-900"/>
<text text-anchor="middle" x="1205" y="-885" font-family="sans" font-size="10.00">raw_combine_files</text>
<text text-anchor="middle" x="1205" y="-874" font-family="sans" font-size="10.00">sample: Bs</text>
</g>
<!-- 27 -->
<g id="node28" class="node"><title>27</title>
<path fill="none" stroke="#78d856" stroke-width="2" d="M1242,-828C1242,-828 1168,-828 1168,-828 1162,-828 1156,-822 1156,-816 1156,-816 1156,-804 1156,-804 1156,-798 1162,-792 1168,-792 1168,-792 1242,-792 1242,-792 1248,-792 1254,-798 1254,-804 1254,-804 1254,-816 1254,-816 1254,-822 1248,-828 1242,-828"/>
<text text-anchor="middle" x="1205" y="-813" font-family="sans" font-size="10.00">qc_atropos</text>
<text text-anchor="middle" x="1205" y="-802" font-family="sans" font-size="10.00">trimmer: atropos</text>
</g>
<!-- 26&#45;&gt;27 -->
<g id="edge46" class="edge"><title>26&#45;&gt;27</title>
<path fill="none" stroke="grey" stroke-width="2" d="M1205,-863.697C1205,-855.983 1205,-846.712 1205,-838.112"/>
<polygon fill="grey" stroke="grey" stroke-width="2" points="1208.5,-838.104 1205,-828.104 1201.5,-838.104 1208.5,-838.104"/>
</g>
<!-- 33 -->
<g id="node34" class="node"><title>33</title>
<path fill="none" stroke="#56a2d8" stroke-width="2" d="M1220,-756C1220,-756 1190,-756 1190,-756 1184,-756 1178,-750 1178,-744 1178,-744 1178,-732 1178,-732 1178,-726 1184,-720 1190,-720 1190,-720 1220,-720 1220,-720 1226,-720 1232,-726 1232,-732 1232,-732 1232,-744 1232,-744 1232,-750 1226,-756 1220,-756"/>
<text text-anchor="middle" x="1205" y="-735.5" font-family="sans" font-size="10.00">qc_filter</text>
</g>
<!-- 27&#45;&gt;33 -->
<g id="edge58" class="edge"><title>27&#45;&gt;33</title>
<path fill="none" stroke="grey" stroke-width="2" d="M1205,-791.697C1205,-783.983 1205,-774.712 1205,-766.112"/>
<polygon fill="grey" stroke="grey" stroke-width="2" points="1208.5,-766.104 1205,-756.104 1201.5,-766.104 1208.5,-766.104"/>
</g>
<!-- 28&#45;&gt;25 -->
<g id="edge45" class="edge"><title>28&#45;&gt;25</title>
<path fill="none" stroke="grey" stroke-width="2" d="M502.933,-503.697C495.061,-495.22 485.445,-484.864 476.827,-475.583"/>
<polygon fill="grey" stroke="grey" stroke-width="2" points="479.252,-473.051 469.883,-468.104 474.122,-477.814 479.252,-473.051"/>
</g>
<!-- 30 -->
<g id="node31" class="node"><title>30</title>
<path fill="none" stroke="#d8bc56" stroke-width="2" d="M616.5,-468C616.5,-468 535.5,-468 535.5,-468 529.5,-468 523.5,-462 523.5,-456 523.5,-456 523.5,-444 523.5,-444 523.5,-438 529.5,-432 535.5,-432 535.5,-432 616.5,-432 616.5,-432 622.5,-432 628.5,-438 628.5,-444 628.5,-444 628.5,-456 628.5,-456 628.5,-462 622.5,-468 616.5,-468"/>
<text text-anchor="middle" x="576" y="-453" font-family="sans" font-size="10.00">map_bowtie2</text>
<text text-anchor="middle" x="576" y="-442" font-family="sans" font-size="10.00">abund_sample: Bs</text>
</g>
<!-- 28&#45;&gt;30 -->
<g id="edge52" class="edge"><title>28&#45;&gt;30</title>
<path fill="none" stroke="grey" stroke-width="2" d="M533.09,-503.697C539.923,-495.305 548.257,-485.07 555.756,-475.861"/>
<polygon fill="grey" stroke="grey" stroke-width="2" points="558.472,-478.069 562.072,-468.104 553.044,-473.649 558.472,-478.069"/>
</g>
<!-- 29&#45;&gt;14 -->
<g id="edge28" class="edge"><title>29&#45;&gt;14</title>
<path fill="none" stroke="grey" stroke-width="2" d="M1022.75,-215.876C1003.94,-206.469 980.415,-194.708 960.334,-184.667"/>
<polygon fill="grey" stroke="grey" stroke-width="2" points="961.889,-181.531 951.38,-180.19 958.759,-187.792 961.889,-181.531"/>
</g>
<!-- 30&#45;&gt;7 -->
<g id="edge13" class="edge"><title>30&#45;&gt;7</title>
<path fill="none" stroke="grey" stroke-width="2" d="M576,-431.697C576,-423.983 576,-414.712 576,-406.112"/>
<polygon fill="grey" stroke="grey" stroke-width="2" points="579.5,-406.104 576,-396.104 572.5,-406.104 579.5,-406.104"/>
</g>
<!-- 30&#45;&gt;35 -->
<g id="edge65" class="edge"><title>30&#45;&gt;35</title>
<path fill="none" stroke="grey" stroke-width="2" d="M555.092,-431.998C542.512,-421.692 526.231,-408.215 512,-396 456.223,-348.124 392.238,-290.574 357.253,-258.877"/>
<polygon fill="grey" stroke="grey" stroke-width="2" points="359.587,-256.269 349.829,-252.144 354.885,-261.454 359.587,-256.269"/>
</g>
<!-- 31&#45;&gt;36 -->
<g id="edge68" class="edge"><title>31&#45;&gt;36</title>
<path fill="none" stroke="grey" stroke-width="2" d="M949.382,-359.697C954.265,-351.559 960.187,-341.689 965.579,-332.701"/>
<polygon fill="grey" stroke="grey" stroke-width="2" points="968.594,-334.48 970.737,-324.104 962.591,-330.879 968.594,-334.48"/>
</g>
<!-- 32&#45;&gt;34 -->
<g id="edge63" class="edge"><title>32&#45;&gt;34</title>
<path fill="none" stroke="grey" stroke-width="2" d="M201.91,-215.697C205.553,-207.728 209.954,-198.1 213.994,-189.264"/>
<polygon fill="grey" stroke="grey" stroke-width="2" points="217.206,-190.654 218.181,-180.104 210.84,-187.744 217.206,-190.654"/>
</g>
<!-- 33&#45;&gt;17 -->
<g id="edge34" class="edge"><title>33&#45;&gt;17</title>
<path fill="none" stroke="grey" stroke-width="2" d="M1203.2,-719.866C1199.77,-678.95 1196.25,-573.768 1241,-504 1248.47,-492.354 1259.41,-482.208 1270.34,-473.997"/>
<polygon fill="grey" stroke="grey" stroke-width="2" points="1272.52,-476.747 1278.64,-468.103 1268.46,-471.039 1272.52,-476.747"/>
</g>
<!-- 33&#45;&gt;30 -->
<g id="edge51" class="edge"><title>33&#45;&gt;30</title>
<path fill="none" stroke="grey" stroke-width="2" d="M1177.97,-724.711C1080.57,-680.424 746.785,-528.654 622.832,-472.294"/>
<polygon fill="grey" stroke="grey" stroke-width="2" points="624.132,-469.04 613.58,-468.087 621.234,-475.412 624.132,-469.04"/>
</g>
<!-- 38 -->
<g id="node39" class="node"><title>38</title>
<path fill="none" stroke="#567bd8" stroke-width="2" d="M1361,-684C1361,-684 1257,-684 1257,-684 1251,-684 1245,-678 1245,-672 1245,-672 1245,-660 1245,-660 1245,-654 1251,-648 1257,-648 1257,-648 1361,-648 1361,-648 1367,-648 1373,-654 1373,-660 1373,-660 1373,-672 1373,-672 1373,-678 1367,-684 1361,-684"/>
<text text-anchor="middle" x="1309" y="-663.5" font-family="sans" font-size="10.00">assemble_metaspades</text>
</g>
<!-- 33&#45;&gt;38 -->
<g id="edge71" class="edge"><title>33&#45;&gt;38</title>
<path fill="none" stroke="grey" stroke-width="2" d="M1230.44,-719.876C1243.79,-710.893 1260.32,-699.763 1274.78,-690.034"/>
<polygon fill="grey" stroke="grey" stroke-width="2" points="1277.12,-692.677 1283.46,-684.19 1273.21,-686.87 1277.12,-692.677"/>
</g>
<!-- 34&#45;&gt;12 -->
<g id="edge19" class="edge"><title>34&#45;&gt;12</title>
<path fill="none" stroke="grey" stroke-width="2" d="M262.548,-151.559C307.296,-140.001 383.7,-120.266 437.086,-106.476"/>
<polygon fill="grey" stroke="grey" stroke-width="2" points="437.967,-109.863 446.773,-103.974 436.216,-103.086 437.967,-109.863"/>
</g>
<!-- 34&#45;&gt;21 -->
<g id="edge39" class="edge"><title>34&#45;&gt;21</title>
<path fill="none" stroke="grey" stroke-width="2" d="M226,-143.697C226,-135.983 226,-126.712 226,-118.112"/>
<polygon fill="grey" stroke="grey" stroke-width="2" points="229.5,-118.104 226,-108.104 222.5,-118.104 229.5,-118.104"/>
</g>
<!-- 35&#45;&gt;34 -->
<g id="edge59" class="edge"><title>35&#45;&gt;34</title>
<path fill="none" stroke="grey" stroke-width="2" d="M305.314,-215.876C291.712,-206.808 274.828,-195.552 260.139,-185.759"/>
<polygon fill="grey" stroke="grey" stroke-width="2" points="262.047,-182.825 251.785,-180.19 258.164,-188.649 262.047,-182.825"/>
</g>
<!-- 36&#45;&gt;13 -->
<g id="edge24" class="edge"><title>36&#45;&gt;13</title>
<path fill="none" stroke="grey" stroke-width="2" d="M965.18,-287.697C957.43,-279.22 947.961,-268.864 939.476,-259.583"/>
<polygon fill="grey" stroke="grey" stroke-width="2" points="941.969,-257.123 932.638,-252.104 936.803,-261.846 941.969,-257.123"/>
</g>
<!-- 36&#45;&gt;14 -->
<g id="edge29" class="edge"><title>36&#45;&gt;14</title>
<path fill="none" stroke="grey" stroke-width="2" d="M979.548,-287.809C977.445,-269.278 972.46,-239.307 961,-216 956.042,-205.915 948.795,-196.093 941.608,-187.699"/>
<polygon fill="grey" stroke="grey" stroke-width="2" points="944.096,-185.232 934.812,-180.127 938.887,-189.907 944.096,-185.232"/>
</g>
<!-- 36&#45;&gt;29 -->
<g id="edge50" class="edge"><title>36&#45;&gt;29</title>
<path fill="none" stroke="grey" stroke-width="2" d="M999.787,-287.697C1009.17,-279.05 1020.68,-268.449 1030.91,-259.027"/>
<polygon fill="grey" stroke="grey" stroke-width="2" points="1033.45,-261.454 1038.43,-252.104 1028.7,-256.305 1033.45,-261.454"/>
</g>
<!-- 37&#45;&gt;40 -->
<g id="edge78" class="edge"><title>37&#45;&gt;40</title>
<path fill="none" stroke="grey" stroke-width="2" d="M704.134,-71.8761C688.245,-62.4504 668.37,-50.6602 651.422,-40.6065"/>
<polygon fill="grey" stroke="grey" stroke-width="2" points="652.738,-37.3176 642.352,-35.2257 649.167,-43.338 652.738,-37.3176"/>
</g>
<!-- 38&#45;&gt;20 -->
<g id="edge38" class="edge"><title>38&#45;&gt;20</title>
<path fill="none" stroke="grey" stroke-width="2" d="M1312.21,-647.697C1313.65,-639.983 1315.37,-630.712 1316.96,-622.112"/>
<polygon fill="grey" stroke="grey" stroke-width="2" points="1320.44,-622.575 1318.82,-612.104 1313.56,-621.297 1320.44,-622.575"/>
</g>
<!-- 39&#45;&gt;15 -->
<g id="edge31" class="edge"><title>39&#45;&gt;15</title>
<path fill="none" stroke="grey" stroke-width="2" d="M1309,-359.697C1309,-351.983 1309,-342.712 1309,-334.112"/>
<polygon fill="grey" stroke="grey" stroke-width="2" points="1312.5,-334.104 1309,-324.104 1305.5,-334.104 1312.5,-334.104"/>
</g>
</g>
</svg>
