<?xml version="1.0" encoding="UTF-8" standalone="no"?>
<!DOCTYPE svg PUBLIC "-//W3C//DTD SVG 1.1//EN"
 "http://www.w3.org/Graphics/SVG/1.1/DTD/svg11.dtd">
<!-- Generated by graphviz version 2.38.0 (20140413.2041)
 -->
<!-- Title: snakemake_dag Pages: 1 -->
<svg width="572pt" height="404pt"
 viewBox="0.00 0.00 571.50 404.00" xmlns="http://www.w3.org/2000/svg" xmlns:xlink="http://www.w3.org/1999/xlink">
<g id="graph0" class="graph" transform="scale(1 1) rotate(0) translate(4 400)">
<title>snakemake_dag</title>
<polygon fill="white" stroke="none" points="-4,4 -4,-400 567.5,-400 567.5,4 -4,4"/>
<!-- 0 -->
<g id="node1" class="node"><title>0</title>
<path fill="none" stroke="#d89c56" stroke-width="2" d="M177,-108C177,-108 60,-108 60,-108 54,-108 48,-102 48,-96 48,-96 48,-84 48,-84 48,-78 54,-72 60,-72 60,-72 177,-72 177,-72 183,-72 189,-78 189,-84 189,-84 189,-96 189,-96 189,-102 183,-108 177,-108"/>
<text text-anchor="middle" x="118.5" y="-87.5" font-family="sans" font-size="10.00">tax_combine_metaphlan2</text>
</g>
<!-- 8 -->
<g id="node9" class="node"><title>8</title>
<path fill="none" stroke="#68d856" stroke-width="2" d="M305,-36C305,-36 264,-36 264,-36 258,-36 252,-30 252,-24 252,-24 252,-12 252,-12 252,-6 258,-0 264,-0 264,-0 305,-0 305,-0 311,-0 317,-6 317,-12 317,-12 317,-24 317,-24 317,-30 311,-36 305,-36"/>
<text text-anchor="middle" x="284.5" y="-15.5" font-family="sans" font-size="10.00">taxonomy</text>
</g>
<!-- 0&#45;&gt;8 -->
<g id="edge10" class="edge"><title>0&#45;&gt;8</title>
<path fill="none" stroke="grey" stroke-width="2" d="M159.108,-71.8761C184.386,-61.2167 216.835,-47.5334 242.39,-36.7572"/>
<polygon fill="grey" stroke="grey" stroke-width="2" points="243.963,-39.8924 251.818,-32.7818 241.243,-33.4424 243.963,-39.8924"/>
</g>
<!-- 1 -->
<g id="node2" class="node"><title>1</title>
<path fill="none" stroke="#d86e56" stroke-width="2" d="M478.5,-396C478.5,-396 398.5,-396 398.5,-396 392.5,-396 386.5,-390 386.5,-384 386.5,-384 386.5,-372 386.5,-372 386.5,-366 392.5,-360 398.5,-360 398.5,-360 478.5,-360 478.5,-360 484.5,-360 490.5,-366 490.5,-372 490.5,-372 490.5,-384 490.5,-384 490.5,-390 484.5,-396 478.5,-396"/>
<text text-anchor="middle" x="438.5" y="-381" font-family="sans" font-size="10.00">raw_combine_files</text>
<text text-anchor="middle" x="438.5" y="-370" font-family="sans" font-size="10.00">sample: Vf</text>
</g>
<!-- 6 -->
<g id="node7" class="node"><title>6</title>
<path fill="none" stroke="#56c1d8" stroke-width="2" d="M475.5,-324C475.5,-324 401.5,-324 401.5,-324 395.5,-324 389.5,-318 389.5,-312 389.5,-312 389.5,-300 389.5,-300 389.5,-294 395.5,-288 401.5,-288 401.5,-288 475.5,-288 475.5,-288 481.5,-288 487.5,-294 487.5,-300 487.5,-300 487.5,-312 487.5,-312 487.5,-318 481.5,-324 475.5,-324"/>
<text text-anchor="middle" x="438.5" y="-309" font-family="sans" font-size="10.00">qc_atropos</text>
<text text-anchor="middle" x="438.5" y="-298" font-family="sans" font-size="10.00">trimmer: atropos</text>
</g>
<!-- 1&#45;&gt;6 -->
<g id="edge7" class="edge"><title>1&#45;&gt;6</title>
<path fill="none" stroke="grey" stroke-width="2" d="M438.5,-359.697C438.5,-351.983 438.5,-342.712 438.5,-334.112"/>
<polygon fill="grey" stroke="grey" stroke-width="2" points="442,-334.104 438.5,-324.104 435,-334.104 442,-334.104"/>
</g>
<!-- 2 -->
<g id="node3" class="node"><title>2</title>
<path fill="none" stroke="#5663d8" stroke-width="2" d="M373.5,-180C373.5,-180 325.5,-180 325.5,-180 319.5,-180 313.5,-174 313.5,-168 313.5,-168 313.5,-156 313.5,-156 313.5,-150 319.5,-144 325.5,-144 325.5,-144 373.5,-144 373.5,-144 379.5,-144 385.5,-150 385.5,-156 385.5,-156 385.5,-168 385.5,-168 385.5,-174 379.5,-180 373.5,-180"/>
<text text-anchor="middle" x="349.5" y="-159.5" font-family="sans" font-size="10.00">tax_shogun</text>
</g>
<!-- 10 -->
<g id="node11" class="node"><title>10</title>
<path fill="none" stroke="#d88d56" stroke-width="2" d="M521,-108C521,-108 392,-108 392,-108 386,-108 380,-102 380,-96 380,-96 380,-84 380,-84 380,-78 386,-72 392,-72 392,-72 521,-72 521,-72 527,-72 533,-78 533,-84 533,-84 533,-96 533,-96 533,-102 527,-108 521,-108"/>
<text text-anchor="middle" x="456.5" y="-87.5" font-family="sans" font-size="10.00">tax_shogun_combine_tables</text>
</g>
<!-- 2&#45;&gt;10 -->
<g id="edge14" class="edge"><title>2&#45;&gt;10</title>
<path fill="none" stroke="grey" stroke-width="2" d="M375.675,-143.876C389.536,-134.808 406.741,-123.552 421.711,-113.759"/>
<polygon fill="grey" stroke="grey" stroke-width="2" points="423.772,-116.593 430.224,-108.19 419.94,-110.735 423.772,-116.593"/>
</g>
<!-- 3 -->
<g id="node4" class="node"><title>3</title>
<path fill="none" stroke="#88d856" stroke-width="2" d="M283,-180C283,-180 212,-180 212,-180 206,-180 200,-174 200,-168 200,-168 200,-156 200,-156 200,-150 206,-144 212,-144 212,-144 283,-144 283,-144 289,-144 295,-150 295,-156 295,-156 295,-168 295,-168 295,-174 289,-180 283,-180"/>
<text text-anchor="middle" x="247.5" y="-159.5" font-family="sans" font-size="10.00">tax_metaphlan2</text>
</g>
<!-- 3&#45;&gt;0 -->
<g id="edge2" class="edge"><title>3&#45;&gt;0</title>
<path fill="none" stroke="grey" stroke-width="2" d="M215.943,-143.876C198.842,-134.596 177.518,-123.025 159.181,-113.075"/>
<polygon fill="grey" stroke="grey" stroke-width="2" points="160.637,-109.883 150.178,-108.19 157.298,-116.035 160.637,-109.883"/>
</g>
<!-- 4 -->
<g id="node5" class="node"><title>4</title>
<path fill="none" stroke="#88d856" stroke-width="2" d="M83,-180C83,-180 12,-180 12,-180 6,-180 0,-174 0,-168 0,-168 0,-156 0,-156 0,-150 6,-144 12,-144 12,-144 83,-144 83,-144 89,-144 95,-150 95,-156 95,-156 95,-168 95,-168 95,-174 89,-180 83,-180"/>
<text text-anchor="middle" x="47.5" y="-159.5" font-family="sans" font-size="10.00">tax_metaphlan2</text>
</g>
<!-- 4&#45;&gt;0 -->
<g id="edge1" class="edge"><title>4&#45;&gt;0</title>
<path fill="none" stroke="grey" stroke-width="2" d="M65.0506,-143.697C73.7345,-135.135 84.363,-124.656 93.8483,-115.304"/>
<polygon fill="grey" stroke="grey" stroke-width="2" points="96.4875,-117.617 101.151,-108.104 91.573,-112.633 96.4875,-117.617"/>
</g>
<!-- 5 -->
<g id="node6" class="node"><title>5</title>
<path fill="none" stroke="#56b9d8" stroke-width="2" d="M170,-180C170,-180 125,-180 125,-180 119,-180 113,-174 113,-168 113,-168 113,-156 113,-156 113,-150 119,-144 125,-144 125,-144 170,-144 170,-144 176,-144 182,-150 182,-156 182,-156 182,-168 182,-168 182,-174 176,-180 170,-180"/>
<text text-anchor="middle" x="147.5" y="-159.5" font-family="sans" font-size="10.00">tax_kraken</text>
</g>
<!-- 14 -->
<g id="node15" class="node"><title>14</title>
<path fill="none" stroke="#97d856" stroke-width="2" d="M350,-108C350,-108 219,-108 219,-108 213,-108 207,-102 207,-96 207,-96 207,-84 207,-84 207,-78 213,-72 219,-72 219,-72 350,-72 350,-72 356,-72 362,-78 362,-84 362,-84 362,-96 362,-96 362,-102 356,-108 350,-108"/>
<text text-anchor="middle" x="284.5" y="-87.5" font-family="sans" font-size="10.00">tax_kraken_combine_reports</text>
</g>
<!-- 5&#45;&gt;14 -->
<g id="edge18" class="edge"><title>5&#45;&gt;14</title>
<path fill="none" stroke="grey" stroke-width="2" d="M181.014,-143.876C199.341,-134.512 222.236,-122.814 241.828,-112.803"/>
<polygon fill="grey" stroke="grey" stroke-width="2" points="243.545,-115.857 250.857,-108.19 240.36,-109.623 243.545,-115.857"/>
</g>
<!-- 7 -->
<g id="node8" class="node"><title>7</title>
<path fill="none" stroke="#56d86b" stroke-width="2" d="M453.5,-252C453.5,-252 423.5,-252 423.5,-252 417.5,-252 411.5,-246 411.5,-240 411.5,-240 411.5,-228 411.5,-228 411.5,-222 417.5,-216 423.5,-216 423.5,-216 453.5,-216 453.5,-216 459.5,-216 465.5,-222 465.5,-228 465.5,-228 465.5,-240 465.5,-240 465.5,-246 459.5,-252 453.5,-252"/>
<text text-anchor="middle" x="438.5" y="-231.5" font-family="sans" font-size="10.00">qc_filter</text>
</g>
<!-- 6&#45;&gt;7 -->
<g id="edge8" class="edge"><title>6&#45;&gt;7</title>
<path fill="none" stroke="grey" stroke-width="2" d="M438.5,-287.697C438.5,-279.983 438.5,-270.712 438.5,-262.112"/>
<polygon fill="grey" stroke="grey" stroke-width="2" points="442,-262.104 438.5,-252.104 435,-262.104 442,-262.104"/>
</g>
<!-- 7&#45;&gt;3 -->
<g id="edge4" class="edge"><title>7&#45;&gt;3</title>
<path fill="none" stroke="grey" stroke-width="2" d="M411.134,-222.971C383.226,-212.742 339.118,-196.577 303.726,-183.606"/>
<polygon fill="grey" stroke="grey" stroke-width="2" points="304.589,-180.195 293.995,-180.04 302.18,-186.767 304.589,-180.195"/>
</g>
<!-- 12 -->
<g id="node13" class="node"><title>12</title>
<path fill="none" stroke="#5663d8" stroke-width="2" d="M551.5,-180C551.5,-180 503.5,-180 503.5,-180 497.5,-180 491.5,-174 491.5,-168 491.5,-168 491.5,-156 491.5,-156 491.5,-150 497.5,-144 503.5,-144 503.5,-144 551.5,-144 551.5,-144 557.5,-144 563.5,-150 563.5,-156 563.5,-156 563.5,-168 563.5,-168 563.5,-174 557.5,-180 551.5,-180"/>
<text text-anchor="middle" x="527.5" y="-159.5" font-family="sans" font-size="10.00">tax_shogun</text>
</g>
<!-- 7&#45;&gt;12 -->
<g id="edge16" class="edge"><title>7&#45;&gt;12</title>
<path fill="none" stroke="grey" stroke-width="2" d="M460.5,-215.697C471.709,-206.881 485.502,-196.032 497.654,-186.474"/>
<polygon fill="grey" stroke="grey" stroke-width="2" points="500.057,-189.038 505.753,-180.104 495.729,-183.535 500.057,-189.038"/>
</g>
<!-- 13 -->
<g id="node14" class="node"><title>13</title>
<path fill="none" stroke="#56b9d8" stroke-width="2" d="M461,-180C461,-180 416,-180 416,-180 410,-180 404,-174 404,-168 404,-168 404,-156 404,-156 404,-150 410,-144 416,-144 416,-144 461,-144 461,-144 467,-144 473,-150 473,-156 473,-156 473,-168 473,-168 473,-174 467,-180 461,-180"/>
<text text-anchor="middle" x="438.5" y="-159.5" font-family="sans" font-size="10.00">tax_kraken</text>
</g>
<!-- 7&#45;&gt;13 -->
<g id="edge17" class="edge"><title>7&#45;&gt;13</title>
<path fill="none" stroke="grey" stroke-width="2" d="M438.5,-215.697C438.5,-207.983 438.5,-198.712 438.5,-190.112"/>
<polygon fill="grey" stroke="grey" stroke-width="2" points="442,-190.104 438.5,-180.104 435,-190.104 442,-190.104"/>
</g>
<!-- 9 -->
<g id="node10" class="node"><title>9</title>
<path fill="none" stroke="#56d86b" stroke-width="2" d="M162.5,-252C162.5,-252 132.5,-252 132.5,-252 126.5,-252 120.5,-246 120.5,-240 120.5,-240 120.5,-228 120.5,-228 120.5,-222 126.5,-216 132.5,-216 132.5,-216 162.5,-216 162.5,-216 168.5,-216 174.5,-222 174.5,-228 174.5,-228 174.5,-240 174.5,-240 174.5,-246 168.5,-252 162.5,-252"/>
<text text-anchor="middle" x="147.5" y="-231.5" font-family="sans" font-size="10.00">qc_filter</text>
</g>
<!-- 9&#45;&gt;2 -->
<g id="edge3" class="edge"><title>9&#45;&gt;2</title>
<path fill="none" stroke="grey" stroke-width="2" d="M174.63,-224.025C205.81,-213.654 258.478,-195.964 303.5,-180 303.6,-179.964 303.701,-179.929 303.801,-179.893"/>
<polygon fill="grey" stroke="grey" stroke-width="2" points="305.146,-183.129 313.373,-176.454 302.779,-176.541 305.146,-183.129"/>
</g>
<!-- 9&#45;&gt;4 -->
<g id="edge5" class="edge"><title>9&#45;&gt;4</title>
<path fill="none" stroke="grey" stroke-width="2" d="M123.037,-215.876C110.204,-206.893 94.3036,-195.763 80.4059,-186.034"/>
<polygon fill="grey" stroke="grey" stroke-width="2" points="82.2563,-183.057 72.0568,-180.19 78.242,-188.792 82.2563,-183.057"/>
</g>
<!-- 9&#45;&gt;5 -->
<g id="edge6" class="edge"><title>9&#45;&gt;5</title>
<path fill="none" stroke="grey" stroke-width="2" d="M147.5,-215.697C147.5,-207.983 147.5,-198.712 147.5,-190.112"/>
<polygon fill="grey" stroke="grey" stroke-width="2" points="151,-190.104 147.5,-180.104 144,-190.104 151,-190.104"/>
</g>
<!-- 10&#45;&gt;8 -->
<g id="edge9" class="edge"><title>10&#45;&gt;8</title>
<path fill="none" stroke="grey" stroke-width="2" d="M414.424,-71.8761C387.763,-61.0255 353.402,-47.0416 326.714,-36.1803"/>
<polygon fill="grey" stroke="grey" stroke-width="2" points="327.839,-32.8593 317.258,-32.3316 325.2,-39.343 327.839,-32.8593"/>
</g>
<!-- 11 -->
<g id="node12" class="node"><title>11</title>
<path fill="none" stroke="#56c1d8" stroke-width="2" d="M184.5,-324C184.5,-324 110.5,-324 110.5,-324 104.5,-324 98.5,-318 98.5,-312 98.5,-312 98.5,-300 98.5,-300 98.5,-294 104.5,-288 110.5,-288 110.5,-288 184.5,-288 184.5,-288 190.5,-288 196.5,-294 196.5,-300 196.5,-300 196.5,-312 196.5,-312 196.5,-318 190.5,-324 184.5,-324"/>
<text text-anchor="middle" x="147.5" y="-309" font-family="sans" font-size="10.00">qc_atropos</text>
<text text-anchor="middle" x="147.5" y="-298" font-family="sans" font-size="10.00">trimmer: atropos</text>
</g>
<!-- 11&#45;&gt;9 -->
<g id="edge12" class="edge"><title>11&#45;&gt;9</title>
<path fill="none" stroke="grey" stroke-width="2" d="M147.5,-287.697C147.5,-279.983 147.5,-270.712 147.5,-262.112"/>
<polygon fill="grey" stroke="grey" stroke-width="2" points="151,-262.104 147.5,-252.104 144,-262.104 151,-262.104"/>
</g>
<!-- 12&#45;&gt;10 -->
<g id="edge13" class="edge"><title>12&#45;&gt;10</title>
<path fill="none" stroke="grey" stroke-width="2" d="M509.949,-143.697C501.266,-135.135 490.637,-124.656 481.152,-115.304"/>
<polygon fill="grey" stroke="grey" stroke-width="2" points="483.427,-112.633 473.849,-108.104 478.512,-117.617 483.427,-112.633"/>
</g>
<!-- 13&#45;&gt;14 -->
<g id="edge19" class="edge"><title>13&#45;&gt;14</title>
<path fill="none" stroke="grey" stroke-width="2" d="M403.939,-145.291C382.505,-135.548 354.691,-122.905 331.297,-112.271"/>
<polygon fill="grey" stroke="grey" stroke-width="2" points="332.459,-108.955 321.907,-108.003 329.563,-115.328 332.459,-108.955"/>
</g>
<!-- 14&#45;&gt;8 -->
<g id="edge11" class="edge"><title>14&#45;&gt;8</title>
<path fill="none" stroke="grey" stroke-width="2" d="M284.5,-71.6966C284.5,-63.9827 284.5,-54.7125 284.5,-46.1124"/>
<polygon fill="grey" stroke="grey" stroke-width="2" points="288,-46.1043 284.5,-36.1043 281,-46.1044 288,-46.1043"/>
</g>
<!-- 15 -->
<g id="node16" class="node"><title>15</title>
<path fill="none" stroke="#d86e56" stroke-width="2" d="M187.5,-396C187.5,-396 107.5,-396 107.5,-396 101.5,-396 95.5,-390 95.5,-384 95.5,-384 95.5,-372 95.5,-372 95.5,-366 101.5,-360 107.5,-360 107.5,-360 187.5,-360 187.5,-360 193.5,-360 199.5,-366 199.5,-372 199.5,-372 199.5,-384 199.5,-384 199.5,-390 193.5,-396 187.5,-396"/>
<text text-anchor="middle" x="147.5" y="-381" font-family="sans" font-size="10.00">raw_combine_files</text>
<text text-anchor="middle" x="147.5" y="-370" font-family="sans" font-size="10.00">sample: Bs</text>
</g>
<!-- 15&#45;&gt;11 -->
<g id="edge15" class="edge"><title>15&#45;&gt;11</title>
<path fill="none" stroke="grey" stroke-width="2" d="M147.5,-359.697C147.5,-351.983 147.5,-342.712 147.5,-334.112"/>
<polygon fill="grey" stroke="grey" stroke-width="2" points="151,-334.104 147.5,-324.104 144,-334.104 151,-334.104"/>
</g>
</g>
</svg>
